%TF.GenerationSoftware,KiCad,Pcbnew,7.0.5*%
%TF.CreationDate,2023-08-26T19:15:35+09:00*%
%TF.ProjectId,18to12_DCDC,3138746f-3132-45f4-9443-44432e6b6963,rev?*%
%TF.SameCoordinates,Original*%
%TF.FileFunction,Soldermask,Bot*%
%TF.FilePolarity,Negative*%
%FSLAX46Y46*%
G04 Gerber Fmt 4.6, Leading zero omitted, Abs format (unit mm)*
G04 Created by KiCad (PCBNEW 7.0.5) date 2023-08-26 19:15:35*
%MOMM*%
%LPD*%
G01*
G04 APERTURE LIST*
G04 Aperture macros list*
%AMRoundRect*
0 Rectangle with rounded corners*
0 $1 Rounding radius*
0 $2 $3 $4 $5 $6 $7 $8 $9 X,Y pos of 4 corners*
0 Add a 4 corners polygon primitive as box body*
4,1,4,$2,$3,$4,$5,$6,$7,$8,$9,$2,$3,0*
0 Add four circle primitives for the rounded corners*
1,1,$1+$1,$2,$3*
1,1,$1+$1,$4,$5*
1,1,$1+$1,$6,$7*
1,1,$1+$1,$8,$9*
0 Add four rect primitives between the rounded corners*
20,1,$1+$1,$2,$3,$4,$5,0*
20,1,$1+$1,$4,$5,$6,$7,0*
20,1,$1+$1,$6,$7,$8,$9,0*
20,1,$1+$1,$8,$9,$2,$3,0*%
G04 Aperture macros list end*
%ADD10C,0.800000*%
%ADD11C,6.400000*%
%ADD12C,2.000000*%
%ADD13RoundRect,0.250000X-0.750000X0.600000X-0.750000X-0.600000X0.750000X-0.600000X0.750000X0.600000X0*%
%ADD14O,2.000000X1.700000*%
%ADD15C,6.000000*%
%ADD16RoundRect,1.500000X1.500000X-1.500000X1.500000X1.500000X-1.500000X1.500000X-1.500000X-1.500000X0*%
%ADD17R,2.400000X2.400000*%
%ADD18C,2.400000*%
G04 APERTURE END LIST*
D10*
%TO.C,H2*%
X81420000Y-131445000D03*
X82122944Y-129747944D03*
X82122944Y-133142056D03*
X83820000Y-129045000D03*
D11*
X83820000Y-131445000D03*
D10*
X83820000Y-133845000D03*
X85517056Y-129747944D03*
X85517056Y-133142056D03*
X86220000Y-131445000D03*
%TD*%
D12*
%TO.C,C6*%
X128270000Y-113030000D03*
X125730000Y-113030000D03*
%TD*%
%TO.C,C14*%
X135255000Y-95250000D03*
X137795000Y-95250000D03*
%TD*%
%TO.C,C17*%
X161925000Y-95250000D03*
X164465000Y-95250000D03*
%TD*%
D10*
%TO.C,H4*%
X165240000Y-76835000D03*
X165942944Y-75137944D03*
X165942944Y-78532056D03*
X167640000Y-74435000D03*
D11*
X167640000Y-76835000D03*
D10*
X167640000Y-79235000D03*
X169337056Y-75137944D03*
X169337056Y-78532056D03*
X170040000Y-76835000D03*
%TD*%
D13*
%TO.C,J7*%
X89175000Y-98520000D03*
D14*
X89175000Y-101020000D03*
%TD*%
D12*
%TO.C,C13*%
X143510000Y-95250000D03*
X146050000Y-95250000D03*
%TD*%
D15*
%TO.C,J6*%
X154305000Y-127850000D03*
D16*
X154305000Y-120650000D03*
%TD*%
D15*
%TO.C,J4*%
X128905000Y-127850000D03*
D16*
X128905000Y-120650000D03*
%TD*%
D12*
%TO.C,C3*%
X158750000Y-114935000D03*
X158750000Y-112395000D03*
%TD*%
D13*
%TO.C,J8*%
X89175000Y-107970000D03*
D14*
X89175000Y-110470000D03*
%TD*%
D13*
%TO.C,J9*%
X89175000Y-117420000D03*
D14*
X89175000Y-119920000D03*
%TD*%
D10*
%TO.C,H3*%
X165240000Y-131445000D03*
X165942944Y-129747944D03*
X165942944Y-133142056D03*
X167640000Y-129045000D03*
D11*
X167640000Y-131445000D03*
D10*
X167640000Y-133845000D03*
X169337056Y-129747944D03*
X169337056Y-133142056D03*
X170040000Y-131445000D03*
%TD*%
D17*
%TO.C,C1*%
X138430000Y-82139785D03*
D18*
X138430000Y-87139785D03*
%TD*%
D12*
%TO.C,C9*%
X102870000Y-113030000D03*
X100330000Y-113030000D03*
%TD*%
%TO.C,C5*%
X137795000Y-113030000D03*
X135255000Y-113030000D03*
%TD*%
%TO.C,C18*%
X153035000Y-95250000D03*
X155575000Y-95250000D03*
%TD*%
%TO.C,C15*%
X125730000Y-95250000D03*
X128270000Y-95250000D03*
%TD*%
D15*
%TO.C,J5*%
X141605000Y-127850000D03*
D16*
X141605000Y-120650000D03*
%TD*%
D10*
%TO.C,H1*%
X81420000Y-76835000D03*
X82122944Y-75137944D03*
X82122944Y-78532056D03*
X83820000Y-74435000D03*
D11*
X83820000Y-76835000D03*
D10*
X83820000Y-79235000D03*
X85517056Y-75137944D03*
X85517056Y-78532056D03*
X86220000Y-76835000D03*
%TD*%
D15*
%TO.C,J3*%
X116205000Y-127850000D03*
D16*
X116205000Y-120650000D03*
%TD*%
D12*
%TO.C,C2*%
X154940000Y-113030000D03*
X152400000Y-113030000D03*
%TD*%
%TO.C,C8*%
X111125000Y-113030000D03*
X108585000Y-113030000D03*
%TD*%
%TO.C,C12*%
X117475000Y-95250000D03*
X120015000Y-95250000D03*
%TD*%
%TO.C,C11*%
X108585000Y-95250000D03*
X111125000Y-95250000D03*
%TD*%
D15*
%TO.C,J1*%
X154940000Y-88690000D03*
D16*
X154940000Y-81490000D03*
%TD*%
D15*
%TO.C,J2*%
X103505000Y-127850000D03*
D16*
X103505000Y-120650000D03*
%TD*%
D12*
%TO.C,C4*%
X146685000Y-113030000D03*
X144145000Y-113030000D03*
%TD*%
%TO.C,C7*%
X120015000Y-113030000D03*
X117475000Y-113030000D03*
%TD*%
%TO.C,C10*%
X100330000Y-95250000D03*
X102870000Y-95250000D03*
%TD*%
D10*
X168656000Y-109474000D03*
X163576000Y-102362000D03*
X162560000Y-102362000D03*
X164592000Y-101346000D03*
X169672000Y-109474000D03*
X169672000Y-111506000D03*
X168656000Y-111506000D03*
X165608000Y-103378000D03*
X162560000Y-101346000D03*
X164592000Y-102362000D03*
X164592000Y-103378000D03*
X163576000Y-100330000D03*
X163576000Y-101346000D03*
X164592000Y-100330000D03*
X162560000Y-103378000D03*
X169672000Y-110490000D03*
X168656000Y-110490000D03*
X163576000Y-103378000D03*
X162560000Y-100330000D03*
M02*
