M48
; DRILL file {KiCad 7.0.5} date Sat Aug 26 19:15:43 2023
; FORMAT={-:-/ absolute / inch / decimal}
; #@! TF.CreationDate,2023-08-26T19:15:43+09:00
; #@! TF.GenerationSoftware,Kicad,Pcbnew,7.0.5
; #@! TF.FileFunction,Plated,1,2,PTH
FMAT,2
INCH
; #@! TA.AperFunction,Plated,PTH,ViaDrill
T1C0.0157
; #@! TA.AperFunction,Plated,PTH,ComponentDrill
T2C0.0197
; #@! TA.AperFunction,Plated,PTH,ComponentDrill
T3C0.0354
; #@! TA.AperFunction,Plated,PTH,ComponentDrill
T4C0.0394
; #@! TA.AperFunction,Plated,PTH,ComponentDrill
T5C0.0472
; #@! TA.AperFunction,Plated,PTH,ComponentDrill
T6C0.1260
; #@! TA.AperFunction,Plated,PTH,ComponentDrill
T7C0.1772
%
G90
G05
T1
X6.4Y-3.95
X6.4Y-3.99
X6.4Y-4.03
X6.4Y-4.07
X6.44Y-3.95
X6.44Y-3.99
X6.44Y-4.03
X6.44Y-4.07
X6.48Y-3.95
X6.48Y-3.99
X6.48Y-4.03
X6.48Y-4.07
X6.52Y-4.07
X6.64Y-4.31
X6.64Y-4.35
X6.64Y-4.39
X6.68Y-4.31
X6.68Y-4.35
X6.68Y-4.39
T2
X3.2055Y-3.025
X3.2055Y-5.175
X3.2332Y-2.9582
X3.2332Y-3.0918
X3.2332Y-5.1082
X3.2332Y-5.2418
X3.3Y-2.9305
X3.3Y-3.1195
X3.3Y-5.0805
X3.3Y-5.2695
X3.3668Y-2.9582
X3.3668Y-3.0918
X3.3668Y-5.1082
X3.3668Y-5.2418
X3.3945Y-3.025
X3.3945Y-5.175
X6.5055Y-3.025
X6.5055Y-5.175
X6.5332Y-2.9582
X6.5332Y-3.0918
X6.5332Y-5.1082
X6.5332Y-5.2418
X6.6Y-2.9305
X6.6Y-3.1195
X6.6Y-5.0805
X6.6Y-5.2695
X6.6668Y-2.9582
X6.6668Y-3.0918
X6.6668Y-5.1082
X6.6668Y-5.2418
X6.6945Y-3.025
X6.6945Y-5.175
T3
X3.95Y-3.75
X3.95Y-4.45
X4.05Y-3.75
X4.05Y-4.45
X4.275Y-3.75
X4.275Y-4.45
X4.375Y-3.75
X4.375Y-4.45
X4.625Y-3.75
X4.625Y-4.45
X4.725Y-3.75
X4.725Y-4.45
X4.95Y-3.75
X4.95Y-4.45
X5.05Y-3.75
X5.05Y-4.45
X5.325Y-3.75
X5.325Y-4.45
X5.425Y-3.75
X5.425Y-4.45
X5.65Y-3.75
X5.675Y-4.45
X5.75Y-3.75
X5.775Y-4.45
X6.0Y-4.45
X6.025Y-3.75
X6.1Y-4.45
X6.125Y-3.75
X6.25Y-4.425
X6.25Y-4.525
X6.375Y-3.75
X6.475Y-3.75
T4
X3.5108Y-3.8787
X3.5108Y-3.9772
X3.5108Y-4.2508
X3.5108Y-4.3492
X3.5108Y-4.6228
X3.5108Y-4.7213
T5
X5.45Y-3.2338
X5.45Y-3.4307
T6
X3.3Y-3.025
X3.3Y-5.175
X6.6Y-3.025
X6.6Y-5.175
T7
X4.075Y-4.75
X4.075Y-5.0335
X4.575Y-4.75
X4.575Y-5.0335
X5.075Y-4.75
X5.075Y-5.0335
X5.575Y-4.75
X5.575Y-5.0335
X6.075Y-4.75
X6.075Y-5.0335
X6.1Y-3.2083
X6.1Y-3.4917
T0
M30
