%TF.GenerationSoftware,KiCad,Pcbnew,7.0.5*%
%TF.CreationDate,2023-08-26T19:15:35+09:00*%
%TF.ProjectId,18to12_DCDC,3138746f-3132-45f4-9443-44432e6b6963,rev?*%
%TF.SameCoordinates,Original*%
%TF.FileFunction,Legend,Bot*%
%TF.FilePolarity,Positive*%
%FSLAX46Y46*%
G04 Gerber Fmt 4.6, Leading zero omitted, Abs format (unit mm)*
G04 Created by KiCad (PCBNEW 7.0.5) date 2023-08-26 19:15:35*
%MOMM*%
%LPD*%
G01*
G04 APERTURE LIST*
%ADD10C,0.300000*%
G04 APERTURE END LIST*
D10*
X107903489Y-79937828D02*
X107903489Y-78437828D01*
X107903489Y-78437828D02*
X107546346Y-78437828D01*
X107546346Y-78437828D02*
X107332060Y-78509257D01*
X107332060Y-78509257D02*
X107189203Y-78652114D01*
X107189203Y-78652114D02*
X107117774Y-78794971D01*
X107117774Y-78794971D02*
X107046346Y-79080685D01*
X107046346Y-79080685D02*
X107046346Y-79294971D01*
X107046346Y-79294971D02*
X107117774Y-79580685D01*
X107117774Y-79580685D02*
X107189203Y-79723542D01*
X107189203Y-79723542D02*
X107332060Y-79866400D01*
X107332060Y-79866400D02*
X107546346Y-79937828D01*
X107546346Y-79937828D02*
X107903489Y-79937828D01*
X105546346Y-79794971D02*
X105617774Y-79866400D01*
X105617774Y-79866400D02*
X105832060Y-79937828D01*
X105832060Y-79937828D02*
X105974917Y-79937828D01*
X105974917Y-79937828D02*
X106189203Y-79866400D01*
X106189203Y-79866400D02*
X106332060Y-79723542D01*
X106332060Y-79723542D02*
X106403489Y-79580685D01*
X106403489Y-79580685D02*
X106474917Y-79294971D01*
X106474917Y-79294971D02*
X106474917Y-79080685D01*
X106474917Y-79080685D02*
X106403489Y-78794971D01*
X106403489Y-78794971D02*
X106332060Y-78652114D01*
X106332060Y-78652114D02*
X106189203Y-78509257D01*
X106189203Y-78509257D02*
X105974917Y-78437828D01*
X105974917Y-78437828D02*
X105832060Y-78437828D01*
X105832060Y-78437828D02*
X105617774Y-78509257D01*
X105617774Y-78509257D02*
X105546346Y-78580685D01*
X104903489Y-79937828D02*
X104903489Y-78437828D01*
X104903489Y-78437828D02*
X104546346Y-78437828D01*
X104546346Y-78437828D02*
X104332060Y-78509257D01*
X104332060Y-78509257D02*
X104189203Y-78652114D01*
X104189203Y-78652114D02*
X104117774Y-78794971D01*
X104117774Y-78794971D02*
X104046346Y-79080685D01*
X104046346Y-79080685D02*
X104046346Y-79294971D01*
X104046346Y-79294971D02*
X104117774Y-79580685D01*
X104117774Y-79580685D02*
X104189203Y-79723542D01*
X104189203Y-79723542D02*
X104332060Y-79866400D01*
X104332060Y-79866400D02*
X104546346Y-79937828D01*
X104546346Y-79937828D02*
X104903489Y-79937828D01*
X102546346Y-79794971D02*
X102617774Y-79866400D01*
X102617774Y-79866400D02*
X102832060Y-79937828D01*
X102832060Y-79937828D02*
X102974917Y-79937828D01*
X102974917Y-79937828D02*
X103189203Y-79866400D01*
X103189203Y-79866400D02*
X103332060Y-79723542D01*
X103332060Y-79723542D02*
X103403489Y-79580685D01*
X103403489Y-79580685D02*
X103474917Y-79294971D01*
X103474917Y-79294971D02*
X103474917Y-79080685D01*
X103474917Y-79080685D02*
X103403489Y-78794971D01*
X103403489Y-78794971D02*
X103332060Y-78652114D01*
X103332060Y-78652114D02*
X103189203Y-78509257D01*
X103189203Y-78509257D02*
X102974917Y-78437828D01*
X102974917Y-78437828D02*
X102832060Y-78437828D01*
X102832060Y-78437828D02*
X102617774Y-78509257D01*
X102617774Y-78509257D02*
X102546346Y-78580685D01*
X102260632Y-80080685D02*
X101117774Y-80080685D01*
X99974917Y-79937828D02*
X100832060Y-79937828D01*
X100403489Y-79937828D02*
X100403489Y-78437828D01*
X100403489Y-78437828D02*
X100546346Y-78652114D01*
X100546346Y-78652114D02*
X100689203Y-78794971D01*
X100689203Y-78794971D02*
X100832060Y-78866400D01*
X99117775Y-79080685D02*
X99260632Y-79009257D01*
X99260632Y-79009257D02*
X99332061Y-78937828D01*
X99332061Y-78937828D02*
X99403489Y-78794971D01*
X99403489Y-78794971D02*
X99403489Y-78723542D01*
X99403489Y-78723542D02*
X99332061Y-78580685D01*
X99332061Y-78580685D02*
X99260632Y-78509257D01*
X99260632Y-78509257D02*
X99117775Y-78437828D01*
X99117775Y-78437828D02*
X98832061Y-78437828D01*
X98832061Y-78437828D02*
X98689204Y-78509257D01*
X98689204Y-78509257D02*
X98617775Y-78580685D01*
X98617775Y-78580685D02*
X98546346Y-78723542D01*
X98546346Y-78723542D02*
X98546346Y-78794971D01*
X98546346Y-78794971D02*
X98617775Y-78937828D01*
X98617775Y-78937828D02*
X98689204Y-79009257D01*
X98689204Y-79009257D02*
X98832061Y-79080685D01*
X98832061Y-79080685D02*
X99117775Y-79080685D01*
X99117775Y-79080685D02*
X99260632Y-79152114D01*
X99260632Y-79152114D02*
X99332061Y-79223542D01*
X99332061Y-79223542D02*
X99403489Y-79366400D01*
X99403489Y-79366400D02*
X99403489Y-79652114D01*
X99403489Y-79652114D02*
X99332061Y-79794971D01*
X99332061Y-79794971D02*
X99260632Y-79866400D01*
X99260632Y-79866400D02*
X99117775Y-79937828D01*
X99117775Y-79937828D02*
X98832061Y-79937828D01*
X98832061Y-79937828D02*
X98689204Y-79866400D01*
X98689204Y-79866400D02*
X98617775Y-79794971D01*
X98617775Y-79794971D02*
X98546346Y-79652114D01*
X98546346Y-79652114D02*
X98546346Y-79366400D01*
X98546346Y-79366400D02*
X98617775Y-79223542D01*
X98617775Y-79223542D02*
X98689204Y-79152114D01*
X98689204Y-79152114D02*
X98832061Y-79080685D01*
X98117775Y-78937828D02*
X97546347Y-78937828D01*
X97903490Y-78437828D02*
X97903490Y-79723542D01*
X97903490Y-79723542D02*
X97832061Y-79866400D01*
X97832061Y-79866400D02*
X97689204Y-79937828D01*
X97689204Y-79937828D02*
X97546347Y-79937828D01*
X96832061Y-79937828D02*
X96974918Y-79866400D01*
X96974918Y-79866400D02*
X97046347Y-79794971D01*
X97046347Y-79794971D02*
X97117775Y-79652114D01*
X97117775Y-79652114D02*
X97117775Y-79223542D01*
X97117775Y-79223542D02*
X97046347Y-79080685D01*
X97046347Y-79080685D02*
X96974918Y-79009257D01*
X96974918Y-79009257D02*
X96832061Y-78937828D01*
X96832061Y-78937828D02*
X96617775Y-78937828D01*
X96617775Y-78937828D02*
X96474918Y-79009257D01*
X96474918Y-79009257D02*
X96403490Y-79080685D01*
X96403490Y-79080685D02*
X96332061Y-79223542D01*
X96332061Y-79223542D02*
X96332061Y-79652114D01*
X96332061Y-79652114D02*
X96403490Y-79794971D01*
X96403490Y-79794971D02*
X96474918Y-79866400D01*
X96474918Y-79866400D02*
X96617775Y-79937828D01*
X96617775Y-79937828D02*
X96832061Y-79937828D01*
X94903489Y-79937828D02*
X95760632Y-79937828D01*
X95332061Y-79937828D02*
X95332061Y-78437828D01*
X95332061Y-78437828D02*
X95474918Y-78652114D01*
X95474918Y-78652114D02*
X95617775Y-78794971D01*
X95617775Y-78794971D02*
X95760632Y-78866400D01*
X94332061Y-78580685D02*
X94260633Y-78509257D01*
X94260633Y-78509257D02*
X94117776Y-78437828D01*
X94117776Y-78437828D02*
X93760633Y-78437828D01*
X93760633Y-78437828D02*
X93617776Y-78509257D01*
X93617776Y-78509257D02*
X93546347Y-78580685D01*
X93546347Y-78580685D02*
X93474918Y-78723542D01*
X93474918Y-78723542D02*
X93474918Y-78866400D01*
X93474918Y-78866400D02*
X93546347Y-79080685D01*
X93546347Y-79080685D02*
X94403490Y-79937828D01*
X94403490Y-79937828D02*
X93474918Y-79937828D01*
X107974917Y-81120685D02*
X107903489Y-81049257D01*
X107903489Y-81049257D02*
X107760632Y-80977828D01*
X107760632Y-80977828D02*
X107403489Y-80977828D01*
X107403489Y-80977828D02*
X107260632Y-81049257D01*
X107260632Y-81049257D02*
X107189203Y-81120685D01*
X107189203Y-81120685D02*
X107117774Y-81263542D01*
X107117774Y-81263542D02*
X107117774Y-81406400D01*
X107117774Y-81406400D02*
X107189203Y-81620685D01*
X107189203Y-81620685D02*
X108046346Y-82477828D01*
X108046346Y-82477828D02*
X107117774Y-82477828D01*
X106189203Y-80977828D02*
X106046346Y-80977828D01*
X106046346Y-80977828D02*
X105903489Y-81049257D01*
X105903489Y-81049257D02*
X105832061Y-81120685D01*
X105832061Y-81120685D02*
X105760632Y-81263542D01*
X105760632Y-81263542D02*
X105689203Y-81549257D01*
X105689203Y-81549257D02*
X105689203Y-81906400D01*
X105689203Y-81906400D02*
X105760632Y-82192114D01*
X105760632Y-82192114D02*
X105832061Y-82334971D01*
X105832061Y-82334971D02*
X105903489Y-82406400D01*
X105903489Y-82406400D02*
X106046346Y-82477828D01*
X106046346Y-82477828D02*
X106189203Y-82477828D01*
X106189203Y-82477828D02*
X106332061Y-82406400D01*
X106332061Y-82406400D02*
X106403489Y-82334971D01*
X106403489Y-82334971D02*
X106474918Y-82192114D01*
X106474918Y-82192114D02*
X106546346Y-81906400D01*
X106546346Y-81906400D02*
X106546346Y-81549257D01*
X106546346Y-81549257D02*
X106474918Y-81263542D01*
X106474918Y-81263542D02*
X106403489Y-81120685D01*
X106403489Y-81120685D02*
X106332061Y-81049257D01*
X106332061Y-81049257D02*
X106189203Y-80977828D01*
X105117775Y-81120685D02*
X105046347Y-81049257D01*
X105046347Y-81049257D02*
X104903490Y-80977828D01*
X104903490Y-80977828D02*
X104546347Y-80977828D01*
X104546347Y-80977828D02*
X104403490Y-81049257D01*
X104403490Y-81049257D02*
X104332061Y-81120685D01*
X104332061Y-81120685D02*
X104260632Y-81263542D01*
X104260632Y-81263542D02*
X104260632Y-81406400D01*
X104260632Y-81406400D02*
X104332061Y-81620685D01*
X104332061Y-81620685D02*
X105189204Y-82477828D01*
X105189204Y-82477828D02*
X104260632Y-82477828D01*
X103760633Y-80977828D02*
X102832061Y-80977828D01*
X102832061Y-80977828D02*
X103332061Y-81549257D01*
X103332061Y-81549257D02*
X103117776Y-81549257D01*
X103117776Y-81549257D02*
X102974919Y-81620685D01*
X102974919Y-81620685D02*
X102903490Y-81692114D01*
X102903490Y-81692114D02*
X102832061Y-81834971D01*
X102832061Y-81834971D02*
X102832061Y-82192114D01*
X102832061Y-82192114D02*
X102903490Y-82334971D01*
X102903490Y-82334971D02*
X102974919Y-82406400D01*
X102974919Y-82406400D02*
X103117776Y-82477828D01*
X103117776Y-82477828D02*
X103546347Y-82477828D01*
X103546347Y-82477828D02*
X103689204Y-82406400D01*
X103689204Y-82406400D02*
X103760633Y-82334971D01*
X101046348Y-82477828D02*
X101046348Y-80977828D01*
X99689205Y-82406400D02*
X99832062Y-82477828D01*
X99832062Y-82477828D02*
X100117776Y-82477828D01*
X100117776Y-82477828D02*
X100260633Y-82406400D01*
X100260633Y-82406400D02*
X100332062Y-82334971D01*
X100332062Y-82334971D02*
X100403490Y-82192114D01*
X100403490Y-82192114D02*
X100403490Y-81763542D01*
X100403490Y-81763542D02*
X100332062Y-81620685D01*
X100332062Y-81620685D02*
X100260633Y-81549257D01*
X100260633Y-81549257D02*
X100117776Y-81477828D01*
X100117776Y-81477828D02*
X99832062Y-81477828D01*
X99832062Y-81477828D02*
X99689205Y-81549257D01*
X99046348Y-82477828D02*
X99046348Y-80977828D01*
X98403491Y-82477828D02*
X98403491Y-81692114D01*
X98403491Y-81692114D02*
X98474919Y-81549257D01*
X98474919Y-81549257D02*
X98617776Y-81477828D01*
X98617776Y-81477828D02*
X98832062Y-81477828D01*
X98832062Y-81477828D02*
X98974919Y-81549257D01*
X98974919Y-81549257D02*
X99046348Y-81620685D01*
X97689205Y-82477828D02*
X97689205Y-81477828D01*
X97689205Y-80977828D02*
X97760633Y-81049257D01*
X97760633Y-81049257D02*
X97689205Y-81120685D01*
X97689205Y-81120685D02*
X97617776Y-81049257D01*
X97617776Y-81049257D02*
X97689205Y-80977828D01*
X97689205Y-80977828D02*
X97689205Y-81120685D01*
X96974919Y-81477828D02*
X96974919Y-82477828D01*
X96974919Y-81620685D02*
X96903490Y-81549257D01*
X96903490Y-81549257D02*
X96760633Y-81477828D01*
X96760633Y-81477828D02*
X96546347Y-81477828D01*
X96546347Y-81477828D02*
X96403490Y-81549257D01*
X96403490Y-81549257D02*
X96332062Y-81692114D01*
X96332062Y-81692114D02*
X96332062Y-82477828D01*
X95403490Y-82477828D02*
X95546347Y-82406400D01*
X95546347Y-82406400D02*
X95617776Y-82334971D01*
X95617776Y-82334971D02*
X95689204Y-82192114D01*
X95689204Y-82192114D02*
X95689204Y-81763542D01*
X95689204Y-81763542D02*
X95617776Y-81620685D01*
X95617776Y-81620685D02*
X95546347Y-81549257D01*
X95546347Y-81549257D02*
X95403490Y-81477828D01*
X95403490Y-81477828D02*
X95189204Y-81477828D01*
X95189204Y-81477828D02*
X95046347Y-81549257D01*
X95046347Y-81549257D02*
X94974919Y-81620685D01*
X94974919Y-81620685D02*
X94903490Y-81763542D01*
X94903490Y-81763542D02*
X94903490Y-82192114D01*
X94903490Y-82192114D02*
X94974919Y-82334971D01*
X94974919Y-82334971D02*
X95046347Y-82406400D01*
X95046347Y-82406400D02*
X95189204Y-82477828D01*
X95189204Y-82477828D02*
X95403490Y-82477828D01*
X94332061Y-82406400D02*
X94189204Y-82477828D01*
X94189204Y-82477828D02*
X93903490Y-82477828D01*
X93903490Y-82477828D02*
X93760633Y-82406400D01*
X93760633Y-82406400D02*
X93689204Y-82263542D01*
X93689204Y-82263542D02*
X93689204Y-82192114D01*
X93689204Y-82192114D02*
X93760633Y-82049257D01*
X93760633Y-82049257D02*
X93903490Y-81977828D01*
X93903490Y-81977828D02*
X94117776Y-81977828D01*
X94117776Y-81977828D02*
X94260633Y-81906400D01*
X94260633Y-81906400D02*
X94332061Y-81763542D01*
X94332061Y-81763542D02*
X94332061Y-81692114D01*
X94332061Y-81692114D02*
X94260633Y-81549257D01*
X94260633Y-81549257D02*
X94117776Y-81477828D01*
X94117776Y-81477828D02*
X93903490Y-81477828D01*
X93903490Y-81477828D02*
X93760633Y-81549257D01*
X92474918Y-82406400D02*
X92617775Y-82477828D01*
X92617775Y-82477828D02*
X92903490Y-82477828D01*
X92903490Y-82477828D02*
X93046347Y-82406400D01*
X93046347Y-82406400D02*
X93117775Y-82263542D01*
X93117775Y-82263542D02*
X93117775Y-81692114D01*
X93117775Y-81692114D02*
X93046347Y-81549257D01*
X93046347Y-81549257D02*
X92903490Y-81477828D01*
X92903490Y-81477828D02*
X92617775Y-81477828D01*
X92617775Y-81477828D02*
X92474918Y-81549257D01*
X92474918Y-81549257D02*
X92403490Y-81692114D01*
X92403490Y-81692114D02*
X92403490Y-81834971D01*
X92403490Y-81834971D02*
X93117775Y-81977828D01*
X91760633Y-82477828D02*
X91760633Y-80977828D01*
X91617776Y-81906400D02*
X91189204Y-82477828D01*
X91189204Y-81477828D02*
X91760633Y-82049257D01*
X90546347Y-82477828D02*
X90546347Y-81477828D01*
X90546347Y-80977828D02*
X90617775Y-81049257D01*
X90617775Y-81049257D02*
X90546347Y-81120685D01*
X90546347Y-81120685D02*
X90474918Y-81049257D01*
X90474918Y-81049257D02*
X90546347Y-80977828D01*
X90546347Y-80977828D02*
X90546347Y-81120685D01*
X89832061Y-81906400D02*
X88689204Y-81906400D01*
X87474918Y-81692114D02*
X87260632Y-81763542D01*
X87260632Y-81763542D02*
X87189203Y-81834971D01*
X87189203Y-81834971D02*
X87117775Y-81977828D01*
X87117775Y-81977828D02*
X87117775Y-82192114D01*
X87117775Y-82192114D02*
X87189203Y-82334971D01*
X87189203Y-82334971D02*
X87260632Y-82406400D01*
X87260632Y-82406400D02*
X87403489Y-82477828D01*
X87403489Y-82477828D02*
X87974918Y-82477828D01*
X87974918Y-82477828D02*
X87974918Y-80977828D01*
X87974918Y-80977828D02*
X87474918Y-80977828D01*
X87474918Y-80977828D02*
X87332061Y-81049257D01*
X87332061Y-81049257D02*
X87260632Y-81120685D01*
X87260632Y-81120685D02*
X87189203Y-81263542D01*
X87189203Y-81263542D02*
X87189203Y-81406400D01*
X87189203Y-81406400D02*
X87260632Y-81549257D01*
X87260632Y-81549257D02*
X87332061Y-81620685D01*
X87332061Y-81620685D02*
X87474918Y-81692114D01*
X87474918Y-81692114D02*
X87974918Y-81692114D01*
M02*
