%TF.GenerationSoftware,KiCad,Pcbnew,7.0.5*%
%TF.CreationDate,2023-08-26T19:15:34+09:00*%
%TF.ProjectId,18to12_DCDC,3138746f-3132-45f4-9443-44432e6b6963,rev?*%
%TF.SameCoordinates,Original*%
%TF.FileFunction,Copper,L1,Top*%
%TF.FilePolarity,Positive*%
%FSLAX46Y46*%
G04 Gerber Fmt 4.6, Leading zero omitted, Abs format (unit mm)*
G04 Created by KiCad (PCBNEW 7.0.5) date 2023-08-26 19:15:34*
%MOMM*%
%LPD*%
G01*
G04 APERTURE LIST*
G04 Aperture macros list*
%AMRoundRect*
0 Rectangle with rounded corners*
0 $1 Rounding radius*
0 $2 $3 $4 $5 $6 $7 $8 $9 X,Y pos of 4 corners*
0 Add a 4 corners polygon primitive as box body*
4,1,4,$2,$3,$4,$5,$6,$7,$8,$9,$2,$3,0*
0 Add four circle primitives for the rounded corners*
1,1,$1+$1,$2,$3*
1,1,$1+$1,$4,$5*
1,1,$1+$1,$6,$7*
1,1,$1+$1,$8,$9*
0 Add four rect primitives between the rounded corners*
20,1,$1+$1,$2,$3,$4,$5,0*
20,1,$1+$1,$4,$5,$6,$7,0*
20,1,$1+$1,$6,$7,$8,$9,0*
20,1,$1+$1,$8,$9,$2,$3,0*%
G04 Aperture macros list end*
%TA.AperFunction,SMDPad,CuDef*%
%ADD10RoundRect,0.218750X0.218750X0.256250X-0.218750X0.256250X-0.218750X-0.256250X0.218750X-0.256250X0*%
%TD*%
%TA.AperFunction,ComponentPad*%
%ADD11C,0.800000*%
%TD*%
%TA.AperFunction,ComponentPad*%
%ADD12C,6.400000*%
%TD*%
%TA.AperFunction,SMDPad,CuDef*%
%ADD13RoundRect,0.200000X0.200000X0.275000X-0.200000X0.275000X-0.200000X-0.275000X0.200000X-0.275000X0*%
%TD*%
%TA.AperFunction,ComponentPad*%
%ADD14C,2.000000*%
%TD*%
%TA.AperFunction,SMDPad,CuDef*%
%ADD15RoundRect,0.250000X-0.350000X0.850000X-0.350000X-0.850000X0.350000X-0.850000X0.350000X0.850000X0*%
%TD*%
%TA.AperFunction,SMDPad,CuDef*%
%ADD16RoundRect,0.250000X-1.125000X1.275000X-1.125000X-1.275000X1.125000X-1.275000X1.125000X1.275000X0*%
%TD*%
%TA.AperFunction,SMDPad,CuDef*%
%ADD17RoundRect,0.249997X-2.650003X2.950003X-2.650003X-2.950003X2.650003X-2.950003X2.650003X2.950003X0*%
%TD*%
%TA.AperFunction,ComponentPad*%
%ADD18RoundRect,0.250000X-0.750000X0.600000X-0.750000X-0.600000X0.750000X-0.600000X0.750000X0.600000X0*%
%TD*%
%TA.AperFunction,ComponentPad*%
%ADD19O,2.000000X1.700000*%
%TD*%
%TA.AperFunction,ComponentPad*%
%ADD20C,6.000000*%
%TD*%
%TA.AperFunction,ComponentPad*%
%ADD21RoundRect,1.500000X1.500000X-1.500000X1.500000X1.500000X-1.500000X1.500000X-1.500000X-1.500000X0*%
%TD*%
%TA.AperFunction,ComponentPad*%
%ADD22R,2.400000X2.400000*%
%TD*%
%TA.AperFunction,ComponentPad*%
%ADD23C,2.400000*%
%TD*%
%TA.AperFunction,ViaPad*%
%ADD24C,0.800000*%
%TD*%
%TA.AperFunction,Conductor*%
%ADD25C,1.000000*%
%TD*%
%TA.AperFunction,Conductor*%
%ADD26C,0.250000*%
%TD*%
%TA.AperFunction,Conductor*%
%ADD27C,5.000000*%
%TD*%
%TA.AperFunction,Conductor*%
%ADD28C,2.000000*%
%TD*%
%TA.AperFunction,Conductor*%
%ADD29C,1.500000*%
%TD*%
G04 APERTURE END LIST*
D10*
%TO.P,D4,1,K*%
%TO.N,+18*%
X138735000Y-97790000D03*
%TO.P,D4,2,A*%
%TO.N,Net-(D4-A)*%
X137160000Y-97790000D03*
%TD*%
D11*
%TO.P,H2,1*%
%TO.N,N/C*%
X81420000Y-131445000D03*
X82122944Y-129747944D03*
X82122944Y-133142056D03*
X83820000Y-129045000D03*
D12*
X83820000Y-131445000D03*
D11*
X83820000Y-133845000D03*
X85517056Y-129747944D03*
X85517056Y-133142056D03*
X86220000Y-131445000D03*
%TD*%
D13*
%TO.P,R2,1*%
%TO.N,Net-(D2-A)*%
X153072500Y-97790000D03*
%TO.P,R2,2*%
%TO.N,Net-(J9-Pin_2)*%
X151422500Y-97790000D03*
%TD*%
%TO.P,R6,1*%
%TO.N,Net-(D6-A)*%
X117220000Y-97790000D03*
%TO.P,R6,2*%
%TO.N,Net-(J5-Pin_2)*%
X115570000Y-97790000D03*
%TD*%
D14*
%TO.P,C6,1*%
%TO.N,+18*%
X128270000Y-113030000D03*
%TO.P,C6,2*%
%TO.N,GND*%
X125730000Y-113030000D03*
%TD*%
D10*
%TO.P,D1,1,K*%
%TO.N,+18*%
X165850000Y-97790000D03*
%TO.P,D1,2,A*%
%TO.N,Net-(D1-A)*%
X164275000Y-97790000D03*
%TD*%
D14*
%TO.P,C14,1*%
%TO.N,GND*%
X135255000Y-95250000D03*
%TO.P,C14,2*%
%TO.N,Net-(J7-Pin_2)*%
X137795000Y-95250000D03*
%TD*%
%TO.P,C17,1*%
%TO.N,GND*%
X161925000Y-95250000D03*
%TO.P,C17,2*%
%TO.N,Net-(J8-Pin_2)*%
X164465000Y-95250000D03*
%TD*%
D11*
%TO.P,H4,1*%
%TO.N,N/C*%
X165240000Y-76835000D03*
X165942944Y-75137944D03*
X165942944Y-78532056D03*
X167640000Y-74435000D03*
D12*
X167640000Y-76835000D03*
D11*
X167640000Y-79235000D03*
X169337056Y-75137944D03*
X169337056Y-78532056D03*
X170040000Y-76835000D03*
%TD*%
D15*
%TO.P,U7,1,IN*%
%TO.N,+18*%
X112510000Y-101600000D03*
D16*
%TO.P,U7,2,GND*%
%TO.N,GND*%
X111755000Y-106225000D03*
X108705000Y-106225000D03*
D17*
X110230000Y-107900000D03*
D16*
X111755000Y-109575000D03*
X108705000Y-109575000D03*
D15*
%TO.P,U7,3,OUT*%
%TO.N,Net-(J3-Pin_2)*%
X107950000Y-101600000D03*
%TD*%
%TO.P,U8,1,IN*%
%TO.N,+18*%
X103505000Y-101420000D03*
D16*
%TO.P,U8,2,GND*%
%TO.N,GND*%
X102750000Y-106045000D03*
X99700000Y-106045000D03*
D17*
X101225000Y-107720000D03*
D16*
X102750000Y-109395000D03*
X99700000Y-109395000D03*
D15*
%TO.P,U8,3,OUT*%
%TO.N,Net-(J2-Pin_2)*%
X98945000Y-101420000D03*
%TD*%
D10*
%TO.P,D7,1,K*%
%TO.N,+18*%
X112775000Y-97790000D03*
%TO.P,D7,2,A*%
%TO.N,Net-(D7-A)*%
X111200000Y-97790000D03*
%TD*%
D18*
%TO.P,J7,1,Pin_1*%
%TO.N,GND*%
X89175000Y-98520000D03*
D19*
%TO.P,J7,2,Pin_2*%
%TO.N,Net-(J7-Pin_2)*%
X89175000Y-101020000D03*
%TD*%
D13*
%TO.P,R5,1*%
%TO.N,Net-(D5-A)*%
X126110000Y-97790000D03*
%TO.P,R5,2*%
%TO.N,Net-(J4-Pin_2)*%
X124460000Y-97790000D03*
%TD*%
D14*
%TO.P,C13,1*%
%TO.N,GND*%
X143510000Y-95250000D03*
%TO.P,C13,2*%
%TO.N,Net-(J6-Pin_2)*%
X146050000Y-95250000D03*
%TD*%
D10*
%TO.P,D5,1,K*%
%TO.N,+18*%
X130175000Y-97790000D03*
%TO.P,D5,2,A*%
%TO.N,Net-(D5-A)*%
X128600000Y-97790000D03*
%TD*%
D20*
%TO.P,J6,1,Pin_1*%
%TO.N,GND*%
X154305000Y-127850000D03*
D21*
%TO.P,J6,2,Pin_2*%
%TO.N,Net-(J6-Pin_2)*%
X154305000Y-120650000D03*
%TD*%
D20*
%TO.P,J4,1,Pin_1*%
%TO.N,GND*%
X128905000Y-127850000D03*
D21*
%TO.P,J4,2,Pin_2*%
%TO.N,Net-(J4-Pin_2)*%
X128905000Y-120650000D03*
%TD*%
D14*
%TO.P,C3,1*%
%TO.N,GND*%
X158750000Y-114935000D03*
%TO.P,C3,2*%
%TO.N,+18*%
X158750000Y-112395000D03*
%TD*%
D18*
%TO.P,J8,1,Pin_1*%
%TO.N,GND*%
X89175000Y-107970000D03*
D19*
%TO.P,J8,2,Pin_2*%
%TO.N,Net-(J8-Pin_2)*%
X89175000Y-110470000D03*
%TD*%
D18*
%TO.P,J9,1,Pin_1*%
%TO.N,GND*%
X89175000Y-117420000D03*
D19*
%TO.P,J9,2,Pin_2*%
%TO.N,Net-(J9-Pin_2)*%
X89175000Y-119920000D03*
%TD*%
D10*
%TO.P,D6,1,K*%
%TO.N,+18*%
X121285000Y-97790000D03*
%TO.P,D6,2,A*%
%TO.N,Net-(D6-A)*%
X119710000Y-97790000D03*
%TD*%
D11*
%TO.P,H3,1*%
%TO.N,N/C*%
X165240000Y-131445000D03*
X165942944Y-129747944D03*
X165942944Y-133142056D03*
X167640000Y-129045000D03*
D12*
X167640000Y-131445000D03*
D11*
X167640000Y-133845000D03*
X169337056Y-129747944D03*
X169337056Y-133142056D03*
X170040000Y-131445000D03*
%TD*%
D15*
%TO.P,U6,1,IN*%
%TO.N,+18*%
X121400000Y-101600000D03*
D16*
%TO.P,U6,2,GND*%
%TO.N,GND*%
X120645000Y-106225000D03*
X117595000Y-106225000D03*
D17*
X119120000Y-107900000D03*
D16*
X120645000Y-109575000D03*
X117595000Y-109575000D03*
D15*
%TO.P,U6,3,OUT*%
%TO.N,Net-(J5-Pin_2)*%
X116840000Y-101600000D03*
%TD*%
D13*
%TO.P,R8,1*%
%TO.N,Net-(D8-A)*%
X99695000Y-97790000D03*
%TO.P,R8,2*%
%TO.N,Net-(J2-Pin_2)*%
X98045000Y-97790000D03*
%TD*%
D22*
%TO.P,C1,1*%
%TO.N,+18*%
X138430000Y-82139785D03*
D23*
%TO.P,C1,2*%
%TO.N,GND*%
X138430000Y-87139785D03*
%TD*%
D13*
%TO.P,R4,1*%
%TO.N,Net-(D4-A)*%
X134517500Y-97790000D03*
%TO.P,R4,2*%
%TO.N,Net-(J7-Pin_2)*%
X132867500Y-97790000D03*
%TD*%
%TO.P,R1,1*%
%TO.N,Net-(D1-A)*%
X161925000Y-97790000D03*
%TO.P,R1,2*%
%TO.N,Net-(J8-Pin_2)*%
X160275000Y-97790000D03*
%TD*%
D14*
%TO.P,C9,1*%
%TO.N,+18*%
X102870000Y-113030000D03*
%TO.P,C9,2*%
%TO.N,GND*%
X100330000Y-113030000D03*
%TD*%
%TO.P,C5,1*%
%TO.N,+18*%
X137795000Y-113030000D03*
%TO.P,C5,2*%
%TO.N,GND*%
X135255000Y-113030000D03*
%TD*%
D15*
%TO.P,U4,1,IN*%
%TO.N,+18*%
X139180000Y-101600000D03*
D16*
%TO.P,U4,2,GND*%
%TO.N,GND*%
X138425000Y-106225000D03*
X135375000Y-106225000D03*
D17*
X136900000Y-107900000D03*
D16*
X138425000Y-109575000D03*
X135375000Y-109575000D03*
D15*
%TO.P,U4,3,OUT*%
%TO.N,Net-(J7-Pin_2)*%
X134620000Y-101600000D03*
%TD*%
D10*
%TO.P,D3,1,K*%
%TO.N,+18*%
X148260000Y-97790000D03*
%TO.P,D3,2,A*%
%TO.N,Net-(D3-A)*%
X146685000Y-97790000D03*
%TD*%
D14*
%TO.P,C18,1*%
%TO.N,GND*%
X153035000Y-95250000D03*
%TO.P,C18,2*%
%TO.N,Net-(J9-Pin_2)*%
X155575000Y-95250000D03*
%TD*%
%TO.P,C15,1*%
%TO.N,GND*%
X125730000Y-95250000D03*
%TO.P,C15,2*%
%TO.N,Net-(J4-Pin_2)*%
X128270000Y-95250000D03*
%TD*%
D10*
%TO.P,D8,1,K*%
%TO.N,+18*%
X103810000Y-97790000D03*
%TO.P,D8,2,A*%
%TO.N,Net-(D8-A)*%
X102235000Y-97790000D03*
%TD*%
D15*
%TO.P,U3,1,IN*%
%TO.N,+18*%
X147955000Y-101600000D03*
D16*
%TO.P,U3,2,GND*%
%TO.N,GND*%
X147200000Y-106225000D03*
X144150000Y-106225000D03*
D17*
X145675000Y-107900000D03*
D16*
X147200000Y-109575000D03*
X144150000Y-109575000D03*
D15*
%TO.P,U3,3,OUT*%
%TO.N,Net-(J6-Pin_2)*%
X143395000Y-101600000D03*
%TD*%
%TO.P,U5,1,IN*%
%TO.N,+18*%
X130290000Y-101600000D03*
D16*
%TO.P,U5,2,GND*%
%TO.N,GND*%
X129535000Y-106225000D03*
X126485000Y-106225000D03*
D17*
X128010000Y-107900000D03*
D16*
X129535000Y-109575000D03*
X126485000Y-109575000D03*
D15*
%TO.P,U5,3,OUT*%
%TO.N,Net-(J4-Pin_2)*%
X125730000Y-101600000D03*
%TD*%
D20*
%TO.P,J5,1,Pin_1*%
%TO.N,GND*%
X141605000Y-127850000D03*
D21*
%TO.P,J5,2,Pin_2*%
%TO.N,Net-(J5-Pin_2)*%
X141605000Y-120650000D03*
%TD*%
D11*
%TO.P,H1,1*%
%TO.N,N/C*%
X81420000Y-76835000D03*
X82122944Y-75137944D03*
X82122944Y-78532056D03*
X83820000Y-74435000D03*
D12*
X83820000Y-76835000D03*
D11*
X83820000Y-79235000D03*
X85517056Y-75137944D03*
X85517056Y-78532056D03*
X86220000Y-76835000D03*
%TD*%
D15*
%TO.P,U1,1,IN*%
%TO.N,+18*%
X165735000Y-101420000D03*
D16*
%TO.P,U1,2,GND*%
%TO.N,GND*%
X164980000Y-106045000D03*
X161930000Y-106045000D03*
D17*
X163455000Y-107720000D03*
D16*
X164980000Y-109395000D03*
X161930000Y-109395000D03*
D15*
%TO.P,U1,3,OUT*%
%TO.N,Net-(J8-Pin_2)*%
X161175000Y-101420000D03*
%TD*%
D20*
%TO.P,J3,1,Pin_1*%
%TO.N,GND*%
X116205000Y-127850000D03*
D21*
%TO.P,J3,2,Pin_2*%
%TO.N,Net-(J3-Pin_2)*%
X116205000Y-120650000D03*
%TD*%
D14*
%TO.P,C2,1*%
%TO.N,+18*%
X154940000Y-113030000D03*
%TO.P,C2,2*%
%TO.N,GND*%
X152400000Y-113030000D03*
%TD*%
D13*
%TO.P,R3,1*%
%TO.N,Net-(D3-A)*%
X143890000Y-97790000D03*
%TO.P,R3,2*%
%TO.N,Net-(J6-Pin_2)*%
X142240000Y-97790000D03*
%TD*%
D14*
%TO.P,C8,1*%
%TO.N,+18*%
X111125000Y-113030000D03*
%TO.P,C8,2*%
%TO.N,GND*%
X108585000Y-113030000D03*
%TD*%
D15*
%TO.P,U2,1,IN*%
%TO.N,+18*%
X156845000Y-101600000D03*
D16*
%TO.P,U2,2,GND*%
%TO.N,GND*%
X156090000Y-106225000D03*
X153040000Y-106225000D03*
D17*
X154565000Y-107900000D03*
D16*
X156090000Y-109575000D03*
X153040000Y-109575000D03*
D15*
%TO.P,U2,3,OUT*%
%TO.N,Net-(J9-Pin_2)*%
X152285000Y-101600000D03*
%TD*%
D14*
%TO.P,C12,1*%
%TO.N,GND*%
X117475000Y-95250000D03*
%TO.P,C12,2*%
%TO.N,Net-(J5-Pin_2)*%
X120015000Y-95250000D03*
%TD*%
%TO.P,C11,1*%
%TO.N,GND*%
X108585000Y-95250000D03*
%TO.P,C11,2*%
%TO.N,Net-(J3-Pin_2)*%
X111125000Y-95250000D03*
%TD*%
D20*
%TO.P,J1,1,Pin_1*%
%TO.N,GND*%
X154940000Y-88690000D03*
D21*
%TO.P,J1,2,Pin_2*%
%TO.N,+18*%
X154940000Y-81490000D03*
%TD*%
D20*
%TO.P,J2,1,Pin_1*%
%TO.N,GND*%
X103505000Y-127850000D03*
D21*
%TO.P,J2,2,Pin_2*%
%TO.N,Net-(J2-Pin_2)*%
X103505000Y-120650000D03*
%TD*%
D14*
%TO.P,C4,1*%
%TO.N,+18*%
X146685000Y-113030000D03*
%TO.P,C4,2*%
%TO.N,GND*%
X144145000Y-113030000D03*
%TD*%
D10*
%TO.P,D2,1,K*%
%TO.N,+18*%
X156997500Y-97790000D03*
%TO.P,D2,2,A*%
%TO.N,Net-(D2-A)*%
X155422500Y-97790000D03*
%TD*%
D14*
%TO.P,C7,1*%
%TO.N,+18*%
X120015000Y-113030000D03*
%TO.P,C7,2*%
%TO.N,GND*%
X117475000Y-113030000D03*
%TD*%
D13*
%TO.P,R7,1*%
%TO.N,Net-(D7-A)*%
X108965000Y-97790000D03*
%TO.P,R7,2*%
%TO.N,Net-(J3-Pin_2)*%
X107315000Y-97790000D03*
%TD*%
D14*
%TO.P,C10,1*%
%TO.N,GND*%
X100330000Y-95250000D03*
%TO.P,C10,2*%
%TO.N,Net-(J2-Pin_2)*%
X102870000Y-95250000D03*
%TD*%
D24*
%TO.N,+18*%
X168656000Y-109474000D03*
X163576000Y-102362000D03*
X162560000Y-102362000D03*
X164592000Y-101346000D03*
X169672000Y-109474000D03*
X169672000Y-111506000D03*
X168656000Y-111506000D03*
X165608000Y-103378000D03*
X162560000Y-101346000D03*
X164592000Y-102362000D03*
X164592000Y-103378000D03*
X163576000Y-100330000D03*
X163576000Y-101346000D03*
X164592000Y-100330000D03*
X162560000Y-103378000D03*
X169672000Y-110490000D03*
X168656000Y-110490000D03*
X163576000Y-103378000D03*
X162560000Y-100330000D03*
%TD*%
D25*
%TO.N,+18*%
X145923000Y-103632000D02*
X147955000Y-101600000D01*
D26*
X112700000Y-101110000D02*
X112390000Y-101420000D01*
D25*
X129540000Y-115570000D02*
X128524000Y-115570000D01*
D26*
X139065000Y-97790000D02*
X139065000Y-101415000D01*
D25*
X139180000Y-101600000D02*
X139446000Y-101600000D01*
X111125000Y-113030000D02*
X111125000Y-114554000D01*
X121920000Y-101600000D02*
X123952000Y-103632000D01*
X128270000Y-114300000D02*
X127000000Y-115570000D01*
X111125000Y-114681000D02*
X110236000Y-115570000D01*
X110478000Y-103632000D02*
X105664000Y-103632000D01*
X123952000Y-103632000D02*
X128258000Y-103632000D01*
X154940000Y-114554000D02*
X153924000Y-115570000D01*
X138176000Y-115316000D02*
X145796000Y-115316000D01*
X128270000Y-115316000D02*
X128524000Y-115570000D01*
X165735000Y-97790000D02*
X165735000Y-101420000D01*
X111125000Y-115443000D02*
X111252000Y-115570000D01*
X112014000Y-115570000D02*
X111252000Y-115570000D01*
X105410000Y-115570000D02*
X102870000Y-113030000D01*
X120015000Y-114554000D02*
X120015000Y-115189000D01*
D26*
X121590000Y-97790000D02*
X121590000Y-101115000D01*
D25*
X169672000Y-108775500D02*
X169672000Y-109918500D01*
X138938000Y-115570000D02*
X138430000Y-115570000D01*
X148844000Y-101600000D02*
X150876000Y-103632000D01*
X119368000Y-103632000D02*
X121400000Y-101600000D01*
X105664000Y-103579000D02*
X103505000Y-101420000D01*
X128524000Y-115570000D02*
X126746000Y-115570000D01*
X137795000Y-114935000D02*
X138176000Y-115316000D01*
X137795000Y-114427000D02*
X138938000Y-115570000D01*
X111125000Y-114554000D02*
X111125000Y-115443000D01*
X168656000Y-104341000D02*
X165735000Y-101420000D01*
X137795000Y-114300000D02*
X137795000Y-114427000D01*
D27*
X164592000Y-101346000D02*
X164592000Y-101600000D01*
D25*
X120142000Y-114554000D02*
X119126000Y-115570000D01*
X147828000Y-115570000D02*
X146685000Y-114427000D01*
X111252000Y-115570000D02*
X110236000Y-115570000D01*
X136894000Y-103886000D02*
X139180000Y-101600000D01*
X137795000Y-114427000D02*
X136652000Y-115570000D01*
X153924000Y-115570000D02*
X147828000Y-115570000D01*
X154940000Y-113030000D02*
X158115000Y-113030000D01*
X111125000Y-114681000D02*
X112014000Y-115570000D01*
D26*
X121590000Y-101115000D02*
X121285000Y-101420000D01*
D25*
X147828000Y-115570000D02*
X138938000Y-115570000D01*
D26*
X103810000Y-101115000D02*
X103505000Y-101420000D01*
D25*
X132842000Y-103886000D02*
X136894000Y-103886000D01*
D26*
X139065000Y-101415000D02*
X139070000Y-101420000D01*
X156845000Y-97790000D02*
X156845000Y-101415000D01*
X130327500Y-97790000D02*
X130327500Y-101267500D01*
D25*
X112510000Y-101600000D02*
X113284000Y-101600000D01*
X158115000Y-113030000D02*
X158750000Y-112395000D01*
X121158000Y-115570000D02*
X120396000Y-115570000D01*
X130556000Y-101600000D02*
X132842000Y-103886000D01*
X121400000Y-101600000D02*
X121920000Y-101600000D01*
X127000000Y-115570000D02*
X126746000Y-115570000D01*
X137795000Y-114300000D02*
X137795000Y-114935000D01*
X145796000Y-115316000D02*
X146685000Y-114427000D01*
X147955000Y-101600000D02*
X148844000Y-101600000D01*
X119126000Y-115570000D02*
X118364000Y-115570000D01*
X118364000Y-115570000D02*
X112014000Y-115570000D01*
X156845000Y-101600000D02*
X156845000Y-101981000D01*
D26*
X112700000Y-97790000D02*
X112700000Y-101110000D01*
D25*
X128270000Y-113030000D02*
X128270000Y-114300000D01*
X126746000Y-115570000D02*
X121158000Y-115570000D01*
X156845000Y-101981000D02*
X158496000Y-103632000D01*
X110236000Y-115570000D02*
X105410000Y-115570000D01*
X141478000Y-103632000D02*
X145923000Y-103632000D01*
X146685000Y-114427000D02*
X146685000Y-113030000D01*
X168656000Y-109474000D02*
X168656000Y-104341000D01*
D26*
X156845000Y-101415000D02*
X156840000Y-101420000D01*
D25*
X130290000Y-101600000D02*
X130556000Y-101600000D01*
X120015000Y-113030000D02*
X120015000Y-114554000D01*
X120015000Y-115189000D02*
X120396000Y-115570000D01*
X138430000Y-115570000D02*
X136652000Y-115570000D01*
X154813000Y-103632000D02*
X156845000Y-101600000D01*
X139446000Y-101600000D02*
X141478000Y-103632000D01*
X154940000Y-113030000D02*
X154940000Y-114554000D01*
X150876000Y-103632000D02*
X154813000Y-103632000D01*
X128270000Y-114300000D02*
X128270000Y-115316000D01*
X128270000Y-114300000D02*
X129540000Y-115570000D01*
X120015000Y-114554000D02*
X120142000Y-114554000D01*
X105664000Y-103632000D02*
X105664000Y-103579000D01*
X162306000Y-103632000D02*
X164592000Y-101346000D01*
X113284000Y-101600000D02*
X115316000Y-103632000D01*
X168910000Y-108013500D02*
X169672000Y-108775500D01*
X158496000Y-103632000D02*
X162306000Y-103632000D01*
X136652000Y-115570000D02*
X129540000Y-115570000D01*
X120142000Y-114554000D02*
X121158000Y-115570000D01*
D26*
X103810000Y-97790000D02*
X103810000Y-101115000D01*
D25*
X138430000Y-115570000D02*
X138176000Y-115316000D01*
X115316000Y-103632000D02*
X119368000Y-103632000D01*
X137795000Y-113030000D02*
X137795000Y-114300000D01*
D26*
X147955000Y-97790000D02*
X147955000Y-101420000D01*
D25*
X120396000Y-115570000D02*
X118364000Y-115570000D01*
X111125000Y-114554000D02*
X111125000Y-114681000D01*
D26*
X130327500Y-101267500D02*
X130175000Y-101420000D01*
D28*
X169164000Y-111379000D02*
X169164000Y-109347000D01*
D25*
X112510000Y-101600000D02*
X110478000Y-103632000D01*
X128258000Y-103632000D02*
X130290000Y-101600000D01*
D27*
%TO.N,GND*%
X138430000Y-88690000D02*
X135255000Y-88690000D01*
D29*
X125730000Y-95250000D02*
X125730000Y-92075000D01*
D28*
X85725000Y-105410000D02*
X85725000Y-107950000D01*
X87630000Y-107950000D02*
X85725000Y-106045000D01*
D27*
X144145000Y-88690000D02*
X140335000Y-88690000D01*
D29*
X108585000Y-113030000D02*
X108585000Y-111760000D01*
X153035000Y-92075000D02*
X153035000Y-90595000D01*
X117475000Y-92075000D02*
X117475000Y-88690000D01*
X117475000Y-109695000D02*
X117595000Y-109575000D01*
D26*
X144145000Y-109580000D02*
X144150000Y-109575000D01*
D27*
X122555000Y-88690000D02*
X120650000Y-88690000D01*
X104140000Y-107720000D02*
X113665000Y-107720000D01*
X163455000Y-111760000D02*
X163455000Y-114935000D01*
X102568781Y-88690000D02*
X94945000Y-96313781D01*
D28*
X85725000Y-107950000D02*
X87630000Y-107950000D01*
D29*
X117475000Y-91865000D02*
X120650000Y-88690000D01*
X120645000Y-109575000D02*
X119660000Y-109575000D01*
X100330000Y-108615000D02*
X100975000Y-107970000D01*
X135255000Y-95250000D02*
X135255000Y-92075000D01*
D28*
X85725000Y-106045000D02*
X85725000Y-105410000D01*
D29*
X108585000Y-111615787D02*
X112480787Y-107720000D01*
X100330000Y-113030000D02*
X100330000Y-111760000D01*
X117475000Y-91865000D02*
X114300000Y-88690000D01*
X139150787Y-107720000D02*
X140970000Y-107720000D01*
D27*
X94945000Y-99060000D02*
X94945000Y-107665000D01*
D28*
X85725000Y-116205000D02*
X86940000Y-117420000D01*
X100975000Y-107970000D02*
X101225000Y-107720000D01*
D27*
X108585000Y-88690000D02*
X105410000Y-88690000D01*
D29*
X154940000Y-88690000D02*
X155365000Y-88690000D01*
D28*
X89175000Y-107970000D02*
X93345000Y-107970000D01*
X85725000Y-99695000D02*
X85725000Y-105410000D01*
D29*
X117475000Y-111760000D02*
X117475000Y-111530000D01*
D27*
X95250000Y-107970000D02*
X97155000Y-107970000D01*
D29*
X135255000Y-113030000D02*
X135255000Y-109695000D01*
X155365000Y-88690000D02*
X161925000Y-95250000D01*
X125730000Y-111760000D02*
X125730000Y-110330000D01*
X152400000Y-113030000D02*
X152400000Y-111760000D01*
D27*
X113665000Y-107720000D02*
X122555000Y-107720000D01*
D29*
X108585000Y-91865000D02*
X105410000Y-88690000D01*
X100330000Y-111760000D02*
X100330000Y-111530000D01*
D28*
X89175000Y-98520000D02*
X94405000Y-98520000D01*
X100330000Y-95250000D02*
X95250000Y-95250000D01*
D29*
X125730000Y-91865000D02*
X122555000Y-88690000D01*
X100330000Y-111145000D02*
X97155000Y-107970000D01*
X153035000Y-92075000D02*
X152610000Y-92075000D01*
X143510000Y-95250000D02*
X143510000Y-92710000D01*
X125730000Y-113030000D02*
X125730000Y-111760000D01*
X108585000Y-91865000D02*
X111760000Y-88690000D01*
D27*
X154940000Y-88690000D02*
X149225000Y-88690000D01*
X140335000Y-88690000D02*
X138430000Y-88690000D01*
X94945000Y-107665000D02*
X95250000Y-107970000D01*
D29*
X108585000Y-111760000D02*
X108585000Y-106345000D01*
X140970000Y-107720000D02*
X140970000Y-108585000D01*
X144145000Y-111760000D02*
X144145000Y-109580000D01*
X143510000Y-91865000D02*
X140335000Y-88690000D01*
D28*
X95250000Y-106065000D02*
X93345000Y-107970000D01*
X94405000Y-98520000D02*
X94945000Y-99060000D01*
X100330000Y-90928781D02*
X102568781Y-88690000D01*
D29*
X153035000Y-95250000D02*
X153035000Y-92075000D01*
X135255000Y-92075000D02*
X135255000Y-88690000D01*
X117475000Y-111530000D02*
X113665000Y-107720000D01*
X125730000Y-92075000D02*
X125730000Y-91865000D01*
X108585000Y-111760000D02*
X108180000Y-111760000D01*
D27*
X163455000Y-107720000D02*
X163455000Y-111760000D01*
X149225000Y-88690000D02*
X146685000Y-88690000D01*
X117475000Y-88690000D02*
X114300000Y-88690000D01*
X111760000Y-88690000D02*
X108585000Y-88690000D01*
D29*
X108180000Y-111760000D02*
X104140000Y-107720000D01*
X158750000Y-114935000D02*
X160020000Y-114935000D01*
X135255000Y-113030000D02*
X135255000Y-111530000D01*
D28*
X86940000Y-117420000D02*
X89175000Y-117420000D01*
D29*
X152400000Y-111760000D02*
X152400000Y-110215000D01*
X152400000Y-111530000D02*
X148590000Y-107720000D01*
X146330000Y-109575000D02*
X144145000Y-111760000D01*
X125730000Y-91865000D02*
X128905000Y-88690000D01*
X117475000Y-95250000D02*
X117475000Y-92075000D01*
X143510000Y-92710000D02*
X143510000Y-91865000D01*
X135255000Y-91865000D02*
X138430000Y-88690000D01*
X135255000Y-111530000D02*
X131445000Y-107720000D01*
D28*
X95250000Y-106045000D02*
X95250000Y-107970000D01*
D29*
X108585000Y-92075000D02*
X108585000Y-91865000D01*
D28*
X85725000Y-109855000D02*
X85725000Y-110490000D01*
D27*
X120650000Y-88690000D02*
X117475000Y-88690000D01*
D29*
X117475000Y-92075000D02*
X117475000Y-91865000D01*
D27*
X163455000Y-114935000D02*
X163455000Y-118110000D01*
X132080000Y-88690000D02*
X128905000Y-88690000D01*
D29*
X143510000Y-89325000D02*
X144145000Y-88690000D01*
X160020000Y-114935000D02*
X163455000Y-114935000D01*
X153035000Y-90595000D02*
X154940000Y-88690000D01*
X135255000Y-109695000D02*
X135375000Y-109575000D01*
X144145000Y-113030000D02*
X144145000Y-111760000D01*
D27*
X163455000Y-118110000D02*
X163455000Y-122930000D01*
D29*
X125730000Y-92075000D02*
X125730000Y-88690000D01*
X143510000Y-92710000D02*
X143510000Y-89325000D01*
D27*
X105410000Y-88690000D02*
X102568781Y-88690000D01*
D29*
X108585000Y-95250000D02*
X108585000Y-92075000D01*
D28*
X86900000Y-98520000D02*
X85725000Y-99695000D01*
D29*
X100330000Y-111760000D02*
X100330000Y-111145000D01*
X135255000Y-91865000D02*
X132080000Y-88690000D01*
X160020000Y-114935000D02*
X160280000Y-114935000D01*
X100330000Y-111530000D02*
X104140000Y-107720000D01*
X117475000Y-111760000D02*
X117475000Y-109695000D01*
D28*
X95250000Y-106045000D02*
X95250000Y-106065000D01*
D29*
X108585000Y-92075000D02*
X108585000Y-88690000D01*
X108585000Y-113030000D02*
X108585000Y-111615787D01*
D27*
X94945000Y-96313781D02*
X94945000Y-99060000D01*
D29*
X125730000Y-111760000D02*
X122555000Y-108585000D01*
X152610000Y-92075000D02*
X149225000Y-88690000D01*
D27*
X122555000Y-107720000D02*
X131445000Y-107720000D01*
D29*
X135255000Y-113030000D02*
X135255000Y-111615787D01*
D28*
X87630000Y-107950000D02*
X85725000Y-109855000D01*
X100330000Y-95250000D02*
X100330000Y-90928781D01*
D27*
X148590000Y-107720000D02*
X163455000Y-107720000D01*
D28*
X95250000Y-95250000D02*
X95250000Y-106045000D01*
D29*
X119660000Y-109575000D02*
X117475000Y-111760000D01*
D27*
X125730000Y-88690000D02*
X122555000Y-88690000D01*
X146685000Y-88690000D02*
X144145000Y-88690000D01*
D29*
X160280000Y-114935000D02*
X163455000Y-111760000D01*
D27*
X114300000Y-88690000D02*
X111760000Y-88690000D01*
D29*
X127915000Y-109575000D02*
X129535000Y-109575000D01*
X152400000Y-111760000D02*
X154585000Y-109575000D01*
X117475000Y-113030000D02*
X117475000Y-111760000D01*
X147200000Y-109575000D02*
X146330000Y-109575000D01*
D27*
X131445000Y-107720000D02*
X140970000Y-107720000D01*
X128905000Y-88690000D02*
X125730000Y-88690000D01*
D28*
X89175000Y-98520000D02*
X86900000Y-98520000D01*
D29*
X100330000Y-111760000D02*
X100330000Y-108615000D01*
X135255000Y-111615787D02*
X139150787Y-107720000D01*
D27*
X97155000Y-107970000D02*
X100975000Y-107970000D01*
D28*
X85725000Y-107950000D02*
X85725000Y-110490000D01*
D29*
X125730000Y-110330000D02*
X126485000Y-109575000D01*
D27*
X158535000Y-127850000D02*
X103505000Y-127850000D01*
X140970000Y-107720000D02*
X148590000Y-107720000D01*
X101225000Y-107720000D02*
X104140000Y-107720000D01*
D29*
X154585000Y-109575000D02*
X156090000Y-109575000D01*
X140970000Y-108585000D02*
X144145000Y-111760000D01*
X122555000Y-108585000D02*
X122555000Y-107720000D01*
D26*
X152400000Y-110215000D02*
X153040000Y-109575000D01*
D27*
X135255000Y-88690000D02*
X132080000Y-88690000D01*
D28*
X87630000Y-107950000D02*
X89155000Y-107950000D01*
D29*
X143510000Y-91865000D02*
X146685000Y-88690000D01*
X160280000Y-114935000D02*
X163455000Y-118110000D01*
X125730000Y-111760000D02*
X127915000Y-109575000D01*
D27*
X163455000Y-122930000D02*
X158535000Y-127850000D01*
D29*
X112480787Y-107720000D02*
X113665000Y-107720000D01*
X135255000Y-92075000D02*
X135255000Y-91865000D01*
D28*
X85725000Y-110490000D02*
X85725000Y-116205000D01*
X89155000Y-107950000D02*
X89175000Y-107970000D01*
D29*
X108585000Y-106345000D02*
X108705000Y-106225000D01*
D26*
%TO.N,Net-(D1-A)*%
X161670000Y-97790000D02*
X164160000Y-97790000D01*
%TO.N,Net-(D2-A)*%
X153035000Y-97790000D02*
X155270000Y-97790000D01*
%TO.N,Net-(D3-A)*%
X143890000Y-97790000D02*
X146380000Y-97790000D01*
%TO.N,Net-(D4-A)*%
X135000000Y-97790000D02*
X137490000Y-97790000D01*
%TO.N,Net-(D5-A)*%
X126110000Y-97790000D02*
X128752500Y-97790000D01*
%TO.N,Net-(D6-A)*%
X117220000Y-97790000D02*
X120015000Y-97790000D01*
%TO.N,Net-(D7-A)*%
X108775000Y-97790000D02*
X111125000Y-97790000D01*
%TO.N,Net-(D8-A)*%
X99695000Y-97790000D02*
X102235000Y-97790000D01*
%TO.N,Net-(J9-Pin_2)*%
X155575000Y-95250000D02*
X154051000Y-96774000D01*
X152438500Y-96774000D02*
X151422500Y-97790000D01*
X151385000Y-97790000D02*
X151385000Y-100700000D01*
X151385000Y-100700000D02*
X152285000Y-101600000D01*
X154051000Y-96774000D02*
X152438500Y-96774000D01*
%TO.N,Net-(J8-Pin_2)*%
X161291000Y-96774000D02*
X160275000Y-97790000D01*
X162941000Y-96774000D02*
X161291000Y-96774000D01*
X161175000Y-101420000D02*
X160275000Y-100520000D01*
X160275000Y-100520000D02*
X160275000Y-97790000D01*
X164465000Y-95250000D02*
X162941000Y-96774000D01*
%TO.N,Net-(J6-Pin_2)*%
X146050000Y-95250000D02*
X144526000Y-96774000D01*
X142240000Y-100445000D02*
X143395000Y-101600000D01*
X144526000Y-96774000D02*
X143002000Y-96774000D01*
X142240000Y-97790000D02*
X142240000Y-100445000D01*
X142240000Y-97536000D02*
X142240000Y-97790000D01*
X143002000Y-96774000D02*
X142240000Y-97536000D01*
%TO.N,Net-(J7-Pin_2)*%
X136271000Y-96774000D02*
X133858000Y-96774000D01*
X137795000Y-95250000D02*
X136271000Y-96774000D01*
X133858000Y-96774000D02*
X133858000Y-96799500D01*
X133858000Y-96799500D02*
X132867500Y-97790000D01*
X133350000Y-97790000D02*
X133350000Y-100330000D01*
X133350000Y-100330000D02*
X134620000Y-101600000D01*
%TO.N,Net-(J4-Pin_2)*%
X125476000Y-96774000D02*
X124460000Y-97790000D01*
X124460000Y-100330000D02*
X125730000Y-101600000D01*
X124460000Y-97790000D02*
X124460000Y-100330000D01*
X128270000Y-95250000D02*
X126746000Y-96774000D01*
X126746000Y-96774000D02*
X125476000Y-96774000D01*
%TO.N,Net-(J5-Pin_2)*%
X120015000Y-95250000D02*
X118491000Y-96774000D01*
X115570000Y-97790000D02*
X115570000Y-100330000D01*
X118491000Y-96774000D02*
X116586000Y-96774000D01*
X116586000Y-96774000D02*
X115570000Y-97790000D01*
X115570000Y-100330000D02*
X116840000Y-101600000D01*
%TO.N,Net-(J3-Pin_2)*%
X107125000Y-100715000D02*
X107830000Y-101420000D01*
X107125000Y-97790000D02*
X107125000Y-100715000D01*
X109601000Y-96774000D02*
X108331000Y-96774000D01*
X111125000Y-95250000D02*
X109601000Y-96774000D01*
X108331000Y-96774000D02*
X107315000Y-97790000D01*
%TO.N,Net-(J2-Pin_2)*%
X99060000Y-96774000D02*
X99060000Y-96775000D01*
X98235000Y-100710000D02*
X98945000Y-101420000D01*
X102870000Y-95250000D02*
X101346000Y-96774000D01*
X98235000Y-97790000D02*
X98235000Y-100710000D01*
X99060000Y-96775000D02*
X98045000Y-97790000D01*
X101346000Y-96774000D02*
X99060000Y-96774000D01*
%TD*%
%TA.AperFunction,Conductor*%
%TO.N,GND*%
G36*
X113368831Y-103103098D02*
G01*
X113387554Y-103118474D01*
X114598987Y-104329907D01*
X114600052Y-104330998D01*
X114649844Y-104383379D01*
X114660940Y-104395052D01*
X114660947Y-104395058D01*
X114695053Y-104418795D01*
X114711303Y-104430106D01*
X114715044Y-104432926D01*
X114762593Y-104471698D01*
X114793045Y-104487604D01*
X114799756Y-104491671D01*
X114806983Y-104496701D01*
X114827951Y-104511295D01*
X114884329Y-104535489D01*
X114888578Y-104537507D01*
X114942951Y-104565909D01*
X114963893Y-104571901D01*
X114975974Y-104575358D01*
X114983368Y-104577990D01*
X115014942Y-104591540D01*
X115014945Y-104591540D01*
X115014946Y-104591541D01*
X115075022Y-104603887D01*
X115079600Y-104605010D01*
X115093501Y-104608987D01*
X115138582Y-104621887D01*
X115172839Y-104624495D01*
X115180614Y-104625586D01*
X115214255Y-104632500D01*
X115214259Y-104632500D01*
X115275598Y-104632500D01*
X115280304Y-104632678D01*
X115307595Y-104634757D01*
X115341475Y-104637337D01*
X115341475Y-104637336D01*
X115341476Y-104637337D01*
X115375559Y-104632996D01*
X115383389Y-104632500D01*
X115613383Y-104632500D01*
X115680422Y-104652185D01*
X115726177Y-104704989D01*
X115736121Y-104774147D01*
X115731091Y-104795498D01*
X115730494Y-104797298D01*
X115720000Y-104900011D01*
X115720000Y-108250021D01*
X115720001Y-110719978D01*
X115720001Y-110899988D01*
X115730494Y-111002699D01*
X115785640Y-111169120D01*
X115785642Y-111169125D01*
X115877683Y-111318346D01*
X116001653Y-111442316D01*
X116150874Y-111534357D01*
X116150879Y-111534359D01*
X116317302Y-111589506D01*
X116317300Y-111589506D01*
X116376134Y-111595516D01*
X116387124Y-111600000D01*
X116416858Y-111600000D01*
X116423163Y-111600321D01*
X116433462Y-111601373D01*
X116441419Y-111600000D01*
X116471375Y-111600000D01*
X116471384Y-111599999D01*
X116508915Y-111599999D01*
X116575954Y-111619684D01*
X116621709Y-111672488D01*
X116631653Y-111741646D01*
X116602628Y-111805202D01*
X116585077Y-111821852D01*
X116455602Y-111922626D01*
X116455592Y-111922635D01*
X116287232Y-112105521D01*
X116151267Y-112313632D01*
X116051412Y-112541282D01*
X115990387Y-112782261D01*
X115990385Y-112782270D01*
X115969858Y-113029994D01*
X115969858Y-113030005D01*
X115990385Y-113277729D01*
X115990387Y-113277738D01*
X116051412Y-113518717D01*
X116151267Y-113746367D01*
X116287232Y-113954478D01*
X116455592Y-114137364D01*
X116455602Y-114137373D01*
X116651762Y-114290051D01*
X116651771Y-114290057D01*
X116737489Y-114336445D01*
X116787080Y-114385664D01*
X116802188Y-114453881D01*
X116778018Y-114519437D01*
X116722242Y-114561518D01*
X116678472Y-114569500D01*
X112479782Y-114569500D01*
X112412743Y-114549815D01*
X112392101Y-114533181D01*
X112161819Y-114302899D01*
X112128334Y-114241576D01*
X112125500Y-114215218D01*
X112125500Y-114207027D01*
X112145185Y-114139988D01*
X112158265Y-114123049D01*
X112313164Y-113954785D01*
X112449173Y-113746607D01*
X112549063Y-113518881D01*
X112610108Y-113277821D01*
X112623881Y-113111606D01*
X112630643Y-113030005D01*
X112630643Y-113029994D01*
X112610109Y-112782187D01*
X112610107Y-112782175D01*
X112549063Y-112541118D01*
X112449173Y-112313393D01*
X112313166Y-112105217D01*
X112225342Y-112009815D01*
X112144744Y-111922262D01*
X112144739Y-111922258D01*
X112144737Y-111922256D01*
X112015738Y-111821852D01*
X111974925Y-111765142D01*
X111971250Y-111695369D01*
X112005882Y-111634686D01*
X112067823Y-111602359D01*
X112091900Y-111599999D01*
X112929974Y-111599999D01*
X112929988Y-111599998D01*
X113032699Y-111589505D01*
X113199120Y-111534359D01*
X113199125Y-111534357D01*
X113348346Y-111442316D01*
X113472316Y-111318346D01*
X113564357Y-111169125D01*
X113564359Y-111169120D01*
X113619505Y-111002698D01*
X113629999Y-110899988D01*
X113629999Y-104900028D01*
X113629998Y-104900012D01*
X113619827Y-104800448D01*
X113619741Y-104798761D01*
X113619505Y-104797300D01*
X113564359Y-104630879D01*
X113564357Y-104630874D01*
X113472316Y-104481653D01*
X113348346Y-104357683D01*
X113199125Y-104265642D01*
X113199120Y-104265640D01*
X113032698Y-104210494D01*
X112929988Y-104200000D01*
X111624282Y-104200000D01*
X111557243Y-104180315D01*
X111511488Y-104127511D01*
X111501544Y-104058353D01*
X111530569Y-103994797D01*
X111536601Y-103988319D01*
X112288101Y-103236818D01*
X112349424Y-103203333D01*
X112375782Y-103200499D01*
X112910002Y-103200499D01*
X112910008Y-103200499D01*
X113012797Y-103189999D01*
X113179334Y-103134814D01*
X113234776Y-103100616D01*
X113302168Y-103082176D01*
X113368831Y-103103098D01*
G37*
%TD.AperFunction*%
%TA.AperFunction,Conductor*%
G36*
X122101303Y-103196224D02*
G01*
X123234987Y-104329907D01*
X123236052Y-104330998D01*
X123285844Y-104383379D01*
X123296940Y-104395052D01*
X123296947Y-104395058D01*
X123331053Y-104418795D01*
X123347303Y-104430106D01*
X123351044Y-104432926D01*
X123398593Y-104471698D01*
X123429045Y-104487604D01*
X123435756Y-104491671D01*
X123442983Y-104496701D01*
X123463951Y-104511295D01*
X123520329Y-104535489D01*
X123524578Y-104537507D01*
X123578951Y-104565909D01*
X123599893Y-104571901D01*
X123611974Y-104575358D01*
X123619368Y-104577990D01*
X123650942Y-104591540D01*
X123650945Y-104591540D01*
X123650946Y-104591541D01*
X123711022Y-104603887D01*
X123715600Y-104605010D01*
X123729501Y-104608987D01*
X123774582Y-104621887D01*
X123808839Y-104624495D01*
X123816614Y-104625586D01*
X123850255Y-104632500D01*
X123850259Y-104632500D01*
X123911598Y-104632500D01*
X123916304Y-104632678D01*
X123943595Y-104634757D01*
X123977475Y-104637337D01*
X123977475Y-104637336D01*
X123977476Y-104637337D01*
X124011559Y-104632996D01*
X124019389Y-104632500D01*
X124503383Y-104632500D01*
X124570422Y-104652185D01*
X124616177Y-104704989D01*
X124626121Y-104774147D01*
X124621091Y-104795498D01*
X124620494Y-104797298D01*
X124610000Y-104900011D01*
X124610000Y-108250021D01*
X124610001Y-110719978D01*
X124610001Y-110899988D01*
X124620494Y-111002699D01*
X124675640Y-111169120D01*
X124675642Y-111169125D01*
X124767683Y-111318346D01*
X124891655Y-111442318D01*
X124999171Y-111508634D01*
X125045896Y-111560582D01*
X125057119Y-111629544D01*
X125029275Y-111693627D01*
X124993093Y-111723228D01*
X124906767Y-111769945D01*
X124906762Y-111769948D01*
X124710602Y-111922626D01*
X124710592Y-111922635D01*
X124542232Y-112105521D01*
X124406267Y-112313632D01*
X124306412Y-112541282D01*
X124245387Y-112782261D01*
X124245385Y-112782270D01*
X124224858Y-113029994D01*
X124224858Y-113030005D01*
X124245385Y-113277729D01*
X124245387Y-113277738D01*
X124306412Y-113518717D01*
X124406267Y-113746367D01*
X124542232Y-113954478D01*
X124710592Y-114137364D01*
X124710602Y-114137373D01*
X124906762Y-114290051D01*
X124906771Y-114290057D01*
X124992489Y-114336445D01*
X125042080Y-114385664D01*
X125057188Y-114453881D01*
X125033018Y-114519437D01*
X124977242Y-114561518D01*
X124933472Y-114569500D01*
X121623783Y-114569500D01*
X121556744Y-114549815D01*
X121536102Y-114533181D01*
X121169640Y-114166719D01*
X121136155Y-114105396D01*
X121141139Y-114035704D01*
X121166090Y-113995057D01*
X121203164Y-113954785D01*
X121339173Y-113746607D01*
X121439063Y-113518881D01*
X121500108Y-113277821D01*
X121513881Y-113111606D01*
X121520643Y-113030005D01*
X121520643Y-113029994D01*
X121500109Y-112782187D01*
X121500107Y-112782175D01*
X121439063Y-112541118D01*
X121339173Y-112313393D01*
X121203166Y-112105217D01*
X121115342Y-112009815D01*
X121034744Y-111922262D01*
X121034739Y-111922258D01*
X121034737Y-111922256D01*
X120905738Y-111821852D01*
X120864925Y-111765142D01*
X120861250Y-111695369D01*
X120895882Y-111634686D01*
X120957823Y-111602359D01*
X120981900Y-111599999D01*
X121819974Y-111599999D01*
X121819988Y-111599998D01*
X121922699Y-111589505D01*
X122089120Y-111534359D01*
X122089125Y-111534357D01*
X122238346Y-111442316D01*
X122362316Y-111318346D01*
X122454357Y-111169125D01*
X122454359Y-111169120D01*
X122509505Y-111002698D01*
X122519999Y-110899988D01*
X122519999Y-104900028D01*
X122519998Y-104900012D01*
X122509827Y-104800448D01*
X122509741Y-104798761D01*
X122509505Y-104797300D01*
X122454359Y-104630879D01*
X122454357Y-104630874D01*
X122362316Y-104481653D01*
X122238346Y-104357683D01*
X122089125Y-104265642D01*
X122089120Y-104265640D01*
X121922698Y-104210494D01*
X121819988Y-104200000D01*
X120514282Y-104200000D01*
X120447243Y-104180315D01*
X120401488Y-104127511D01*
X120391544Y-104058353D01*
X120420569Y-103994797D01*
X120426601Y-103988319D01*
X121178101Y-103236818D01*
X121239424Y-103203333D01*
X121265782Y-103200499D01*
X121800002Y-103200499D01*
X121800008Y-103200499D01*
X121902797Y-103189999D01*
X121974619Y-103166198D01*
X122044446Y-103163797D01*
X122101303Y-103196224D01*
G37*
%TD.AperFunction*%
%TA.AperFunction,Conductor*%
G36*
X130757255Y-103220184D02*
G01*
X130777897Y-103236818D01*
X132124987Y-104583907D01*
X132126052Y-104584998D01*
X132173352Y-104634757D01*
X132186940Y-104649052D01*
X132186947Y-104649058D01*
X132221053Y-104672795D01*
X132237303Y-104684106D01*
X132241044Y-104686926D01*
X132288593Y-104725698D01*
X132319045Y-104741604D01*
X132325756Y-104745671D01*
X132353951Y-104765295D01*
X132410332Y-104789490D01*
X132414567Y-104791501D01*
X132468951Y-104819909D01*
X132501973Y-104829356D01*
X132509365Y-104831989D01*
X132540940Y-104845539D01*
X132540941Y-104845540D01*
X132554054Y-104848234D01*
X132601055Y-104857892D01*
X132605595Y-104859006D01*
X132664582Y-104875886D01*
X132698841Y-104878494D01*
X132706609Y-104879585D01*
X132740255Y-104886500D01*
X132740259Y-104886500D01*
X132801601Y-104886500D01*
X132806308Y-104886678D01*
X132833597Y-104888757D01*
X132867475Y-104891337D01*
X132867475Y-104891336D01*
X132867476Y-104891337D01*
X132901559Y-104886996D01*
X132909389Y-104886500D01*
X133376000Y-104886500D01*
X133443039Y-104906185D01*
X133488794Y-104958989D01*
X133500000Y-105010500D01*
X133500000Y-108250021D01*
X133500001Y-110719978D01*
X133500001Y-110899988D01*
X133510494Y-111002699D01*
X133565640Y-111169120D01*
X133565642Y-111169125D01*
X133657683Y-111318346D01*
X133781653Y-111442316D01*
X133930874Y-111534357D01*
X133930879Y-111534359D01*
X134097302Y-111589506D01*
X134097300Y-111589506D01*
X134156134Y-111595516D01*
X134167124Y-111600000D01*
X134196858Y-111600000D01*
X134203163Y-111600321D01*
X134213462Y-111601373D01*
X134221419Y-111600000D01*
X134251375Y-111600000D01*
X134251384Y-111599999D01*
X134288915Y-111599999D01*
X134355954Y-111619684D01*
X134401709Y-111672488D01*
X134411653Y-111741646D01*
X134382628Y-111805202D01*
X134365077Y-111821852D01*
X134235602Y-111922626D01*
X134235592Y-111922635D01*
X134067232Y-112105521D01*
X133931267Y-112313632D01*
X133831412Y-112541282D01*
X133770387Y-112782261D01*
X133770385Y-112782270D01*
X133749858Y-113029994D01*
X133749858Y-113030005D01*
X133770385Y-113277729D01*
X133770387Y-113277738D01*
X133831412Y-113518717D01*
X133931267Y-113746367D01*
X134067232Y-113954478D01*
X134235592Y-114137364D01*
X134235602Y-114137373D01*
X134431762Y-114290051D01*
X134431771Y-114290057D01*
X134517489Y-114336445D01*
X134567080Y-114385664D01*
X134582188Y-114453881D01*
X134558018Y-114519437D01*
X134502242Y-114561518D01*
X134458472Y-114569500D01*
X130005783Y-114569500D01*
X129938744Y-114549815D01*
X129918102Y-114533181D01*
X129482557Y-114097636D01*
X129449072Y-114036313D01*
X129454056Y-113966621D01*
X129466425Y-113942139D01*
X129594173Y-113746607D01*
X129694063Y-113518881D01*
X129755108Y-113277821D01*
X129768881Y-113111606D01*
X129775643Y-113030005D01*
X129775643Y-113029994D01*
X129755109Y-112782187D01*
X129755107Y-112782175D01*
X129694063Y-112541118D01*
X129594173Y-112313393D01*
X129458166Y-112105217D01*
X129370342Y-112009815D01*
X129289744Y-111922262D01*
X129289739Y-111922258D01*
X129289737Y-111922256D01*
X129160738Y-111821852D01*
X129119925Y-111765142D01*
X129116250Y-111695369D01*
X129150882Y-111634686D01*
X129212823Y-111602359D01*
X129236900Y-111599999D01*
X130709974Y-111599999D01*
X130709988Y-111599998D01*
X130812699Y-111589505D01*
X130979120Y-111534359D01*
X130979125Y-111534357D01*
X131128346Y-111442316D01*
X131252316Y-111318346D01*
X131344357Y-111169125D01*
X131344359Y-111169120D01*
X131399505Y-111002698D01*
X131409999Y-110899988D01*
X131409999Y-104900028D01*
X131409998Y-104900012D01*
X131399827Y-104800448D01*
X131399741Y-104798761D01*
X131399505Y-104797300D01*
X131344359Y-104630879D01*
X131344357Y-104630874D01*
X131252316Y-104481653D01*
X131128346Y-104357683D01*
X130979125Y-104265642D01*
X130979120Y-104265640D01*
X130812698Y-104210494D01*
X130709988Y-104200000D01*
X129404282Y-104200000D01*
X129337243Y-104180315D01*
X129291488Y-104127511D01*
X129281544Y-104058353D01*
X129310569Y-103994797D01*
X129316601Y-103988319D01*
X130068101Y-103236818D01*
X130129424Y-103203333D01*
X130155782Y-103200499D01*
X130690216Y-103200499D01*
X130757255Y-103220184D01*
G37*
%TD.AperFunction*%
%TA.AperFunction,Conductor*%
G36*
X148884960Y-103059226D02*
G01*
X148903676Y-103074597D01*
X149491193Y-103662113D01*
X150158987Y-104329907D01*
X150160052Y-104330998D01*
X150209844Y-104383379D01*
X150220940Y-104395052D01*
X150220947Y-104395058D01*
X150255053Y-104418795D01*
X150271303Y-104430106D01*
X150275044Y-104432926D01*
X150322593Y-104471698D01*
X150353045Y-104487604D01*
X150359756Y-104491671D01*
X150366983Y-104496701D01*
X150387951Y-104511295D01*
X150444329Y-104535489D01*
X150448578Y-104537507D01*
X150502951Y-104565909D01*
X150523893Y-104571901D01*
X150535974Y-104575358D01*
X150543368Y-104577990D01*
X150574942Y-104591540D01*
X150574945Y-104591540D01*
X150574946Y-104591541D01*
X150635022Y-104603887D01*
X150639600Y-104605010D01*
X150653501Y-104608987D01*
X150698582Y-104621887D01*
X150732839Y-104624495D01*
X150740614Y-104625586D01*
X150774255Y-104632500D01*
X150774259Y-104632500D01*
X150835598Y-104632500D01*
X150840304Y-104632678D01*
X150867595Y-104634757D01*
X150901475Y-104637337D01*
X150901475Y-104637336D01*
X150901476Y-104637337D01*
X150935559Y-104632996D01*
X150943389Y-104632500D01*
X151058383Y-104632500D01*
X151125422Y-104652185D01*
X151171177Y-104704989D01*
X151181121Y-104774147D01*
X151176091Y-104795498D01*
X151175494Y-104797298D01*
X151165000Y-104900011D01*
X151165000Y-108250021D01*
X151165001Y-110719978D01*
X151165001Y-110899988D01*
X151175494Y-111002699D01*
X151230640Y-111169120D01*
X151230642Y-111169125D01*
X151322683Y-111318346D01*
X151446653Y-111442316D01*
X151595878Y-111534359D01*
X151596092Y-111534459D01*
X151596213Y-111534566D01*
X151602024Y-111538150D01*
X151601411Y-111539142D01*
X151648536Y-111580626D01*
X151667695Y-111647817D01*
X151647486Y-111714700D01*
X151602720Y-111755899D01*
X151576771Y-111769942D01*
X151576762Y-111769948D01*
X151380602Y-111922626D01*
X151380592Y-111922635D01*
X151212232Y-112105521D01*
X151076267Y-112313632D01*
X150976412Y-112541282D01*
X150915387Y-112782261D01*
X150915385Y-112782270D01*
X150894859Y-113029994D01*
X150894859Y-113030005D01*
X150915385Y-113277729D01*
X150915387Y-113277738D01*
X150976412Y-113518717D01*
X151076267Y-113746367D01*
X151212232Y-113954478D01*
X151380592Y-114137364D01*
X151380602Y-114137373D01*
X151576762Y-114290051D01*
X151576771Y-114290057D01*
X151662489Y-114336445D01*
X151712080Y-114385664D01*
X151727188Y-114453881D01*
X151703018Y-114519437D01*
X151647242Y-114561518D01*
X151603472Y-114569500D01*
X148293783Y-114569500D01*
X148226744Y-114549815D01*
X148206102Y-114533181D01*
X147839640Y-114166719D01*
X147806155Y-114105396D01*
X147811139Y-114035704D01*
X147836090Y-113995057D01*
X147873164Y-113954785D01*
X148009173Y-113746607D01*
X148109063Y-113518881D01*
X148170108Y-113277821D01*
X148183881Y-113111606D01*
X148190643Y-113030005D01*
X148190643Y-113029994D01*
X148170109Y-112782187D01*
X148170107Y-112782175D01*
X148109063Y-112541118D01*
X148009173Y-112313393D01*
X147873166Y-112105217D01*
X147785342Y-112009815D01*
X147704744Y-111922262D01*
X147704739Y-111922258D01*
X147704737Y-111922256D01*
X147575738Y-111821852D01*
X147534925Y-111765142D01*
X147531250Y-111695369D01*
X147565882Y-111634686D01*
X147627823Y-111602359D01*
X147651900Y-111599999D01*
X148374974Y-111599999D01*
X148374988Y-111599998D01*
X148477699Y-111589505D01*
X148644120Y-111534359D01*
X148644125Y-111534357D01*
X148793346Y-111442316D01*
X148917316Y-111318346D01*
X149009357Y-111169125D01*
X149009359Y-111169120D01*
X149064505Y-111002698D01*
X149074999Y-110899988D01*
X149074999Y-104900028D01*
X149074998Y-104900012D01*
X149064827Y-104800448D01*
X149064741Y-104798761D01*
X149064505Y-104797300D01*
X149009359Y-104630879D01*
X149009357Y-104630874D01*
X148917316Y-104481653D01*
X148793346Y-104357683D01*
X148644125Y-104265642D01*
X148644120Y-104265640D01*
X148477698Y-104210494D01*
X148374988Y-104200000D01*
X147069282Y-104200000D01*
X147002243Y-104180315D01*
X146956488Y-104127511D01*
X146946544Y-104058353D01*
X146975569Y-103994797D01*
X146981601Y-103988319D01*
X147733101Y-103236818D01*
X147794424Y-103203333D01*
X147820782Y-103200499D01*
X148355002Y-103200499D01*
X148355008Y-103200499D01*
X148457797Y-103189999D01*
X148624334Y-103134814D01*
X148750905Y-103056744D01*
X148818296Y-103038304D01*
X148884960Y-103059226D01*
G37*
%TD.AperFunction*%
%TA.AperFunction,Conductor*%
G36*
X139647255Y-103220184D02*
G01*
X139667897Y-103236818D01*
X140760987Y-104329907D01*
X140762052Y-104330998D01*
X140811844Y-104383379D01*
X140822940Y-104395052D01*
X140822947Y-104395058D01*
X140857053Y-104418795D01*
X140873303Y-104430106D01*
X140877044Y-104432926D01*
X140924593Y-104471698D01*
X140955045Y-104487604D01*
X140961756Y-104491671D01*
X140968983Y-104496701D01*
X140989951Y-104511295D01*
X141046329Y-104535489D01*
X141050578Y-104537507D01*
X141104951Y-104565909D01*
X141125893Y-104571901D01*
X141137974Y-104575358D01*
X141145368Y-104577990D01*
X141176942Y-104591540D01*
X141176945Y-104591540D01*
X141176946Y-104591541D01*
X141237022Y-104603887D01*
X141241600Y-104605010D01*
X141255501Y-104608987D01*
X141300582Y-104621887D01*
X141334839Y-104624495D01*
X141342614Y-104625586D01*
X141376255Y-104632500D01*
X141376259Y-104632500D01*
X141437598Y-104632500D01*
X141442304Y-104632678D01*
X141469595Y-104634757D01*
X141503475Y-104637337D01*
X141503475Y-104637336D01*
X141503476Y-104637337D01*
X141537559Y-104632996D01*
X141545389Y-104632500D01*
X142168383Y-104632500D01*
X142235422Y-104652185D01*
X142281177Y-104704989D01*
X142291121Y-104774147D01*
X142286091Y-104795498D01*
X142285494Y-104797298D01*
X142275000Y-104900011D01*
X142275000Y-108250021D01*
X142275001Y-110719978D01*
X142275001Y-110899988D01*
X142285494Y-111002699D01*
X142340640Y-111169120D01*
X142340642Y-111169125D01*
X142432683Y-111318346D01*
X142556653Y-111442316D01*
X142705874Y-111534357D01*
X142705879Y-111534359D01*
X142872302Y-111589506D01*
X142872300Y-111589506D01*
X142931134Y-111595516D01*
X142942124Y-111600000D01*
X142971858Y-111600000D01*
X142978163Y-111600321D01*
X142988462Y-111601373D01*
X142996419Y-111600000D01*
X143026375Y-111600000D01*
X143026384Y-111599999D01*
X143178915Y-111599999D01*
X143245954Y-111619684D01*
X143291709Y-111672488D01*
X143301653Y-111741646D01*
X143272628Y-111805202D01*
X143255077Y-111821852D01*
X143125602Y-111922626D01*
X143125592Y-111922635D01*
X142957232Y-112105521D01*
X142821267Y-112313632D01*
X142721412Y-112541282D01*
X142660387Y-112782261D01*
X142660385Y-112782270D01*
X142639859Y-113029994D01*
X142639859Y-113030005D01*
X142660385Y-113277729D01*
X142660387Y-113277738D01*
X142721412Y-113518717D01*
X142821267Y-113746367D01*
X142957232Y-113954478D01*
X143098116Y-114107517D01*
X143129039Y-114170171D01*
X143121179Y-114239597D01*
X143077032Y-114293753D01*
X143010615Y-114315444D01*
X143006887Y-114315500D01*
X139149783Y-114315500D01*
X139082744Y-114295815D01*
X139062102Y-114279181D01*
X138949640Y-114166719D01*
X138916155Y-114105396D01*
X138921139Y-114035704D01*
X138946090Y-113995057D01*
X138983164Y-113954785D01*
X139119173Y-113746607D01*
X139219063Y-113518881D01*
X139280108Y-113277821D01*
X139293881Y-113111606D01*
X139300643Y-113030005D01*
X139300643Y-113029994D01*
X139280109Y-112782187D01*
X139280107Y-112782175D01*
X139219063Y-112541118D01*
X139119173Y-112313393D01*
X138983166Y-112105217D01*
X138895342Y-112009815D01*
X138814744Y-111922262D01*
X138814739Y-111922258D01*
X138814737Y-111922256D01*
X138685738Y-111821852D01*
X138644925Y-111765142D01*
X138641250Y-111695369D01*
X138675882Y-111634686D01*
X138737823Y-111602359D01*
X138761900Y-111599999D01*
X139599974Y-111599999D01*
X139599988Y-111599998D01*
X139702699Y-111589505D01*
X139869120Y-111534359D01*
X139869125Y-111534357D01*
X140018346Y-111442316D01*
X140142316Y-111318346D01*
X140234357Y-111169125D01*
X140234359Y-111169120D01*
X140289505Y-111002698D01*
X140299999Y-110899988D01*
X140299999Y-104900028D01*
X140299998Y-104900012D01*
X140289827Y-104800448D01*
X140289741Y-104798761D01*
X140289505Y-104797300D01*
X140234359Y-104630879D01*
X140234357Y-104630874D01*
X140142316Y-104481653D01*
X140018346Y-104357683D01*
X139869125Y-104265642D01*
X139869120Y-104265640D01*
X139702698Y-104210494D01*
X139599988Y-104200000D01*
X138294282Y-104200000D01*
X138227243Y-104180315D01*
X138181488Y-104127511D01*
X138171544Y-104058353D01*
X138200569Y-103994797D01*
X138206601Y-103988319D01*
X138958101Y-103236818D01*
X139019424Y-103203333D01*
X139045782Y-103200499D01*
X139580216Y-103200499D01*
X139647255Y-103220184D01*
G37*
%TD.AperFunction*%
%TA.AperFunction,Conductor*%
G36*
X102269732Y-111439683D02*
G01*
X102315487Y-111492487D01*
X102325431Y-111561646D01*
X102296406Y-111625202D01*
X102261711Y-111653054D01*
X102046493Y-111769524D01*
X101850255Y-111922262D01*
X101850252Y-111922265D01*
X101690889Y-112095379D01*
X101631002Y-112131370D01*
X101561164Y-112129269D01*
X101508431Y-112095379D01*
X101349407Y-111922635D01*
X101349397Y-111922626D01*
X101153237Y-111769948D01*
X101153228Y-111769942D01*
X100937236Y-111653054D01*
X100887645Y-111603835D01*
X100872537Y-111535618D01*
X100896707Y-111470062D01*
X100952483Y-111427981D01*
X100996253Y-111419999D01*
X102202693Y-111419999D01*
X102269732Y-111439683D01*
G37*
%TD.AperFunction*%
%TA.AperFunction,Conductor*%
G36*
X110225139Y-111619684D02*
G01*
X110270894Y-111672488D01*
X110280838Y-111741646D01*
X110251813Y-111805202D01*
X110234262Y-111821852D01*
X110105262Y-111922256D01*
X110105252Y-111922265D01*
X109945889Y-112095379D01*
X109886002Y-112131370D01*
X109816164Y-112129269D01*
X109763431Y-112095379D01*
X109604407Y-111922635D01*
X109604397Y-111922626D01*
X109474923Y-111821852D01*
X109434110Y-111765142D01*
X109430435Y-111695369D01*
X109465067Y-111634686D01*
X109527008Y-111602359D01*
X109551085Y-111599999D01*
X110158100Y-111599999D01*
X110225139Y-111619684D01*
G37*
%TD.AperFunction*%
%TA.AperFunction,Conductor*%
G36*
X119115139Y-111619684D02*
G01*
X119160894Y-111672488D01*
X119170838Y-111741646D01*
X119141813Y-111805202D01*
X119124262Y-111821852D01*
X118995262Y-111922256D01*
X118995252Y-111922265D01*
X118835889Y-112095379D01*
X118776002Y-112131370D01*
X118706164Y-112129269D01*
X118653431Y-112095379D01*
X118494407Y-111922635D01*
X118494397Y-111922626D01*
X118364923Y-111821852D01*
X118324110Y-111765142D01*
X118320435Y-111695369D01*
X118355067Y-111634686D01*
X118417008Y-111602359D01*
X118441085Y-111599999D01*
X119048100Y-111599999D01*
X119115139Y-111619684D01*
G37*
%TD.AperFunction*%
%TA.AperFunction,Conductor*%
G36*
X127370139Y-111619684D02*
G01*
X127415894Y-111672488D01*
X127425838Y-111741646D01*
X127396813Y-111805202D01*
X127379262Y-111821852D01*
X127250262Y-111922256D01*
X127250252Y-111922265D01*
X127090889Y-112095379D01*
X127031002Y-112131370D01*
X126961164Y-112129269D01*
X126908431Y-112095379D01*
X126749407Y-111922635D01*
X126749397Y-111922626D01*
X126619923Y-111821852D01*
X126579110Y-111765142D01*
X126575435Y-111695369D01*
X126610067Y-111634686D01*
X126672008Y-111602359D01*
X126696085Y-111599999D01*
X127303100Y-111599999D01*
X127370139Y-111619684D01*
G37*
%TD.AperFunction*%
%TA.AperFunction,Conductor*%
G36*
X136895139Y-111619684D02*
G01*
X136940894Y-111672488D01*
X136950838Y-111741646D01*
X136921813Y-111805202D01*
X136904262Y-111821852D01*
X136775262Y-111922256D01*
X136775252Y-111922265D01*
X136615889Y-112095379D01*
X136556002Y-112131370D01*
X136486164Y-112129269D01*
X136433431Y-112095379D01*
X136274407Y-111922635D01*
X136274397Y-111922626D01*
X136144923Y-111821852D01*
X136104110Y-111765142D01*
X136100435Y-111695369D01*
X136135067Y-111634686D01*
X136197008Y-111602359D01*
X136221085Y-111599999D01*
X136828100Y-111599999D01*
X136895139Y-111619684D01*
G37*
%TD.AperFunction*%
%TA.AperFunction,Conductor*%
G36*
X145785139Y-111619684D02*
G01*
X145830894Y-111672488D01*
X145840838Y-111741646D01*
X145811813Y-111805202D01*
X145794262Y-111821852D01*
X145665262Y-111922256D01*
X145665252Y-111922265D01*
X145505889Y-112095379D01*
X145446002Y-112131370D01*
X145376164Y-112129269D01*
X145323431Y-112095379D01*
X145164407Y-111922635D01*
X145164397Y-111922626D01*
X145034923Y-111821852D01*
X144994110Y-111765142D01*
X144990435Y-111695369D01*
X145025067Y-111634686D01*
X145087008Y-111602359D01*
X145111085Y-111599999D01*
X145718100Y-111599999D01*
X145785139Y-111619684D01*
G37*
%TD.AperFunction*%
%TA.AperFunction,Conductor*%
G36*
X154040139Y-111619684D02*
G01*
X154085894Y-111672488D01*
X154095838Y-111741646D01*
X154066813Y-111805202D01*
X154049262Y-111821852D01*
X153920262Y-111922256D01*
X153920252Y-111922265D01*
X153760889Y-112095379D01*
X153701002Y-112131370D01*
X153631164Y-112129269D01*
X153578431Y-112095379D01*
X153419407Y-111922635D01*
X153419397Y-111922626D01*
X153289923Y-111821852D01*
X153249110Y-111765142D01*
X153245435Y-111695369D01*
X153280067Y-111634686D01*
X153342008Y-111602359D01*
X153366085Y-111599999D01*
X153973100Y-111599999D01*
X154040139Y-111619684D01*
G37*
%TD.AperFunction*%
%TA.AperFunction,Conductor*%
G36*
X172027539Y-72410185D02*
G01*
X172073294Y-72462989D01*
X172084500Y-72514500D01*
X172084500Y-135765500D01*
X172064815Y-135832539D01*
X172012011Y-135878294D01*
X171960500Y-135889500D01*
X79499500Y-135889500D01*
X79432461Y-135869815D01*
X79386706Y-135817011D01*
X79375500Y-135765500D01*
X79375500Y-131445000D01*
X80114422Y-131445000D01*
X80134722Y-131832339D01*
X80195397Y-132215427D01*
X80195397Y-132215429D01*
X80295788Y-132590094D01*
X80434787Y-132952197D01*
X80610877Y-133297793D01*
X80822122Y-133623082D01*
X80822124Y-133623084D01*
X81066219Y-133924516D01*
X81340484Y-134198781D01*
X81340488Y-134198784D01*
X81641917Y-134442877D01*
X81967206Y-134654122D01*
X81967211Y-134654125D01*
X82312806Y-134830214D01*
X82674913Y-134969214D01*
X83049567Y-135069602D01*
X83432662Y-135130278D01*
X83798576Y-135149455D01*
X83819999Y-135150578D01*
X83820000Y-135150578D01*
X83820001Y-135150578D01*
X83840301Y-135149514D01*
X84207338Y-135130278D01*
X84590433Y-135069602D01*
X84965087Y-134969214D01*
X85327194Y-134830214D01*
X85672789Y-134654125D01*
X85998084Y-134442876D01*
X86299516Y-134198781D01*
X86573781Y-133924516D01*
X86817876Y-133623084D01*
X87029125Y-133297789D01*
X87205214Y-132952194D01*
X87344214Y-132590087D01*
X87444602Y-132215433D01*
X87505278Y-131832338D01*
X87525578Y-131445000D01*
X163934422Y-131445000D01*
X163954722Y-131832339D01*
X164015397Y-132215427D01*
X164015397Y-132215429D01*
X164115788Y-132590094D01*
X164254787Y-132952197D01*
X164430877Y-133297793D01*
X164642122Y-133623082D01*
X164642124Y-133623084D01*
X164886219Y-133924516D01*
X165160484Y-134198781D01*
X165160488Y-134198784D01*
X165461917Y-134442877D01*
X165787206Y-134654122D01*
X165787211Y-134654125D01*
X166132806Y-134830214D01*
X166494913Y-134969214D01*
X166869567Y-135069602D01*
X167252662Y-135130278D01*
X167618576Y-135149455D01*
X167639999Y-135150578D01*
X167640000Y-135150578D01*
X167640001Y-135150578D01*
X167660301Y-135149514D01*
X168027338Y-135130278D01*
X168410433Y-135069602D01*
X168785087Y-134969214D01*
X169147194Y-134830214D01*
X169492789Y-134654125D01*
X169818084Y-134442876D01*
X170119516Y-134198781D01*
X170393781Y-133924516D01*
X170637876Y-133623084D01*
X170849125Y-133297789D01*
X171025214Y-132952194D01*
X171164214Y-132590087D01*
X171264602Y-132215433D01*
X171325278Y-131832338D01*
X171345578Y-131445000D01*
X171325278Y-131057662D01*
X171264602Y-130674567D01*
X171164214Y-130299913D01*
X171025214Y-129937806D01*
X170849125Y-129592211D01*
X170849122Y-129592206D01*
X170637877Y-129266917D01*
X170393784Y-128965488D01*
X170393781Y-128965484D01*
X170119516Y-128691219D01*
X170085164Y-128663401D01*
X169818082Y-128447122D01*
X169492793Y-128235877D01*
X169147197Y-128059787D01*
X168785094Y-127920788D01*
X168785087Y-127920786D01*
X168410433Y-127820398D01*
X168410429Y-127820397D01*
X168410428Y-127820397D01*
X168027339Y-127759722D01*
X167640001Y-127739422D01*
X167639999Y-127739422D01*
X167252660Y-127759722D01*
X166869572Y-127820397D01*
X166869570Y-127820397D01*
X166494905Y-127920788D01*
X166132802Y-128059787D01*
X165787206Y-128235877D01*
X165461917Y-128447122D01*
X165160488Y-128691215D01*
X165160480Y-128691222D01*
X164886222Y-128965480D01*
X164886215Y-128965488D01*
X164642122Y-129266917D01*
X164430877Y-129592206D01*
X164254787Y-129937802D01*
X164115788Y-130299905D01*
X164015397Y-130674570D01*
X164015397Y-130674572D01*
X163954722Y-131057660D01*
X163934422Y-131444999D01*
X163934422Y-131445000D01*
X87525578Y-131445000D01*
X87505278Y-131057662D01*
X87444602Y-130674567D01*
X87344214Y-130299913D01*
X87205214Y-129937806D01*
X87029125Y-129592211D01*
X87029122Y-129592206D01*
X86817877Y-129266917D01*
X86573784Y-128965488D01*
X86573781Y-128965484D01*
X86299516Y-128691219D01*
X86265164Y-128663401D01*
X85998082Y-128447122D01*
X85672793Y-128235877D01*
X85327197Y-128059787D01*
X84965094Y-127920788D01*
X84965087Y-127920786D01*
X84700909Y-127850000D01*
X100000197Y-127850000D01*
X100019397Y-128216353D01*
X100076784Y-128578684D01*
X100076784Y-128578686D01*
X100171736Y-128933051D01*
X100303204Y-129275535D01*
X100469754Y-129602406D01*
X100669553Y-129910070D01*
X100900420Y-130195166D01*
X100900427Y-130195174D01*
X101159825Y-130454572D01*
X101159833Y-130454579D01*
X101444929Y-130685446D01*
X101752593Y-130885245D01*
X102079464Y-131051795D01*
X102421948Y-131183263D01*
X102776314Y-131278215D01*
X103138646Y-131335602D01*
X103504999Y-131354803D01*
X103505001Y-131354803D01*
X103871353Y-131335602D01*
X104233684Y-131278215D01*
X104233686Y-131278215D01*
X104588051Y-131183263D01*
X104930535Y-131051795D01*
X105257406Y-130885245D01*
X105565070Y-130685446D01*
X105850166Y-130454579D01*
X105850174Y-130454572D01*
X106109572Y-130195174D01*
X106109579Y-130195166D01*
X106340446Y-129910070D01*
X106540245Y-129602406D01*
X106706795Y-129275535D01*
X106838263Y-128933051D01*
X106933215Y-128578686D01*
X106933215Y-128578684D01*
X106990602Y-128216353D01*
X107009803Y-127850000D01*
X112700197Y-127850000D01*
X112719397Y-128216353D01*
X112776784Y-128578684D01*
X112776784Y-128578686D01*
X112871736Y-128933051D01*
X113003204Y-129275535D01*
X113169754Y-129602406D01*
X113369553Y-129910070D01*
X113600420Y-130195166D01*
X113600427Y-130195174D01*
X113859825Y-130454572D01*
X113859833Y-130454579D01*
X114144929Y-130685446D01*
X114452593Y-130885245D01*
X114779464Y-131051795D01*
X115121948Y-131183263D01*
X115476314Y-131278215D01*
X115838646Y-131335602D01*
X116204999Y-131354803D01*
X116205001Y-131354803D01*
X116571353Y-131335602D01*
X116933684Y-131278215D01*
X116933686Y-131278215D01*
X117288051Y-131183263D01*
X117630535Y-131051795D01*
X117957406Y-130885245D01*
X118265070Y-130685446D01*
X118550166Y-130454579D01*
X118550174Y-130454572D01*
X118809572Y-130195174D01*
X118809579Y-130195166D01*
X119040446Y-129910070D01*
X119240245Y-129602406D01*
X119406795Y-129275535D01*
X119538263Y-128933051D01*
X119633215Y-128578686D01*
X119633215Y-128578684D01*
X119690602Y-128216353D01*
X119709803Y-127850000D01*
X125400197Y-127850000D01*
X125419397Y-128216353D01*
X125476784Y-128578684D01*
X125476784Y-128578686D01*
X125571736Y-128933051D01*
X125703204Y-129275535D01*
X125869754Y-129602406D01*
X126069553Y-129910070D01*
X126300420Y-130195166D01*
X126300427Y-130195174D01*
X126559825Y-130454572D01*
X126559833Y-130454579D01*
X126844929Y-130685446D01*
X127152593Y-130885245D01*
X127479464Y-131051795D01*
X127821948Y-131183263D01*
X128176314Y-131278215D01*
X128538646Y-131335602D01*
X128904999Y-131354803D01*
X128905001Y-131354803D01*
X129271353Y-131335602D01*
X129633684Y-131278215D01*
X129633686Y-131278215D01*
X129988051Y-131183263D01*
X130330535Y-131051795D01*
X130657406Y-130885245D01*
X130965070Y-130685446D01*
X131250166Y-130454579D01*
X131250174Y-130454572D01*
X131509572Y-130195174D01*
X131509579Y-130195166D01*
X131740446Y-129910070D01*
X131940245Y-129602406D01*
X132106795Y-129275535D01*
X132238263Y-128933051D01*
X132333215Y-128578686D01*
X132333215Y-128578684D01*
X132390602Y-128216353D01*
X132409803Y-127850000D01*
X138100197Y-127850000D01*
X138119397Y-128216353D01*
X138176784Y-128578684D01*
X138176784Y-128578686D01*
X138271736Y-128933051D01*
X138403204Y-129275535D01*
X138569754Y-129602406D01*
X138769553Y-129910070D01*
X139000420Y-130195166D01*
X139000427Y-130195174D01*
X139259825Y-130454572D01*
X139259833Y-130454579D01*
X139544929Y-130685446D01*
X139852593Y-130885245D01*
X140179464Y-131051795D01*
X140521948Y-131183263D01*
X140876314Y-131278215D01*
X141238646Y-131335602D01*
X141604999Y-131354803D01*
X141605001Y-131354803D01*
X141971353Y-131335602D01*
X142333684Y-131278215D01*
X142333686Y-131278215D01*
X142688051Y-131183263D01*
X143030535Y-131051795D01*
X143357406Y-130885245D01*
X143665070Y-130685446D01*
X143950166Y-130454579D01*
X143950174Y-130454572D01*
X144209572Y-130195174D01*
X144209579Y-130195166D01*
X144440446Y-129910070D01*
X144640245Y-129602406D01*
X144806795Y-129275535D01*
X144938263Y-128933051D01*
X145033215Y-128578686D01*
X145033215Y-128578684D01*
X145090602Y-128216353D01*
X145109803Y-127850000D01*
X150800197Y-127850000D01*
X150819397Y-128216353D01*
X150876784Y-128578684D01*
X150876784Y-128578686D01*
X150971736Y-128933051D01*
X151103204Y-129275535D01*
X151269754Y-129602406D01*
X151469553Y-129910070D01*
X151700420Y-130195166D01*
X151700427Y-130195174D01*
X151959825Y-130454572D01*
X151959833Y-130454579D01*
X152244929Y-130685446D01*
X152552593Y-130885245D01*
X152879464Y-131051795D01*
X153221948Y-131183263D01*
X153576314Y-131278215D01*
X153938646Y-131335602D01*
X154304999Y-131354803D01*
X154305001Y-131354803D01*
X154671353Y-131335602D01*
X155033684Y-131278215D01*
X155033686Y-131278215D01*
X155388051Y-131183263D01*
X155730535Y-131051795D01*
X156057406Y-130885245D01*
X156365070Y-130685446D01*
X156650166Y-130454579D01*
X156650174Y-130454572D01*
X156909572Y-130195174D01*
X156909579Y-130195166D01*
X157140446Y-129910070D01*
X157340245Y-129602406D01*
X157506795Y-129275535D01*
X157638263Y-128933051D01*
X157733215Y-128578686D01*
X157733215Y-128578684D01*
X157790602Y-128216353D01*
X157809803Y-127850000D01*
X157809803Y-127849999D01*
X157790602Y-127483646D01*
X157733215Y-127121315D01*
X157733215Y-127121313D01*
X157638263Y-126766948D01*
X157506795Y-126424464D01*
X157340245Y-126097594D01*
X157140446Y-125789929D01*
X156909579Y-125504833D01*
X156909572Y-125504825D01*
X156650174Y-125245427D01*
X156650166Y-125245420D01*
X156365070Y-125014553D01*
X156057406Y-124814754D01*
X155730535Y-124648204D01*
X155388051Y-124516736D01*
X155033685Y-124421784D01*
X154877031Y-124396973D01*
X154813897Y-124367044D01*
X154776965Y-124307733D01*
X154777963Y-124237870D01*
X154816573Y-124179637D01*
X154880536Y-124151523D01*
X154896429Y-124150500D01*
X155876448Y-124150500D01*
X156090428Y-124135196D01*
X156370046Y-124074369D01*
X156638161Y-123974367D01*
X156889315Y-123837226D01*
X157118395Y-123665739D01*
X157320739Y-123463395D01*
X157492226Y-123234315D01*
X157629367Y-122983161D01*
X157729369Y-122715046D01*
X157790196Y-122435428D01*
X157805500Y-122221448D01*
X157805500Y-119078552D01*
X157790196Y-118864572D01*
X157782398Y-118828726D01*
X157729371Y-118584962D01*
X157729370Y-118584960D01*
X157729369Y-118584954D01*
X157629367Y-118316839D01*
X157550655Y-118172690D01*
X157492229Y-118065690D01*
X157492224Y-118065682D01*
X157320745Y-117836612D01*
X157320729Y-117836594D01*
X157118405Y-117634270D01*
X157118387Y-117634254D01*
X156889317Y-117462775D01*
X156889309Y-117462770D01*
X156638166Y-117325635D01*
X156638167Y-117325635D01*
X156530914Y-117285632D01*
X156370046Y-117225631D01*
X156370043Y-117225630D01*
X156370037Y-117225628D01*
X156090433Y-117164804D01*
X155876450Y-117149500D01*
X155876448Y-117149500D01*
X152733552Y-117149500D01*
X152733549Y-117149500D01*
X152519566Y-117164804D01*
X152239962Y-117225628D01*
X151971833Y-117325635D01*
X151720690Y-117462770D01*
X151720682Y-117462775D01*
X151491612Y-117634254D01*
X151491594Y-117634270D01*
X151289270Y-117836594D01*
X151289254Y-117836612D01*
X151117775Y-118065682D01*
X151117770Y-118065690D01*
X150980635Y-118316833D01*
X150880628Y-118584962D01*
X150819804Y-118864566D01*
X150804500Y-119078549D01*
X150804500Y-122221450D01*
X150819804Y-122435433D01*
X150880628Y-122715037D01*
X150980635Y-122983166D01*
X151117770Y-123234309D01*
X151117775Y-123234317D01*
X151289254Y-123463387D01*
X151289270Y-123463405D01*
X151491594Y-123665729D01*
X151491612Y-123665745D01*
X151720682Y-123837224D01*
X151720690Y-123837229D01*
X151971833Y-123974364D01*
X151971832Y-123974364D01*
X151971836Y-123974365D01*
X151971839Y-123974367D01*
X152239954Y-124074369D01*
X152239960Y-124074370D01*
X152239962Y-124074371D01*
X152519566Y-124135195D01*
X152519568Y-124135195D01*
X152519572Y-124135196D01*
X152733552Y-124150500D01*
X153713571Y-124150500D01*
X153780610Y-124170185D01*
X153826365Y-124222989D01*
X153836309Y-124292147D01*
X153807284Y-124355703D01*
X153748506Y-124393477D01*
X153732969Y-124396973D01*
X153576315Y-124421784D01*
X153576313Y-124421784D01*
X153221948Y-124516736D01*
X152879464Y-124648204D01*
X152552594Y-124814754D01*
X152244929Y-125014553D01*
X151959833Y-125245420D01*
X151959825Y-125245427D01*
X151700427Y-125504825D01*
X151700420Y-125504833D01*
X151469553Y-125789929D01*
X151269754Y-126097594D01*
X151103204Y-126424464D01*
X150971736Y-126766948D01*
X150876784Y-127121313D01*
X150876784Y-127121315D01*
X150819397Y-127483646D01*
X150800197Y-127849999D01*
X150800197Y-127850000D01*
X145109803Y-127850000D01*
X145109803Y-127849999D01*
X145090602Y-127483646D01*
X145033215Y-127121315D01*
X145033215Y-127121313D01*
X144938263Y-126766948D01*
X144806795Y-126424464D01*
X144640245Y-126097594D01*
X144440446Y-125789929D01*
X144209579Y-125504833D01*
X144209572Y-125504825D01*
X143950174Y-125245427D01*
X143950166Y-125245420D01*
X143665070Y-125014553D01*
X143357406Y-124814754D01*
X143030535Y-124648204D01*
X142688051Y-124516736D01*
X142333685Y-124421784D01*
X142177031Y-124396973D01*
X142113897Y-124367044D01*
X142076965Y-124307733D01*
X142077963Y-124237870D01*
X142116573Y-124179637D01*
X142180536Y-124151523D01*
X142196429Y-124150500D01*
X143176448Y-124150500D01*
X143390428Y-124135196D01*
X143670046Y-124074369D01*
X143938161Y-123974367D01*
X144189315Y-123837226D01*
X144418395Y-123665739D01*
X144620739Y-123463395D01*
X144792226Y-123234315D01*
X144929367Y-122983161D01*
X145029369Y-122715046D01*
X145090196Y-122435428D01*
X145105500Y-122221448D01*
X145105500Y-119078552D01*
X145090196Y-118864572D01*
X145082398Y-118828726D01*
X145029371Y-118584962D01*
X145029370Y-118584960D01*
X145029369Y-118584954D01*
X144929367Y-118316839D01*
X144850655Y-118172690D01*
X144792229Y-118065690D01*
X144792224Y-118065682D01*
X144620745Y-117836612D01*
X144620729Y-117836594D01*
X144418405Y-117634270D01*
X144418387Y-117634254D01*
X144189317Y-117462775D01*
X144189309Y-117462770D01*
X143938166Y-117325635D01*
X143938167Y-117325635D01*
X143830915Y-117285632D01*
X143670046Y-117225631D01*
X143670043Y-117225630D01*
X143670037Y-117225628D01*
X143390433Y-117164804D01*
X143176450Y-117149500D01*
X143176448Y-117149500D01*
X140033552Y-117149500D01*
X140033549Y-117149500D01*
X139819566Y-117164804D01*
X139539962Y-117225628D01*
X139271833Y-117325635D01*
X139020690Y-117462770D01*
X139020682Y-117462775D01*
X138791612Y-117634254D01*
X138791594Y-117634270D01*
X138589270Y-117836594D01*
X138589254Y-117836612D01*
X138417775Y-118065682D01*
X138417770Y-118065690D01*
X138280635Y-118316833D01*
X138180628Y-118584962D01*
X138119804Y-118864566D01*
X138104500Y-119078549D01*
X138104500Y-122221450D01*
X138119804Y-122435433D01*
X138180628Y-122715037D01*
X138280635Y-122983166D01*
X138417770Y-123234309D01*
X138417775Y-123234317D01*
X138589254Y-123463387D01*
X138589270Y-123463405D01*
X138791594Y-123665729D01*
X138791612Y-123665745D01*
X139020682Y-123837224D01*
X139020690Y-123837229D01*
X139271833Y-123974364D01*
X139271832Y-123974364D01*
X139271836Y-123974365D01*
X139271839Y-123974367D01*
X139539954Y-124074369D01*
X139539960Y-124074370D01*
X139539962Y-124074371D01*
X139819566Y-124135195D01*
X139819568Y-124135195D01*
X139819572Y-124135196D01*
X140033552Y-124150500D01*
X141013571Y-124150500D01*
X141080610Y-124170185D01*
X141126365Y-124222989D01*
X141136309Y-124292147D01*
X141107284Y-124355703D01*
X141048506Y-124393477D01*
X141032969Y-124396973D01*
X140876315Y-124421784D01*
X140876313Y-124421784D01*
X140521948Y-124516736D01*
X140179464Y-124648204D01*
X139852594Y-124814754D01*
X139544929Y-125014553D01*
X139259833Y-125245420D01*
X139259825Y-125245427D01*
X139000427Y-125504825D01*
X139000420Y-125504833D01*
X138769553Y-125789929D01*
X138569754Y-126097594D01*
X138403204Y-126424464D01*
X138271736Y-126766948D01*
X138176784Y-127121313D01*
X138176784Y-127121315D01*
X138119397Y-127483646D01*
X138100197Y-127849999D01*
X138100197Y-127850000D01*
X132409803Y-127850000D01*
X132409803Y-127849999D01*
X132390602Y-127483646D01*
X132333215Y-127121315D01*
X132333215Y-127121313D01*
X132238263Y-126766948D01*
X132106795Y-126424464D01*
X131940245Y-126097594D01*
X131740446Y-125789929D01*
X131509579Y-125504833D01*
X131509572Y-125504825D01*
X131250174Y-125245427D01*
X131250166Y-125245420D01*
X130965070Y-125014553D01*
X130657406Y-124814754D01*
X130330535Y-124648204D01*
X129988051Y-124516736D01*
X129633685Y-124421784D01*
X129477031Y-124396973D01*
X129413897Y-124367044D01*
X129376965Y-124307733D01*
X129377963Y-124237870D01*
X129416573Y-124179637D01*
X129480536Y-124151523D01*
X129496429Y-124150500D01*
X130476448Y-124150500D01*
X130690428Y-124135196D01*
X130970046Y-124074369D01*
X131238161Y-123974367D01*
X131489315Y-123837226D01*
X131718395Y-123665739D01*
X131920739Y-123463395D01*
X132092226Y-123234315D01*
X132229367Y-122983161D01*
X132329369Y-122715046D01*
X132390196Y-122435428D01*
X132405500Y-122221448D01*
X132405500Y-119078552D01*
X132390196Y-118864572D01*
X132382398Y-118828726D01*
X132329371Y-118584962D01*
X132329370Y-118584960D01*
X132329369Y-118584954D01*
X132229367Y-118316839D01*
X132150655Y-118172690D01*
X132092229Y-118065690D01*
X132092224Y-118065682D01*
X131920745Y-117836612D01*
X131920729Y-117836594D01*
X131718405Y-117634270D01*
X131718387Y-117634254D01*
X131489317Y-117462775D01*
X131489309Y-117462770D01*
X131238166Y-117325635D01*
X131238167Y-117325635D01*
X131130914Y-117285632D01*
X130970046Y-117225631D01*
X130970043Y-117225630D01*
X130970037Y-117225628D01*
X130690433Y-117164804D01*
X130476450Y-117149500D01*
X130476448Y-117149500D01*
X127333552Y-117149500D01*
X127333549Y-117149500D01*
X127119566Y-117164804D01*
X126839962Y-117225628D01*
X126571833Y-117325635D01*
X126320690Y-117462770D01*
X126320682Y-117462775D01*
X126091612Y-117634254D01*
X126091594Y-117634270D01*
X125889270Y-117836594D01*
X125889254Y-117836612D01*
X125717775Y-118065682D01*
X125717770Y-118065690D01*
X125580635Y-118316833D01*
X125480628Y-118584962D01*
X125419804Y-118864566D01*
X125404500Y-119078549D01*
X125404500Y-122221450D01*
X125419804Y-122435433D01*
X125480628Y-122715037D01*
X125580635Y-122983166D01*
X125717770Y-123234309D01*
X125717775Y-123234317D01*
X125889254Y-123463387D01*
X125889270Y-123463405D01*
X126091594Y-123665729D01*
X126091612Y-123665745D01*
X126320682Y-123837224D01*
X126320690Y-123837229D01*
X126571833Y-123974364D01*
X126571832Y-123974364D01*
X126571836Y-123974365D01*
X126571839Y-123974367D01*
X126839954Y-124074369D01*
X126839960Y-124074370D01*
X126839962Y-124074371D01*
X127119566Y-124135195D01*
X127119568Y-124135195D01*
X127119572Y-124135196D01*
X127333552Y-124150500D01*
X128313571Y-124150500D01*
X128380610Y-124170185D01*
X128426365Y-124222989D01*
X128436309Y-124292147D01*
X128407284Y-124355703D01*
X128348506Y-124393477D01*
X128332969Y-124396973D01*
X128176315Y-124421784D01*
X128176313Y-124421784D01*
X127821948Y-124516736D01*
X127479464Y-124648204D01*
X127152594Y-124814754D01*
X126844929Y-125014553D01*
X126559833Y-125245420D01*
X126559825Y-125245427D01*
X126300427Y-125504825D01*
X126300420Y-125504833D01*
X126069553Y-125789929D01*
X125869754Y-126097594D01*
X125703204Y-126424464D01*
X125571736Y-126766948D01*
X125476784Y-127121313D01*
X125476784Y-127121315D01*
X125419397Y-127483646D01*
X125400197Y-127849999D01*
X125400197Y-127850000D01*
X119709803Y-127850000D01*
X119709803Y-127849999D01*
X119690602Y-127483646D01*
X119633215Y-127121315D01*
X119633215Y-127121313D01*
X119538263Y-126766948D01*
X119406795Y-126424464D01*
X119240245Y-126097594D01*
X119040446Y-125789929D01*
X118809579Y-125504833D01*
X118809572Y-125504825D01*
X118550174Y-125245427D01*
X118550166Y-125245420D01*
X118265070Y-125014553D01*
X117957406Y-124814754D01*
X117630535Y-124648204D01*
X117288051Y-124516736D01*
X116933685Y-124421784D01*
X116777031Y-124396973D01*
X116713897Y-124367044D01*
X116676965Y-124307733D01*
X116677963Y-124237870D01*
X116716573Y-124179637D01*
X116780536Y-124151523D01*
X116796429Y-124150500D01*
X117776448Y-124150500D01*
X117990428Y-124135196D01*
X118270046Y-124074369D01*
X118538161Y-123974367D01*
X118789315Y-123837226D01*
X119018395Y-123665739D01*
X119220739Y-123463395D01*
X119392226Y-123234315D01*
X119529367Y-122983161D01*
X119629369Y-122715046D01*
X119690196Y-122435428D01*
X119705500Y-122221448D01*
X119705500Y-119078552D01*
X119690196Y-118864572D01*
X119682398Y-118828726D01*
X119629371Y-118584962D01*
X119629370Y-118584960D01*
X119629369Y-118584954D01*
X119529367Y-118316839D01*
X119450655Y-118172690D01*
X119392229Y-118065690D01*
X119392224Y-118065682D01*
X119220745Y-117836612D01*
X119220729Y-117836594D01*
X119018405Y-117634270D01*
X119018387Y-117634254D01*
X118789317Y-117462775D01*
X118789309Y-117462770D01*
X118538166Y-117325635D01*
X118538167Y-117325635D01*
X118430915Y-117285632D01*
X118270046Y-117225631D01*
X118270043Y-117225630D01*
X118270037Y-117225628D01*
X117990433Y-117164804D01*
X117776450Y-117149500D01*
X117776448Y-117149500D01*
X114633552Y-117149500D01*
X114633549Y-117149500D01*
X114419566Y-117164804D01*
X114139962Y-117225628D01*
X113871833Y-117325635D01*
X113620690Y-117462770D01*
X113620682Y-117462775D01*
X113391612Y-117634254D01*
X113391594Y-117634270D01*
X113189270Y-117836594D01*
X113189254Y-117836612D01*
X113017775Y-118065682D01*
X113017770Y-118065690D01*
X112880635Y-118316833D01*
X112780628Y-118584962D01*
X112719804Y-118864566D01*
X112704500Y-119078549D01*
X112704500Y-122221450D01*
X112719804Y-122435433D01*
X112780628Y-122715037D01*
X112880635Y-122983166D01*
X113017770Y-123234309D01*
X113017775Y-123234317D01*
X113189254Y-123463387D01*
X113189270Y-123463405D01*
X113391594Y-123665729D01*
X113391612Y-123665745D01*
X113620682Y-123837224D01*
X113620690Y-123837229D01*
X113871833Y-123974364D01*
X113871832Y-123974364D01*
X113871836Y-123974365D01*
X113871839Y-123974367D01*
X114139954Y-124074369D01*
X114139960Y-124074370D01*
X114139962Y-124074371D01*
X114419566Y-124135195D01*
X114419568Y-124135195D01*
X114419572Y-124135196D01*
X114633552Y-124150500D01*
X115613571Y-124150500D01*
X115680610Y-124170185D01*
X115726365Y-124222989D01*
X115736309Y-124292147D01*
X115707284Y-124355703D01*
X115648506Y-124393477D01*
X115632969Y-124396973D01*
X115476315Y-124421784D01*
X115476313Y-124421784D01*
X115121948Y-124516736D01*
X114779464Y-124648204D01*
X114452594Y-124814754D01*
X114144929Y-125014553D01*
X113859833Y-125245420D01*
X113859825Y-125245427D01*
X113600427Y-125504825D01*
X113600420Y-125504833D01*
X113369553Y-125789929D01*
X113169754Y-126097594D01*
X113003204Y-126424464D01*
X112871736Y-126766948D01*
X112776784Y-127121313D01*
X112776784Y-127121315D01*
X112719397Y-127483646D01*
X112700197Y-127849999D01*
X112700197Y-127850000D01*
X107009803Y-127850000D01*
X107009803Y-127849999D01*
X106990602Y-127483646D01*
X106933215Y-127121315D01*
X106933215Y-127121313D01*
X106838263Y-126766948D01*
X106706795Y-126424464D01*
X106540245Y-126097594D01*
X106340446Y-125789929D01*
X106109579Y-125504833D01*
X106109572Y-125504825D01*
X105850174Y-125245427D01*
X105850166Y-125245420D01*
X105565070Y-125014553D01*
X105257406Y-124814754D01*
X104930535Y-124648204D01*
X104588051Y-124516736D01*
X104233685Y-124421784D01*
X104077031Y-124396973D01*
X104013897Y-124367044D01*
X103976965Y-124307733D01*
X103977963Y-124237870D01*
X104016573Y-124179637D01*
X104080536Y-124151523D01*
X104096429Y-124150500D01*
X105076448Y-124150500D01*
X105290428Y-124135196D01*
X105570046Y-124074369D01*
X105838161Y-123974367D01*
X106089315Y-123837226D01*
X106318395Y-123665739D01*
X106520739Y-123463395D01*
X106692226Y-123234315D01*
X106829367Y-122983161D01*
X106929369Y-122715046D01*
X106990196Y-122435428D01*
X107005500Y-122221448D01*
X107005500Y-119078552D01*
X106990196Y-118864572D01*
X106982398Y-118828726D01*
X106929371Y-118584962D01*
X106929370Y-118584960D01*
X106929369Y-118584954D01*
X106829367Y-118316839D01*
X106750655Y-118172690D01*
X106692229Y-118065690D01*
X106692224Y-118065682D01*
X106520745Y-117836612D01*
X106520729Y-117836594D01*
X106318405Y-117634270D01*
X106318387Y-117634254D01*
X106089317Y-117462775D01*
X106089309Y-117462770D01*
X105838166Y-117325635D01*
X105838167Y-117325635D01*
X105730915Y-117285632D01*
X105570046Y-117225631D01*
X105570043Y-117225630D01*
X105570037Y-117225628D01*
X105290433Y-117164804D01*
X105076450Y-117149500D01*
X105076448Y-117149500D01*
X101933552Y-117149500D01*
X101933549Y-117149500D01*
X101719566Y-117164804D01*
X101439962Y-117225628D01*
X101171833Y-117325635D01*
X100920690Y-117462770D01*
X100920682Y-117462775D01*
X100691612Y-117634254D01*
X100691594Y-117634270D01*
X100489270Y-117836594D01*
X100489254Y-117836612D01*
X100317775Y-118065682D01*
X100317770Y-118065690D01*
X100180635Y-118316833D01*
X100080628Y-118584962D01*
X100019804Y-118864566D01*
X100004500Y-119078549D01*
X100004500Y-122221450D01*
X100019804Y-122435433D01*
X100080628Y-122715037D01*
X100180635Y-122983166D01*
X100317770Y-123234309D01*
X100317775Y-123234317D01*
X100489254Y-123463387D01*
X100489270Y-123463405D01*
X100691594Y-123665729D01*
X100691612Y-123665745D01*
X100920682Y-123837224D01*
X100920690Y-123837229D01*
X101171833Y-123974364D01*
X101171832Y-123974364D01*
X101171836Y-123974365D01*
X101171839Y-123974367D01*
X101439954Y-124074369D01*
X101439960Y-124074370D01*
X101439962Y-124074371D01*
X101719566Y-124135195D01*
X101719568Y-124135195D01*
X101719572Y-124135196D01*
X101933552Y-124150500D01*
X102913571Y-124150500D01*
X102980610Y-124170185D01*
X103026365Y-124222989D01*
X103036309Y-124292147D01*
X103007284Y-124355703D01*
X102948506Y-124393477D01*
X102932969Y-124396973D01*
X102776315Y-124421784D01*
X102776313Y-124421784D01*
X102421948Y-124516736D01*
X102079464Y-124648204D01*
X101752594Y-124814754D01*
X101444929Y-125014553D01*
X101159833Y-125245420D01*
X101159825Y-125245427D01*
X100900427Y-125504825D01*
X100900420Y-125504833D01*
X100669553Y-125789929D01*
X100469754Y-126097594D01*
X100303204Y-126424464D01*
X100171736Y-126766948D01*
X100076784Y-127121313D01*
X100076784Y-127121315D01*
X100019397Y-127483646D01*
X100000197Y-127849999D01*
X100000197Y-127850000D01*
X84700909Y-127850000D01*
X84590433Y-127820398D01*
X84590429Y-127820397D01*
X84590428Y-127820397D01*
X84207339Y-127759722D01*
X83820001Y-127739422D01*
X83819999Y-127739422D01*
X83432660Y-127759722D01*
X83049572Y-127820397D01*
X83049570Y-127820397D01*
X82674905Y-127920788D01*
X82312802Y-128059787D01*
X81967206Y-128235877D01*
X81641917Y-128447122D01*
X81340488Y-128691215D01*
X81340480Y-128691222D01*
X81066222Y-128965480D01*
X81066215Y-128965488D01*
X80822122Y-129266917D01*
X80610877Y-129592206D01*
X80434787Y-129937802D01*
X80295788Y-130299905D01*
X80195397Y-130674570D01*
X80195397Y-130674572D01*
X80134722Y-131057660D01*
X80114422Y-131444999D01*
X80114422Y-131445000D01*
X79375500Y-131445000D01*
X79375500Y-119920000D01*
X87669341Y-119920000D01*
X87689936Y-120155403D01*
X87689938Y-120155413D01*
X87751094Y-120383655D01*
X87751096Y-120383659D01*
X87751097Y-120383663D01*
X87801031Y-120490745D01*
X87850964Y-120597828D01*
X87850965Y-120597830D01*
X87986505Y-120791402D01*
X88153597Y-120958494D01*
X88347169Y-121094034D01*
X88347171Y-121094035D01*
X88561337Y-121193903D01*
X88789592Y-121255063D01*
X88966032Y-121270499D01*
X88966033Y-121270500D01*
X88966034Y-121270500D01*
X89383967Y-121270500D01*
X89383967Y-121270499D01*
X89560408Y-121255063D01*
X89788663Y-121193903D01*
X90002829Y-121094035D01*
X90196401Y-120958495D01*
X90363495Y-120791401D01*
X90499035Y-120597830D01*
X90598903Y-120383663D01*
X90660063Y-120155408D01*
X90680659Y-119920000D01*
X90660063Y-119684592D01*
X90598903Y-119456337D01*
X90499035Y-119242171D01*
X90499034Y-119242169D01*
X90363494Y-119048597D01*
X90215932Y-118901035D01*
X90182447Y-118839712D01*
X90187431Y-118770020D01*
X90229303Y-118714087D01*
X90238516Y-118707815D01*
X90393345Y-118612315D01*
X90517315Y-118488345D01*
X90609356Y-118339124D01*
X90609358Y-118339119D01*
X90664505Y-118172697D01*
X90664506Y-118172690D01*
X90674999Y-118069986D01*
X90674999Y-116770028D01*
X90674998Y-116770012D01*
X90664505Y-116667302D01*
X90609358Y-116500880D01*
X90609356Y-116500875D01*
X90517315Y-116351654D01*
X90393345Y-116227684D01*
X90244124Y-116135643D01*
X90244119Y-116135641D01*
X90077697Y-116080494D01*
X90077690Y-116080493D01*
X89974980Y-116070000D01*
X88375028Y-116070000D01*
X88375012Y-116070001D01*
X88272302Y-116080494D01*
X88105880Y-116135641D01*
X88105875Y-116135643D01*
X87956654Y-116227684D01*
X87832684Y-116351654D01*
X87740643Y-116500875D01*
X87740641Y-116500880D01*
X87685494Y-116667302D01*
X87685493Y-116667309D01*
X87675000Y-116770013D01*
X87675000Y-118069971D01*
X87675001Y-118069987D01*
X87685494Y-118172697D01*
X87740641Y-118339119D01*
X87740643Y-118339124D01*
X87832684Y-118488345D01*
X87956654Y-118612315D01*
X88111484Y-118707815D01*
X88158208Y-118759763D01*
X88169431Y-118828726D01*
X88141587Y-118892808D01*
X88134069Y-118901035D01*
X87986501Y-119048603D01*
X87986501Y-119048604D01*
X87850967Y-119242165D01*
X87850965Y-119242169D01*
X87751098Y-119456335D01*
X87751094Y-119456344D01*
X87689938Y-119684586D01*
X87689936Y-119684596D01*
X87669341Y-119919999D01*
X87669341Y-119920000D01*
X79375500Y-119920000D01*
X79375500Y-110470000D01*
X87669341Y-110470000D01*
X87689936Y-110705403D01*
X87689938Y-110705413D01*
X87751094Y-110933655D01*
X87751096Y-110933659D01*
X87751097Y-110933663D01*
X87801031Y-111040745D01*
X87850964Y-111147828D01*
X87850965Y-111147830D01*
X87986505Y-111341402D01*
X88153597Y-111508494D01*
X88347169Y-111644034D01*
X88347171Y-111644035D01*
X88561337Y-111743903D01*
X88789592Y-111805063D01*
X88966032Y-111820499D01*
X88966033Y-111820500D01*
X88966034Y-111820500D01*
X89383967Y-111820500D01*
X89383967Y-111820499D01*
X89560408Y-111805063D01*
X89788663Y-111743903D01*
X90002829Y-111644035D01*
X90196401Y-111508495D01*
X90363495Y-111341401D01*
X90499035Y-111147830D01*
X90598903Y-110933663D01*
X90660063Y-110705408D01*
X90680659Y-110470000D01*
X90660063Y-110234592D01*
X90598903Y-110006337D01*
X90499035Y-109792171D01*
X90499034Y-109792169D01*
X90363494Y-109598597D01*
X90215932Y-109451035D01*
X90182447Y-109389712D01*
X90187431Y-109320020D01*
X90229303Y-109264087D01*
X90238516Y-109257815D01*
X90393345Y-109162315D01*
X90517315Y-109038345D01*
X90609356Y-108889124D01*
X90609358Y-108889119D01*
X90664505Y-108722697D01*
X90664506Y-108722690D01*
X90674999Y-108619986D01*
X90674999Y-107320028D01*
X90674998Y-107320012D01*
X90664505Y-107217302D01*
X90609358Y-107050880D01*
X90609356Y-107050875D01*
X90517315Y-106901654D01*
X90393345Y-106777684D01*
X90244124Y-106685643D01*
X90244119Y-106685641D01*
X90077697Y-106630494D01*
X90077690Y-106630493D01*
X89974980Y-106620000D01*
X88375028Y-106620000D01*
X88375012Y-106620001D01*
X88272302Y-106630494D01*
X88105880Y-106685641D01*
X88105875Y-106685643D01*
X87956654Y-106777684D01*
X87832684Y-106901654D01*
X87740643Y-107050875D01*
X87740641Y-107050880D01*
X87685494Y-107217302D01*
X87685493Y-107217309D01*
X87675000Y-107320013D01*
X87675000Y-108619971D01*
X87675001Y-108619987D01*
X87685494Y-108722697D01*
X87740641Y-108889119D01*
X87740643Y-108889124D01*
X87832684Y-109038345D01*
X87956654Y-109162315D01*
X88111484Y-109257815D01*
X88158208Y-109309763D01*
X88169431Y-109378726D01*
X88141587Y-109442808D01*
X88134069Y-109451035D01*
X87986501Y-109598603D01*
X87986501Y-109598604D01*
X87850967Y-109792165D01*
X87850965Y-109792169D01*
X87751098Y-110006335D01*
X87751094Y-110006344D01*
X87689938Y-110234586D01*
X87689936Y-110234596D01*
X87669341Y-110469999D01*
X87669341Y-110470000D01*
X79375500Y-110470000D01*
X79375500Y-101020000D01*
X87669341Y-101020000D01*
X87689936Y-101255403D01*
X87689938Y-101255413D01*
X87751094Y-101483655D01*
X87751096Y-101483659D01*
X87751097Y-101483663D01*
X87801031Y-101590746D01*
X87850964Y-101697828D01*
X87850965Y-101697830D01*
X87986505Y-101891402D01*
X88153597Y-102058494D01*
X88347169Y-102194034D01*
X88347171Y-102194035D01*
X88561337Y-102293903D01*
X88789592Y-102355063D01*
X88966032Y-102370499D01*
X88966033Y-102370500D01*
X88966034Y-102370500D01*
X89383967Y-102370500D01*
X89383967Y-102370499D01*
X89560408Y-102355063D01*
X89788663Y-102293903D01*
X90002829Y-102194035D01*
X90196401Y-102058495D01*
X90363495Y-101891401D01*
X90499035Y-101697830D01*
X90598903Y-101483663D01*
X90660063Y-101255408D01*
X90680659Y-101020000D01*
X90678434Y-100994574D01*
X90675444Y-100960390D01*
X90660063Y-100784592D01*
X90611461Y-100603204D01*
X90598905Y-100556344D01*
X90598904Y-100556343D01*
X90598903Y-100556337D01*
X90499035Y-100342171D01*
X90499034Y-100342169D01*
X90363494Y-100148597D01*
X90215932Y-100001035D01*
X90182447Y-99939712D01*
X90187431Y-99870020D01*
X90229303Y-99814087D01*
X90238516Y-99807815D01*
X90393345Y-99712315D01*
X90517315Y-99588345D01*
X90609356Y-99439124D01*
X90609358Y-99439119D01*
X90664505Y-99272697D01*
X90664506Y-99272690D01*
X90674999Y-99169986D01*
X90674999Y-98121613D01*
X97144500Y-98121613D01*
X97150913Y-98192192D01*
X97150913Y-98192194D01*
X97150914Y-98192196D01*
X97201522Y-98354606D01*
X97286627Y-98495387D01*
X97289530Y-98500188D01*
X97409811Y-98620469D01*
X97409813Y-98620470D01*
X97409815Y-98620472D01*
X97549651Y-98705006D01*
X97596838Y-98756533D01*
X97609500Y-98811122D01*
X97609500Y-100627255D01*
X97607775Y-100642872D01*
X97608061Y-100642899D01*
X97607326Y-100650666D01*
X97609469Y-100718846D01*
X97609500Y-100720793D01*
X97609500Y-100749343D01*
X97609501Y-100749360D01*
X97610368Y-100756231D01*
X97610826Y-100762050D01*
X97612290Y-100808624D01*
X97612291Y-100808627D01*
X97617880Y-100827867D01*
X97621824Y-100846911D01*
X97624336Y-100866792D01*
X97640027Y-100906424D01*
X97641490Y-100910119D01*
X97643382Y-100915647D01*
X97653476Y-100950390D01*
X97656382Y-100960390D01*
X97665632Y-100976032D01*
X97666580Y-100977634D01*
X97675136Y-100995100D01*
X97682514Y-101013732D01*
X97709898Y-101051423D01*
X97713106Y-101056307D01*
X97736827Y-101096416D01*
X97736833Y-101096424D01*
X97750990Y-101110580D01*
X97763628Y-101125376D01*
X97768140Y-101131587D01*
X97775406Y-101141587D01*
X97799221Y-101161288D01*
X97799540Y-101161552D01*
X97838648Y-101219452D01*
X97844500Y-101257096D01*
X97844500Y-102320001D01*
X97844501Y-102320018D01*
X97855000Y-102422796D01*
X97855001Y-102422799D01*
X97890024Y-102528489D01*
X97910186Y-102589334D01*
X98002288Y-102738656D01*
X98126344Y-102862712D01*
X98275666Y-102954814D01*
X98442203Y-103009999D01*
X98544991Y-103020500D01*
X99345008Y-103020499D01*
X99345016Y-103020498D01*
X99345019Y-103020498D01*
X99401302Y-103014748D01*
X99447797Y-103009999D01*
X99614334Y-102954814D01*
X99763656Y-102862712D01*
X99887712Y-102738656D01*
X99979814Y-102589334D01*
X100034999Y-102422797D01*
X100045500Y-102320009D01*
X100045499Y-100519992D01*
X100043155Y-100497050D01*
X100034999Y-100417203D01*
X100034998Y-100417200D01*
X100009679Y-100340793D01*
X99979814Y-100250666D01*
X99887712Y-100101344D01*
X99763656Y-99977288D01*
X99670888Y-99920068D01*
X99614336Y-99885187D01*
X99614331Y-99885185D01*
X99612862Y-99884698D01*
X99447797Y-99830001D01*
X99447795Y-99830000D01*
X99345016Y-99819500D01*
X99345009Y-99819500D01*
X98984500Y-99819500D01*
X98917461Y-99799815D01*
X98871706Y-99747011D01*
X98860500Y-99695500D01*
X98860500Y-98718990D01*
X98880185Y-98651951D01*
X98932989Y-98606196D01*
X99002147Y-98596252D01*
X99052650Y-98617823D01*
X99053396Y-98616591D01*
X99059813Y-98620470D01*
X99059815Y-98620472D01*
X99205394Y-98708478D01*
X99367804Y-98759086D01*
X99438384Y-98765500D01*
X99438387Y-98765500D01*
X99951613Y-98765500D01*
X99951616Y-98765500D01*
X100022196Y-98759086D01*
X100184606Y-98708478D01*
X100330185Y-98620472D01*
X100450472Y-98500185D01*
X100465485Y-98475349D01*
X100517014Y-98428162D01*
X100571602Y-98415500D01*
X101329735Y-98415500D01*
X101396774Y-98435185D01*
X101435272Y-98474401D01*
X101444794Y-98489838D01*
X101448220Y-98495392D01*
X101567108Y-98614280D01*
X101567112Y-98614283D01*
X101710204Y-98702544D01*
X101710207Y-98702545D01*
X101710213Y-98702549D01*
X101869815Y-98755436D01*
X101968326Y-98765500D01*
X101968331Y-98765500D01*
X102501669Y-98765500D01*
X102501674Y-98765500D01*
X102600185Y-98755436D01*
X102759787Y-98702549D01*
X102902891Y-98614281D01*
X102934818Y-98582353D01*
X102996142Y-98548868D01*
X103065834Y-98553852D01*
X103110181Y-98582353D01*
X103147216Y-98619388D01*
X103145132Y-98621471D01*
X103177786Y-98667584D01*
X103184500Y-98707832D01*
X103184500Y-99699400D01*
X103164815Y-99766439D01*
X103112011Y-99812194D01*
X103073102Y-99822758D01*
X103002202Y-99830001D01*
X103002200Y-99830001D01*
X102835668Y-99885185D01*
X102835663Y-99885187D01*
X102686342Y-99977289D01*
X102562289Y-100101342D01*
X102470187Y-100250663D01*
X102470185Y-100250668D01*
X102463558Y-100270667D01*
X102415001Y-100417203D01*
X102415001Y-100417204D01*
X102415000Y-100417204D01*
X102404500Y-100519983D01*
X102404500Y-102320001D01*
X102404501Y-102320018D01*
X102415000Y-102422796D01*
X102415001Y-102422799D01*
X102450024Y-102528489D01*
X102470186Y-102589334D01*
X102562288Y-102738656D01*
X102686344Y-102862712D01*
X102835666Y-102954814D01*
X103002203Y-103009999D01*
X103104991Y-103020500D01*
X103639216Y-103020499D01*
X103706255Y-103040183D01*
X103726897Y-103056818D01*
X104777790Y-104107710D01*
X104795338Y-104129795D01*
X104800698Y-104138394D01*
X104802280Y-104141082D01*
X104838591Y-104206502D01*
X104840397Y-104208606D01*
X104849078Y-104218718D01*
X104860222Y-104233894D01*
X104868745Y-104247567D01*
X104868745Y-104247568D01*
X104868748Y-104247571D01*
X104920315Y-104301819D01*
X104922392Y-104304118D01*
X104940204Y-104324866D01*
X104971132Y-104360894D01*
X104971133Y-104360895D01*
X104983869Y-104370753D01*
X104997842Y-104383377D01*
X105008941Y-104395053D01*
X105020292Y-104402953D01*
X105070340Y-104437789D01*
X105072873Y-104439648D01*
X105087383Y-104450879D01*
X105132042Y-104485448D01*
X105146515Y-104492547D01*
X105162726Y-104502090D01*
X105175951Y-104511295D01*
X105237041Y-104537511D01*
X105244696Y-104540796D01*
X105247552Y-104542108D01*
X105314724Y-104575058D01*
X105314726Y-104575058D01*
X105314729Y-104575060D01*
X105330316Y-104579095D01*
X105348128Y-104585182D01*
X105362942Y-104591540D01*
X105436265Y-104606607D01*
X105439260Y-104607302D01*
X105511711Y-104626062D01*
X105511715Y-104626063D01*
X105527807Y-104626879D01*
X105546480Y-104629257D01*
X105554347Y-104630874D01*
X105562258Y-104632500D01*
X105562259Y-104632500D01*
X105637071Y-104632500D01*
X105640211Y-104632580D01*
X105666842Y-104633930D01*
X105714936Y-104636369D01*
X105730856Y-104633930D01*
X105749633Y-104632500D01*
X106723383Y-104632500D01*
X106790422Y-104652185D01*
X106836177Y-104704989D01*
X106846121Y-104774147D01*
X106841091Y-104795498D01*
X106840494Y-104797298D01*
X106830000Y-104900011D01*
X106830000Y-108250021D01*
X106830001Y-110719978D01*
X106830001Y-110899988D01*
X106840494Y-111002699D01*
X106895640Y-111169120D01*
X106895642Y-111169125D01*
X106987683Y-111318346D01*
X107111653Y-111442316D01*
X107260874Y-111534357D01*
X107260879Y-111534359D01*
X107427302Y-111589506D01*
X107427300Y-111589506D01*
X107486134Y-111595516D01*
X107497124Y-111600000D01*
X107526858Y-111600000D01*
X107533163Y-111600321D01*
X107543462Y-111601373D01*
X107551419Y-111600000D01*
X107581375Y-111600000D01*
X107581384Y-111599999D01*
X107618915Y-111599999D01*
X107685954Y-111619684D01*
X107731709Y-111672488D01*
X107741653Y-111741646D01*
X107712628Y-111805202D01*
X107695077Y-111821852D01*
X107565602Y-111922626D01*
X107565592Y-111922635D01*
X107397232Y-112105521D01*
X107261267Y-112313632D01*
X107161412Y-112541282D01*
X107100387Y-112782261D01*
X107100385Y-112782270D01*
X107079858Y-113029994D01*
X107079858Y-113030005D01*
X107100385Y-113277729D01*
X107100387Y-113277738D01*
X107161412Y-113518717D01*
X107261267Y-113746367D01*
X107397232Y-113954478D01*
X107565592Y-114137364D01*
X107565602Y-114137373D01*
X107761762Y-114290051D01*
X107761771Y-114290057D01*
X107847489Y-114336445D01*
X107897080Y-114385664D01*
X107912188Y-114453881D01*
X107888018Y-114519437D01*
X107832242Y-114561518D01*
X107788472Y-114569500D01*
X105875783Y-114569500D01*
X105808744Y-114549815D01*
X105788102Y-114533181D01*
X104409342Y-113154422D01*
X104375857Y-113093099D01*
X104373447Y-113056499D01*
X104375643Y-113030003D01*
X104375643Y-113029995D01*
X104355109Y-112782187D01*
X104355107Y-112782175D01*
X104294063Y-112541118D01*
X104194173Y-112313393D01*
X104058166Y-112105217D01*
X103970342Y-112009815D01*
X103889744Y-111922262D01*
X103693509Y-111769526D01*
X103693508Y-111769525D01*
X103693505Y-111769523D01*
X103693503Y-111769522D01*
X103478288Y-111653054D01*
X103428697Y-111603834D01*
X103413589Y-111535618D01*
X103437759Y-111470062D01*
X103493535Y-111427981D01*
X103537305Y-111419999D01*
X103924974Y-111419999D01*
X103924988Y-111419998D01*
X104027699Y-111409505D01*
X104194120Y-111354359D01*
X104194125Y-111354357D01*
X104343346Y-111262316D01*
X104467316Y-111138346D01*
X104559357Y-110989125D01*
X104559359Y-110989120D01*
X104614505Y-110822698D01*
X104625000Y-110719978D01*
X104624999Y-110719975D01*
X104624999Y-104720028D01*
X104624998Y-104720012D01*
X104614827Y-104620448D01*
X104614741Y-104618761D01*
X104614505Y-104617300D01*
X104559359Y-104450879D01*
X104559357Y-104450874D01*
X104467316Y-104301653D01*
X104343346Y-104177683D01*
X104194125Y-104085642D01*
X104194120Y-104085640D01*
X104027698Y-104030494D01*
X103924988Y-104020000D01*
X98524608Y-104020000D01*
X98523183Y-104020188D01*
X98422300Y-104030494D01*
X98255879Y-104085640D01*
X98255874Y-104085642D01*
X98106653Y-104177683D01*
X97982683Y-104301653D01*
X97890642Y-104450874D01*
X97890640Y-104450879D01*
X97835494Y-104617301D01*
X97825000Y-104720011D01*
X97825000Y-110720040D01*
X97825069Y-110720652D01*
X97835494Y-110822699D01*
X97890640Y-110989120D01*
X97890642Y-110989125D01*
X97982683Y-111138346D01*
X98106653Y-111262316D01*
X98255874Y-111354357D01*
X98255879Y-111354359D01*
X98422302Y-111409506D01*
X98422300Y-111409506D01*
X98481134Y-111415516D01*
X98492124Y-111420000D01*
X98521858Y-111420000D01*
X98528163Y-111420321D01*
X98538462Y-111421373D01*
X98546419Y-111420000D01*
X98576375Y-111420000D01*
X98576384Y-111419999D01*
X99663747Y-111419999D01*
X99730786Y-111439684D01*
X99776541Y-111492488D01*
X99786485Y-111561646D01*
X99757460Y-111625202D01*
X99722764Y-111653054D01*
X99506771Y-111769942D01*
X99506762Y-111769948D01*
X99310602Y-111922626D01*
X99310592Y-111922635D01*
X99142232Y-112105521D01*
X99006267Y-112313632D01*
X98906412Y-112541282D01*
X98845387Y-112782261D01*
X98845385Y-112782270D01*
X98824858Y-113029994D01*
X98824858Y-113030005D01*
X98845385Y-113277729D01*
X98845387Y-113277738D01*
X98906412Y-113518717D01*
X99006267Y-113746367D01*
X99142232Y-113954478D01*
X99310592Y-114137364D01*
X99310602Y-114137373D01*
X99506762Y-114290051D01*
X99506771Y-114290057D01*
X99725385Y-114408364D01*
X99725396Y-114408369D01*
X99960506Y-114489083D01*
X100205707Y-114530000D01*
X100454293Y-114530000D01*
X100699493Y-114489083D01*
X100934603Y-114408369D01*
X100934614Y-114408364D01*
X101153228Y-114290057D01*
X101153237Y-114290051D01*
X101349397Y-114137373D01*
X101349401Y-114137370D01*
X101508430Y-113964620D01*
X101568318Y-113928629D01*
X101638156Y-113930730D01*
X101690889Y-113964619D01*
X101850256Y-114137738D01*
X102046491Y-114290474D01*
X102087498Y-114312666D01*
X102264332Y-114408364D01*
X102265190Y-114408828D01*
X102374290Y-114446282D01*
X102498964Y-114489083D01*
X102500386Y-114489571D01*
X102745665Y-114530500D01*
X102904217Y-114530500D01*
X102971256Y-114550185D01*
X102991898Y-114566819D01*
X104693005Y-116267926D01*
X104694070Y-116269017D01*
X104729246Y-116306022D01*
X104754939Y-116333051D01*
X104754945Y-116333056D01*
X104805295Y-116368101D01*
X104809047Y-116370929D01*
X104856592Y-116409697D01*
X104856595Y-116409698D01*
X104856597Y-116409700D01*
X104887039Y-116425601D01*
X104893753Y-116429668D01*
X104921947Y-116449292D01*
X104921953Y-116449296D01*
X104978331Y-116473490D01*
X104982569Y-116475502D01*
X105036951Y-116503909D01*
X105069973Y-116513356D01*
X105077365Y-116515989D01*
X105108940Y-116529539D01*
X105108941Y-116529540D01*
X105122054Y-116532234D01*
X105169055Y-116541892D01*
X105173595Y-116543006D01*
X105232582Y-116559886D01*
X105266841Y-116562494D01*
X105274609Y-116563585D01*
X105308255Y-116570500D01*
X105308259Y-116570500D01*
X105369601Y-116570500D01*
X105374308Y-116570678D01*
X105397500Y-116572445D01*
X105435475Y-116575337D01*
X105435475Y-116575336D01*
X105435476Y-116575337D01*
X105469559Y-116570996D01*
X105477389Y-116570500D01*
X110134259Y-116570500D01*
X110222507Y-116570500D01*
X110224069Y-116570519D01*
X110272487Y-116571746D01*
X110312360Y-116572757D01*
X110312361Y-116572757D01*
X110312361Y-116572756D01*
X110312363Y-116572757D01*
X110313410Y-116572569D01*
X110314105Y-116572445D01*
X110335979Y-116570500D01*
X111150259Y-116570500D01*
X111211601Y-116570500D01*
X111216308Y-116570678D01*
X111239500Y-116572445D01*
X111277475Y-116575337D01*
X111277475Y-116575336D01*
X111277476Y-116575337D01*
X111311559Y-116570996D01*
X111319389Y-116570500D01*
X111912259Y-116570500D01*
X111973598Y-116570500D01*
X111978304Y-116570678D01*
X112005595Y-116572757D01*
X112039475Y-116575337D01*
X112039475Y-116575336D01*
X112039476Y-116575337D01*
X112073559Y-116570996D01*
X112081389Y-116570500D01*
X118262259Y-116570500D01*
X119112507Y-116570500D01*
X119114069Y-116570519D01*
X119162487Y-116571746D01*
X119202360Y-116572757D01*
X119202361Y-116572757D01*
X119202361Y-116572756D01*
X119202363Y-116572757D01*
X119203410Y-116572569D01*
X119204105Y-116572445D01*
X119225979Y-116570500D01*
X120294259Y-116570500D01*
X120355601Y-116570500D01*
X120360308Y-116570678D01*
X120383500Y-116572445D01*
X120421475Y-116575337D01*
X120421475Y-116575336D01*
X120421476Y-116575337D01*
X120455559Y-116570996D01*
X120463389Y-116570500D01*
X121056259Y-116570500D01*
X121117598Y-116570500D01*
X121122304Y-116570678D01*
X121149595Y-116572757D01*
X121183475Y-116575337D01*
X121183475Y-116575336D01*
X121183476Y-116575337D01*
X121217559Y-116570996D01*
X121225389Y-116570500D01*
X126644259Y-116570500D01*
X126986507Y-116570500D01*
X126988069Y-116570519D01*
X127036487Y-116571746D01*
X127076360Y-116572757D01*
X127076361Y-116572757D01*
X127076361Y-116572756D01*
X127076363Y-116572757D01*
X127077410Y-116572569D01*
X127078105Y-116572445D01*
X127099979Y-116570500D01*
X128422259Y-116570500D01*
X128483601Y-116570500D01*
X128488308Y-116570678D01*
X128511500Y-116572445D01*
X128549475Y-116575337D01*
X128549475Y-116575336D01*
X128549476Y-116575337D01*
X128583559Y-116570996D01*
X128591389Y-116570500D01*
X129438259Y-116570500D01*
X129499601Y-116570500D01*
X129504308Y-116570678D01*
X129527500Y-116572445D01*
X129565475Y-116575337D01*
X129565475Y-116575336D01*
X129565476Y-116575337D01*
X129599559Y-116570996D01*
X129607389Y-116570500D01*
X136550259Y-116570500D01*
X136638507Y-116570500D01*
X136640069Y-116570519D01*
X136688487Y-116571746D01*
X136728360Y-116572757D01*
X136728361Y-116572757D01*
X136728361Y-116572756D01*
X136728363Y-116572757D01*
X136729410Y-116572569D01*
X136730105Y-116572445D01*
X136751979Y-116570500D01*
X138328259Y-116570500D01*
X138389601Y-116570500D01*
X138394308Y-116570678D01*
X138417500Y-116572445D01*
X138455475Y-116575337D01*
X138455475Y-116575336D01*
X138455476Y-116575337D01*
X138489559Y-116570996D01*
X138497389Y-116570500D01*
X138836259Y-116570500D01*
X138897601Y-116570500D01*
X138902308Y-116570678D01*
X138925500Y-116572445D01*
X138963475Y-116575337D01*
X138963475Y-116575336D01*
X138963476Y-116575337D01*
X138997559Y-116570996D01*
X139005389Y-116570500D01*
X147726259Y-116570500D01*
X147787601Y-116570500D01*
X147792308Y-116570678D01*
X147815500Y-116572445D01*
X147853475Y-116575337D01*
X147853475Y-116575336D01*
X147853476Y-116575337D01*
X147887559Y-116570996D01*
X147895389Y-116570500D01*
X153910507Y-116570500D01*
X153912069Y-116570519D01*
X153949283Y-116571462D01*
X154000358Y-116572757D01*
X154000358Y-116572756D01*
X154000363Y-116572757D01*
X154060753Y-116561932D01*
X154065412Y-116561280D01*
X154107607Y-116556988D01*
X154126438Y-116555074D01*
X154159227Y-116544786D01*
X154166840Y-116542918D01*
X154200653Y-116536858D01*
X154257621Y-116514101D01*
X154262053Y-116512524D01*
X154320588Y-116494159D01*
X154350627Y-116477484D01*
X154357708Y-116474122D01*
X154389617Y-116461377D01*
X154440854Y-116427608D01*
X154444851Y-116425187D01*
X154498502Y-116395409D01*
X154524568Y-116373030D01*
X154530843Y-116368300D01*
X154559519Y-116349402D01*
X154559518Y-116349402D01*
X154602923Y-116305995D01*
X154606327Y-116302841D01*
X154652895Y-116262866D01*
X154673928Y-116235691D01*
X154679098Y-116229821D01*
X155637982Y-115270936D01*
X155638995Y-115269949D01*
X155703053Y-115209059D01*
X155738099Y-115158706D01*
X155740938Y-115154941D01*
X155744612Y-115150435D01*
X155779698Y-115107407D01*
X155795601Y-115076960D01*
X155799674Y-115070239D01*
X155804489Y-115063320D01*
X155819295Y-115042049D01*
X155843492Y-114985660D01*
X155845498Y-114981435D01*
X155873909Y-114927049D01*
X155883360Y-114894015D01*
X155885991Y-114886628D01*
X155899540Y-114855058D01*
X155911893Y-114794940D01*
X155913006Y-114790412D01*
X155929887Y-114731418D01*
X155932495Y-114697155D01*
X155933587Y-114689376D01*
X155940500Y-114655739D01*
X155940500Y-114594401D01*
X155940679Y-114589692D01*
X155945337Y-114528526D01*
X155940997Y-114494442D01*
X155940500Y-114486603D01*
X155940500Y-114207027D01*
X155960185Y-114139988D01*
X155973271Y-114123044D01*
X156021626Y-114070517D01*
X156081513Y-114034526D01*
X156112855Y-114030500D01*
X157320049Y-114030500D01*
X157387088Y-114050185D01*
X157432843Y-114102989D01*
X157442787Y-114172147D01*
X157427240Y-114213327D01*
X157428708Y-114214122D01*
X157426269Y-114218627D01*
X157326412Y-114446282D01*
X157265387Y-114687261D01*
X157265385Y-114687270D01*
X157244859Y-114934994D01*
X157244859Y-114935005D01*
X157265385Y-115182729D01*
X157265387Y-115182738D01*
X157326412Y-115423717D01*
X157426267Y-115651367D01*
X157562232Y-115859478D01*
X157730592Y-116042364D01*
X157730602Y-116042373D01*
X157926762Y-116195051D01*
X157926771Y-116195057D01*
X158145385Y-116313364D01*
X158145396Y-116313369D01*
X158380506Y-116394083D01*
X158625707Y-116435000D01*
X158874293Y-116435000D01*
X159119493Y-116394083D01*
X159354603Y-116313369D01*
X159354614Y-116313364D01*
X159573228Y-116195057D01*
X159573237Y-116195051D01*
X159769397Y-116042373D01*
X159769407Y-116042364D01*
X159937767Y-115859478D01*
X160073732Y-115651367D01*
X160173587Y-115423717D01*
X160234612Y-115182738D01*
X160234614Y-115182729D01*
X160255141Y-114935005D01*
X160255141Y-114934994D01*
X160234614Y-114687270D01*
X160234612Y-114687261D01*
X160173587Y-114446282D01*
X160073732Y-114218632D01*
X159937767Y-114010521D01*
X159769407Y-113827635D01*
X159769397Y-113827626D01*
X159686584Y-113763170D01*
X159645771Y-113706460D01*
X159642096Y-113636687D01*
X159676728Y-113576004D01*
X159686571Y-113567473D01*
X159769744Y-113502738D01*
X159938164Y-113319785D01*
X160074173Y-113111607D01*
X160174063Y-112883881D01*
X160235108Y-112642821D01*
X160235109Y-112642812D01*
X160255643Y-112395005D01*
X160255643Y-112394994D01*
X160235109Y-112147187D01*
X160235107Y-112147175D01*
X160174063Y-111906118D01*
X160074173Y-111678393D01*
X159938166Y-111470217D01*
X159882277Y-111409506D01*
X159769744Y-111287262D01*
X159573509Y-111134526D01*
X159573507Y-111134525D01*
X159573506Y-111134524D01*
X159354811Y-111016172D01*
X159354802Y-111016169D01*
X159119616Y-110935429D01*
X158874335Y-110894500D01*
X158625665Y-110894500D01*
X158380383Y-110935429D01*
X158145197Y-111016169D01*
X158140492Y-111018233D01*
X158139715Y-111016463D01*
X158079528Y-111029304D01*
X158014162Y-111004624D01*
X157972516Y-110948523D01*
X157965615Y-110903138D01*
X157965000Y-110903138D01*
X157964999Y-107553023D01*
X157964999Y-104900028D01*
X157964998Y-104900012D01*
X157954827Y-104800448D01*
X157954741Y-104798761D01*
X157954505Y-104797300D01*
X157922850Y-104701771D01*
X157920448Y-104631943D01*
X157956180Y-104571901D01*
X158018700Y-104540708D01*
X158088160Y-104548269D01*
X158097961Y-104552855D01*
X158122951Y-104565909D01*
X158143893Y-104571901D01*
X158155974Y-104575358D01*
X158163368Y-104577990D01*
X158194942Y-104591540D01*
X158194945Y-104591540D01*
X158194946Y-104591541D01*
X158255022Y-104603887D01*
X158259600Y-104605010D01*
X158273501Y-104608987D01*
X158318582Y-104621887D01*
X158352839Y-104624495D01*
X158360614Y-104625586D01*
X158394255Y-104632500D01*
X158394259Y-104632500D01*
X158455599Y-104632500D01*
X158460305Y-104632678D01*
X158487596Y-104634757D01*
X158521476Y-104637337D01*
X158521476Y-104637336D01*
X158521477Y-104637337D01*
X158555560Y-104632996D01*
X158563390Y-104632500D01*
X159931000Y-104632500D01*
X159998039Y-104652185D01*
X160043794Y-104704989D01*
X160055000Y-104756500D01*
X160055000Y-110720040D01*
X160055069Y-110720652D01*
X160065494Y-110822699D01*
X160120640Y-110989120D01*
X160120642Y-110989125D01*
X160212683Y-111138346D01*
X160336653Y-111262316D01*
X160485874Y-111354357D01*
X160485879Y-111354359D01*
X160652302Y-111409506D01*
X160652300Y-111409506D01*
X160711134Y-111415516D01*
X160722124Y-111420000D01*
X160751858Y-111420000D01*
X160758163Y-111420321D01*
X160768462Y-111421373D01*
X160776419Y-111420000D01*
X160806375Y-111420000D01*
X160806384Y-111419999D01*
X166154973Y-111419999D01*
X166154988Y-111419998D01*
X166257699Y-111409505D01*
X166424120Y-111354359D01*
X166424125Y-111354357D01*
X166573346Y-111262316D01*
X166697316Y-111138346D01*
X166789357Y-110989125D01*
X166789359Y-110989120D01*
X166844505Y-110822698D01*
X166855000Y-110719978D01*
X166854999Y-110719975D01*
X166854999Y-104720028D01*
X166854998Y-104720012D01*
X166844827Y-104620448D01*
X166844741Y-104618761D01*
X166844505Y-104617300D01*
X166789359Y-104450879D01*
X166789357Y-104450874D01*
X166697316Y-104301653D01*
X166573344Y-104177681D01*
X166497400Y-104130838D01*
X166450676Y-104078890D01*
X166439455Y-104009927D01*
X166467298Y-103945845D01*
X166482782Y-103930319D01*
X166584758Y-103844751D01*
X166648764Y-103816741D01*
X166717756Y-103827780D01*
X166752142Y-103852062D01*
X167619181Y-104719101D01*
X167652666Y-104780424D01*
X167655500Y-104806782D01*
X167655500Y-109524742D01*
X167663010Y-109598597D01*
X167663182Y-109600283D01*
X167663500Y-109606560D01*
X167663500Y-111441077D01*
X167678890Y-111626813D01*
X167678892Y-111626824D01*
X167739936Y-111867881D01*
X167839826Y-112095606D01*
X167975833Y-112303782D01*
X167975836Y-112303785D01*
X168144256Y-112486738D01*
X168340491Y-112639474D01*
X168559190Y-112757828D01*
X168794386Y-112838571D01*
X169039665Y-112879500D01*
X169288335Y-112879500D01*
X169533614Y-112838571D01*
X169768810Y-112757828D01*
X169987509Y-112639474D01*
X170183744Y-112486738D01*
X170352164Y-112303785D01*
X170488173Y-112095607D01*
X170588063Y-111867881D01*
X170649108Y-111626821D01*
X170649700Y-111619684D01*
X170660239Y-111492487D01*
X170664500Y-111441067D01*
X170664500Y-110071780D01*
X170667038Y-110046818D01*
X170672500Y-110020240D01*
X170672500Y-108788991D01*
X170672520Y-108787421D01*
X170674757Y-108699141D01*
X170674756Y-108699140D01*
X170674757Y-108699137D01*
X170663933Y-108638749D01*
X170663280Y-108634087D01*
X170657074Y-108573063D01*
X170657074Y-108573062D01*
X170646784Y-108540268D01*
X170644917Y-108532655D01*
X170638858Y-108498848D01*
X170638858Y-108498847D01*
X170616095Y-108441861D01*
X170614527Y-108437455D01*
X170605367Y-108408260D01*
X170596161Y-108378916D01*
X170596160Y-108378914D01*
X170579492Y-108348885D01*
X170576124Y-108341795D01*
X170563378Y-108309883D01*
X170529612Y-108258650D01*
X170527183Y-108254642D01*
X170497409Y-108200998D01*
X170475034Y-108174934D01*
X170470306Y-108168663D01*
X170451404Y-108139984D01*
X170451399Y-108139978D01*
X170429715Y-108118295D01*
X170408019Y-108096599D01*
X170404828Y-108093155D01*
X170364865Y-108046604D01*
X170337694Y-108025572D01*
X170331807Y-108020387D01*
X169692818Y-107381398D01*
X169659333Y-107320075D01*
X169656499Y-107293726D01*
X169656499Y-104354492D01*
X169656519Y-104352922D01*
X169658757Y-104264641D01*
X169658756Y-104264640D01*
X169658757Y-104264637D01*
X169647933Y-104204249D01*
X169647280Y-104199587D01*
X169641074Y-104138563D01*
X169641017Y-104138380D01*
X169630784Y-104105768D01*
X169628917Y-104098155D01*
X169626674Y-104085642D01*
X169622858Y-104064347D01*
X169600095Y-104007361D01*
X169598527Y-104002955D01*
X169580609Y-103945845D01*
X169580161Y-103944416D01*
X169580160Y-103944414D01*
X169563492Y-103914385D01*
X169560124Y-103907295D01*
X169547378Y-103875383D01*
X169513612Y-103824150D01*
X169511183Y-103820142D01*
X169481409Y-103766498D01*
X169459034Y-103740434D01*
X169454306Y-103734163D01*
X169435404Y-103705484D01*
X169435399Y-103705478D01*
X169413715Y-103683795D01*
X169392019Y-103662099D01*
X169388828Y-103658655D01*
X169348865Y-103612104D01*
X169321694Y-103591072D01*
X169315807Y-103585887D01*
X167622197Y-101892276D01*
X167588712Y-101830954D01*
X167586088Y-101797385D01*
X167592500Y-101687306D01*
X167592500Y-101258693D01*
X167590214Y-101219452D01*
X167577262Y-100997073D01*
X167575172Y-100985221D01*
X167516571Y-100652872D01*
X167516569Y-100652865D01*
X167515905Y-100650647D01*
X167416326Y-100318029D01*
X167277889Y-99997096D01*
X167113471Y-99712315D01*
X167103129Y-99694402D01*
X166894415Y-99414050D01*
X166894410Y-99414044D01*
X166769306Y-99281442D01*
X166737618Y-99219171D01*
X166735500Y-99196348D01*
X166735500Y-98340757D01*
X166741794Y-98301753D01*
X166777936Y-98192685D01*
X166788000Y-98094174D01*
X166788000Y-97485826D01*
X166777936Y-97387315D01*
X166725049Y-97227713D01*
X166725045Y-97227707D01*
X166725044Y-97227704D01*
X166636783Y-97084612D01*
X166636780Y-97084608D01*
X166517891Y-96965719D01*
X166517887Y-96965716D01*
X166374795Y-96877455D01*
X166374789Y-96877452D01*
X166374787Y-96877451D01*
X166215185Y-96824564D01*
X166215183Y-96824563D01*
X166116681Y-96814500D01*
X166116674Y-96814500D01*
X165974774Y-96814500D01*
X165943694Y-96810542D01*
X165887287Y-96795937D01*
X165751804Y-96789066D01*
X165684064Y-96785631D01*
X165684063Y-96785631D01*
X165684061Y-96785631D01*
X165482936Y-96816442D01*
X165482924Y-96816445D01*
X165292118Y-96887111D01*
X165292111Y-96887115D01*
X165114092Y-96998074D01*
X165112860Y-96996097D01*
X165057539Y-97017734D01*
X164989040Y-97003963D01*
X164959058Y-96981886D01*
X164942890Y-96965718D01*
X164860581Y-96914949D01*
X164813857Y-96863001D01*
X164802636Y-96794038D01*
X164830479Y-96729956D01*
X164885413Y-96692131D01*
X165069810Y-96628828D01*
X165288509Y-96510474D01*
X165484744Y-96357738D01*
X165653164Y-96174785D01*
X165789173Y-95966607D01*
X165889063Y-95738881D01*
X165950108Y-95497821D01*
X165970643Y-95250000D01*
X165950108Y-95002179D01*
X165950107Y-95002175D01*
X165889063Y-94761118D01*
X165789173Y-94533393D01*
X165653166Y-94325217D01*
X165631557Y-94301744D01*
X165484744Y-94142262D01*
X165288509Y-93989526D01*
X165288507Y-93989525D01*
X165288506Y-93989524D01*
X165069811Y-93871172D01*
X165069802Y-93871169D01*
X164834616Y-93790429D01*
X164589335Y-93749500D01*
X164340665Y-93749500D01*
X164095383Y-93790429D01*
X163860197Y-93871169D01*
X163860188Y-93871172D01*
X163641493Y-93989524D01*
X163445255Y-94142262D01*
X163445252Y-94142265D01*
X163285889Y-94315379D01*
X163226002Y-94351370D01*
X163156164Y-94349269D01*
X163103431Y-94315379D01*
X162944407Y-94142635D01*
X162944397Y-94142626D01*
X162748237Y-93989948D01*
X162748228Y-93989942D01*
X162529614Y-93871635D01*
X162529603Y-93871630D01*
X162294493Y-93790916D01*
X162049293Y-93750000D01*
X161800707Y-93750000D01*
X161555506Y-93790916D01*
X161320396Y-93871630D01*
X161320385Y-93871635D01*
X161101771Y-93989942D01*
X161101762Y-93989948D01*
X160905602Y-94142626D01*
X160905592Y-94142635D01*
X160737232Y-94325521D01*
X160601267Y-94533632D01*
X160501412Y-94761282D01*
X160440387Y-95002261D01*
X160440385Y-95002270D01*
X160419859Y-95249994D01*
X160419859Y-95250005D01*
X160440385Y-95497729D01*
X160440387Y-95497738D01*
X160501412Y-95738717D01*
X160601267Y-95966367D01*
X160737229Y-96174474D01*
X160785444Y-96226849D01*
X160816366Y-96289504D01*
X160808506Y-96358930D01*
X160781895Y-96398513D01*
X160402229Y-96778181D01*
X160340906Y-96811666D01*
X160314548Y-96814500D01*
X160018384Y-96814500D01*
X159999144Y-96816248D01*
X159947807Y-96820913D01*
X159785393Y-96871522D01*
X159639811Y-96959530D01*
X159519530Y-97079811D01*
X159431522Y-97225393D01*
X159380913Y-97387807D01*
X159374500Y-97458386D01*
X159374500Y-98121613D01*
X159380913Y-98192192D01*
X159380913Y-98192194D01*
X159380914Y-98192196D01*
X159431522Y-98354606D01*
X159519528Y-98500185D01*
X159613182Y-98593839D01*
X159646666Y-98655160D01*
X159649500Y-98681519D01*
X159649500Y-100437255D01*
X159647775Y-100452872D01*
X159648061Y-100452899D01*
X159647326Y-100460666D01*
X159649469Y-100528846D01*
X159649500Y-100530793D01*
X159649500Y-100559343D01*
X159649501Y-100559360D01*
X159650368Y-100566231D01*
X159650826Y-100572050D01*
X159652290Y-100618624D01*
X159652291Y-100618627D01*
X159657880Y-100637867D01*
X159661824Y-100656911D01*
X159664336Y-100676792D01*
X159680027Y-100716424D01*
X159681490Y-100720119D01*
X159683382Y-100725647D01*
X159695570Y-100767597D01*
X159696382Y-100770390D01*
X159705863Y-100786423D01*
X159706580Y-100787634D01*
X159715136Y-100805100D01*
X159722514Y-100823732D01*
X159739359Y-100846918D01*
X159749898Y-100861423D01*
X159753106Y-100866307D01*
X159776827Y-100906416D01*
X159776833Y-100906424D01*
X159790990Y-100920580D01*
X159803628Y-100935376D01*
X159815405Y-100951586D01*
X159815406Y-100951587D01*
X159851309Y-100981288D01*
X159855620Y-100985210D01*
X159950984Y-101080574D01*
X160038181Y-101167771D01*
X160071666Y-101229094D01*
X160074500Y-101255452D01*
X160074500Y-102320001D01*
X160074501Y-102320018D01*
X160085000Y-102422796D01*
X160085001Y-102422799D01*
X160100144Y-102468496D01*
X160102546Y-102538324D01*
X160066814Y-102598366D01*
X160004294Y-102629559D01*
X159982438Y-102631500D01*
X158961782Y-102631500D01*
X158894743Y-102611815D01*
X158874101Y-102595181D01*
X157981818Y-101702898D01*
X157948333Y-101641575D01*
X157945499Y-101615217D01*
X157945499Y-100699998D01*
X157945498Y-100699981D01*
X157934999Y-100597203D01*
X157934998Y-100597200D01*
X157926664Y-100572050D01*
X157879814Y-100430666D01*
X157787712Y-100281344D01*
X157663656Y-100157288D01*
X157529402Y-100074480D01*
X157482679Y-100022533D01*
X157470500Y-99968942D01*
X157470500Y-98803698D01*
X157490185Y-98736659D01*
X157529400Y-98698161D01*
X157665391Y-98614281D01*
X157784281Y-98495391D01*
X157872549Y-98352287D01*
X157925436Y-98192685D01*
X157935500Y-98094174D01*
X157935500Y-97485826D01*
X157925436Y-97387315D01*
X157872549Y-97227713D01*
X157872545Y-97227707D01*
X157872544Y-97227704D01*
X157784283Y-97084612D01*
X157784280Y-97084608D01*
X157665391Y-96965719D01*
X157665387Y-96965716D01*
X157522295Y-96877455D01*
X157522289Y-96877452D01*
X157522287Y-96877451D01*
X157362685Y-96824564D01*
X157362683Y-96824563D01*
X157264181Y-96814500D01*
X157264174Y-96814500D01*
X156730826Y-96814500D01*
X156730818Y-96814500D01*
X156632316Y-96824563D01*
X156632315Y-96824564D01*
X156602720Y-96834371D01*
X156472715Y-96877450D01*
X156472704Y-96877455D01*
X156329612Y-96965716D01*
X156329608Y-96965719D01*
X156297681Y-96997647D01*
X156236358Y-97031132D01*
X156166666Y-97026148D01*
X156122319Y-96997647D01*
X156090391Y-96965719D01*
X156090387Y-96965716D01*
X155994674Y-96906679D01*
X155947949Y-96854731D01*
X155936728Y-96785769D01*
X155964571Y-96721687D01*
X156019508Y-96683860D01*
X156097497Y-96657086D01*
X156179810Y-96628828D01*
X156398509Y-96510474D01*
X156594744Y-96357738D01*
X156763164Y-96174785D01*
X156899173Y-95966607D01*
X156999063Y-95738881D01*
X157060108Y-95497821D01*
X157080643Y-95250000D01*
X157060108Y-95002179D01*
X157060107Y-95002175D01*
X156999063Y-94761118D01*
X156899173Y-94533393D01*
X156763166Y-94325217D01*
X156741557Y-94301744D01*
X156594744Y-94142262D01*
X156398509Y-93989526D01*
X156398507Y-93989525D01*
X156398506Y-93989524D01*
X156179811Y-93871172D01*
X156179802Y-93871169D01*
X155944616Y-93790429D01*
X155699335Y-93749500D01*
X155450665Y-93749500D01*
X155205383Y-93790429D01*
X154970197Y-93871169D01*
X154970188Y-93871172D01*
X154751493Y-93989524D01*
X154555255Y-94142262D01*
X154555252Y-94142265D01*
X154395889Y-94315379D01*
X154336002Y-94351370D01*
X154266164Y-94349269D01*
X154213431Y-94315379D01*
X154054407Y-94142635D01*
X154054397Y-94142626D01*
X153858237Y-93989948D01*
X153858228Y-93989942D01*
X153639614Y-93871635D01*
X153639603Y-93871630D01*
X153404493Y-93790916D01*
X153159293Y-93750000D01*
X152910707Y-93750000D01*
X152665506Y-93790916D01*
X152430396Y-93871630D01*
X152430385Y-93871635D01*
X152211771Y-93989942D01*
X152211762Y-93989948D01*
X152015602Y-94142626D01*
X152015592Y-94142635D01*
X151847232Y-94325521D01*
X151711267Y-94533632D01*
X151611412Y-94761282D01*
X151550387Y-95002261D01*
X151550385Y-95002270D01*
X151529859Y-95249994D01*
X151529859Y-95250005D01*
X151550385Y-95497729D01*
X151550387Y-95497738D01*
X151611412Y-95738717D01*
X151711267Y-95966367D01*
X151847232Y-96174477D01*
X151913418Y-96246374D01*
X151944341Y-96309028D01*
X151936481Y-96378454D01*
X151909870Y-96418038D01*
X151549729Y-96778181D01*
X151488406Y-96811666D01*
X151462048Y-96814500D01*
X151165884Y-96814500D01*
X151146645Y-96816248D01*
X151095307Y-96820913D01*
X150932893Y-96871522D01*
X150787311Y-96959530D01*
X150667030Y-97079811D01*
X150579022Y-97225393D01*
X150528413Y-97387807D01*
X150522000Y-97458386D01*
X150522000Y-98121613D01*
X150528413Y-98192192D01*
X150528413Y-98192194D01*
X150528414Y-98192196D01*
X150579022Y-98354606D01*
X150667028Y-98500185D01*
X150723182Y-98556339D01*
X150756666Y-98617660D01*
X150759500Y-98644019D01*
X150759500Y-100617255D01*
X150757775Y-100632872D01*
X150758061Y-100632899D01*
X150757326Y-100640666D01*
X150759469Y-100708846D01*
X150759500Y-100710793D01*
X150759500Y-100739343D01*
X150759501Y-100739360D01*
X150760368Y-100746231D01*
X150760826Y-100752050D01*
X150762290Y-100798624D01*
X150762291Y-100798627D01*
X150767880Y-100817867D01*
X150771824Y-100836911D01*
X150774336Y-100856792D01*
X150780275Y-100871792D01*
X150791490Y-100900119D01*
X150793382Y-100905647D01*
X150802019Y-100935376D01*
X150806382Y-100950390D01*
X150815251Y-100965388D01*
X150816580Y-100967634D01*
X150825136Y-100985100D01*
X150828888Y-100994574D01*
X150832514Y-101003732D01*
X150859898Y-101041423D01*
X150863106Y-101046307D01*
X150886827Y-101086416D01*
X150886833Y-101086424D01*
X150900990Y-101100580D01*
X150913627Y-101115375D01*
X150916261Y-101119000D01*
X150925405Y-101131586D01*
X150925406Y-101131587D01*
X150961309Y-101161288D01*
X150965620Y-101165210D01*
X151057506Y-101257096D01*
X151148181Y-101347771D01*
X151181666Y-101409094D01*
X151184500Y-101435452D01*
X151184500Y-102226217D01*
X151164815Y-102293256D01*
X151112011Y-102339011D01*
X151042853Y-102348955D01*
X150979297Y-102319930D01*
X150972819Y-102313898D01*
X149561011Y-100902091D01*
X149559914Y-100900966D01*
X149499061Y-100836949D01*
X149499060Y-100836948D01*
X149499059Y-100836947D01*
X149465550Y-100813624D01*
X149448709Y-100801902D01*
X149444946Y-100799064D01*
X149397413Y-100760305D01*
X149397406Y-100760300D01*
X149366959Y-100744397D01*
X149360251Y-100740334D01*
X149332049Y-100720705D01*
X149332046Y-100720703D01*
X149332045Y-100720703D01*
X149332041Y-100720701D01*
X149275680Y-100696514D01*
X149271424Y-100694493D01*
X149217057Y-100666094D01*
X149217050Y-100666091D01*
X149217049Y-100666091D01*
X149211008Y-100664362D01*
X149184030Y-100656642D01*
X149176630Y-100654008D01*
X149145057Y-100640459D01*
X149123268Y-100635981D01*
X149061564Y-100603204D01*
X149030525Y-100553524D01*
X148989814Y-100430666D01*
X148897712Y-100281344D01*
X148773656Y-100157288D01*
X148639402Y-100074480D01*
X148592679Y-100022533D01*
X148580500Y-99968942D01*
X148580500Y-98859783D01*
X148600185Y-98792744D01*
X148652989Y-98746989D01*
X148665482Y-98742082D01*
X148784787Y-98702549D01*
X148927891Y-98614281D01*
X149046781Y-98495391D01*
X149135049Y-98352287D01*
X149187936Y-98192685D01*
X149198000Y-98094174D01*
X149198000Y-97485826D01*
X149187936Y-97387315D01*
X149135049Y-97227713D01*
X149135045Y-97227707D01*
X149135044Y-97227704D01*
X149046783Y-97084612D01*
X149046780Y-97084608D01*
X148927891Y-96965719D01*
X148927887Y-96965716D01*
X148784795Y-96877455D01*
X148784789Y-96877452D01*
X148784787Y-96877451D01*
X148625185Y-96824564D01*
X148625183Y-96824563D01*
X148526681Y-96814500D01*
X148526674Y-96814500D01*
X147993326Y-96814500D01*
X147993318Y-96814500D01*
X147894816Y-96824563D01*
X147894815Y-96824564D01*
X147865220Y-96834371D01*
X147735215Y-96877450D01*
X147735204Y-96877455D01*
X147592112Y-96965716D01*
X147592107Y-96965719D01*
X147560179Y-96997648D01*
X147498855Y-97031133D01*
X147429164Y-97026147D01*
X147384819Y-96997647D01*
X147352891Y-96965719D01*
X147352890Y-96965718D01*
X147352887Y-96965716D01*
X147209795Y-96877455D01*
X147209789Y-96877452D01*
X147209787Y-96877451D01*
X147050185Y-96824564D01*
X147050183Y-96824563D01*
X146951681Y-96814500D01*
X146951674Y-96814500D01*
X146801384Y-96814500D01*
X146734345Y-96794815D01*
X146688590Y-96742011D01*
X146678646Y-96672853D01*
X146707671Y-96609297D01*
X146742366Y-96581445D01*
X146873509Y-96510474D01*
X147069744Y-96357738D01*
X147238164Y-96174785D01*
X147374173Y-95966607D01*
X147474063Y-95738881D01*
X147535108Y-95497821D01*
X147555643Y-95250000D01*
X147535108Y-95002179D01*
X147535107Y-95002175D01*
X147474063Y-94761118D01*
X147374173Y-94533393D01*
X147238166Y-94325217D01*
X147216557Y-94301744D01*
X147069744Y-94142262D01*
X146873509Y-93989526D01*
X146873507Y-93989525D01*
X146873506Y-93989524D01*
X146654811Y-93871172D01*
X146654802Y-93871169D01*
X146419616Y-93790429D01*
X146174335Y-93749500D01*
X145925665Y-93749500D01*
X145680383Y-93790429D01*
X145445197Y-93871169D01*
X145445188Y-93871172D01*
X145226493Y-93989524D01*
X145030255Y-94142262D01*
X145030252Y-94142265D01*
X144870889Y-94315379D01*
X144811002Y-94351370D01*
X144741164Y-94349269D01*
X144688431Y-94315379D01*
X144529407Y-94142635D01*
X144529397Y-94142626D01*
X144333237Y-93989948D01*
X144333228Y-93989942D01*
X144114614Y-93871635D01*
X144114603Y-93871630D01*
X143879493Y-93790916D01*
X143634293Y-93750000D01*
X143385707Y-93750000D01*
X143140506Y-93790916D01*
X142905396Y-93871630D01*
X142905385Y-93871635D01*
X142686771Y-93989942D01*
X142686762Y-93989948D01*
X142490602Y-94142626D01*
X142490592Y-94142635D01*
X142322232Y-94325521D01*
X142186267Y-94533632D01*
X142086412Y-94761282D01*
X142025387Y-95002261D01*
X142025385Y-95002270D01*
X142004859Y-95249994D01*
X142004859Y-95250005D01*
X142025385Y-95497729D01*
X142025387Y-95497738D01*
X142086412Y-95738717D01*
X142186267Y-95966367D01*
X142322229Y-96174474D01*
X142430838Y-96292454D01*
X142461760Y-96355108D01*
X142453900Y-96424535D01*
X142427290Y-96464118D01*
X142309964Y-96581445D01*
X142113226Y-96778182D01*
X142051905Y-96811666D01*
X142025547Y-96814500D01*
X141983384Y-96814500D01*
X141964145Y-96816248D01*
X141912807Y-96820913D01*
X141750393Y-96871522D01*
X141604811Y-96959530D01*
X141484530Y-97079811D01*
X141396522Y-97225393D01*
X141345913Y-97387807D01*
X141339500Y-97458386D01*
X141339500Y-98121613D01*
X141345913Y-98192192D01*
X141345913Y-98192194D01*
X141345914Y-98192196D01*
X141396522Y-98354606D01*
X141484528Y-98500185D01*
X141578182Y-98593839D01*
X141611666Y-98655160D01*
X141614500Y-98681519D01*
X141614500Y-100362255D01*
X141612775Y-100377872D01*
X141613061Y-100377899D01*
X141612326Y-100385666D01*
X141614469Y-100453843D01*
X141614500Y-100455791D01*
X141614500Y-100484343D01*
X141614501Y-100484360D01*
X141615368Y-100491231D01*
X141615826Y-100497050D01*
X141617290Y-100543624D01*
X141617291Y-100543627D01*
X141622880Y-100562867D01*
X141626824Y-100581911D01*
X141629336Y-100601792D01*
X141640878Y-100630945D01*
X141646490Y-100645119D01*
X141648382Y-100650647D01*
X141661381Y-100695388D01*
X141671580Y-100712634D01*
X141680136Y-100730100D01*
X141683799Y-100739350D01*
X141687514Y-100748732D01*
X141714898Y-100786423D01*
X141718106Y-100791307D01*
X141741827Y-100831416D01*
X141741833Y-100831424D01*
X141755990Y-100845580D01*
X141768627Y-100860375D01*
X141780406Y-100876587D01*
X141811235Y-100902091D01*
X141816309Y-100906288D01*
X141820620Y-100910210D01*
X142040786Y-101130376D01*
X142258181Y-101347771D01*
X142291666Y-101409094D01*
X142294500Y-101435452D01*
X142294500Y-102500010D01*
X142294561Y-102501188D01*
X142294500Y-102501438D01*
X142294501Y-102503164D01*
X142294089Y-102503164D01*
X142278315Y-102569143D01*
X142227908Y-102617526D01*
X142170722Y-102631500D01*
X141943783Y-102631500D01*
X141876744Y-102611815D01*
X141856102Y-102595181D01*
X140316818Y-101055897D01*
X140283333Y-100994574D01*
X140280499Y-100968216D01*
X140280499Y-100699998D01*
X140280498Y-100699981D01*
X140269999Y-100597203D01*
X140269998Y-100597200D01*
X140261664Y-100572050D01*
X140214814Y-100430666D01*
X140122712Y-100281344D01*
X139998656Y-100157288D01*
X139849334Y-100065186D01*
X139775494Y-100040717D01*
X139718051Y-100000945D01*
X139691228Y-99936429D01*
X139690500Y-99923012D01*
X139690500Y-97750651D01*
X139690499Y-97750638D01*
X139674687Y-97625469D01*
X139675301Y-97625391D01*
X139673000Y-97607166D01*
X139673000Y-97485831D01*
X139672999Y-97485818D01*
X139662936Y-97387316D01*
X139643176Y-97327684D01*
X139610049Y-97227713D01*
X139610045Y-97227707D01*
X139610044Y-97227704D01*
X139521783Y-97084612D01*
X139521780Y-97084608D01*
X139402891Y-96965719D01*
X139402887Y-96965716D01*
X139259795Y-96877455D01*
X139259789Y-96877452D01*
X139259787Y-96877451D01*
X139100185Y-96824564D01*
X139100183Y-96824563D01*
X139001681Y-96814500D01*
X139001674Y-96814500D01*
X138546384Y-96814500D01*
X138479345Y-96794815D01*
X138433590Y-96742011D01*
X138423646Y-96672853D01*
X138452671Y-96609297D01*
X138487366Y-96581445D01*
X138618509Y-96510474D01*
X138814744Y-96357738D01*
X138983164Y-96174785D01*
X139119173Y-95966607D01*
X139219063Y-95738881D01*
X139280108Y-95497821D01*
X139300643Y-95250000D01*
X139280108Y-95002179D01*
X139280107Y-95002175D01*
X139219063Y-94761118D01*
X139119173Y-94533393D01*
X138983166Y-94325217D01*
X138961557Y-94301744D01*
X138814744Y-94142262D01*
X138618509Y-93989526D01*
X138618507Y-93989525D01*
X138618506Y-93989524D01*
X138399811Y-93871172D01*
X138399802Y-93871169D01*
X138164616Y-93790429D01*
X137919335Y-93749500D01*
X137670665Y-93749500D01*
X137425383Y-93790429D01*
X137190197Y-93871169D01*
X137190188Y-93871172D01*
X136971493Y-93989524D01*
X136775255Y-94142262D01*
X136775252Y-94142265D01*
X136615889Y-94315379D01*
X136556002Y-94351370D01*
X136486164Y-94349269D01*
X136433431Y-94315379D01*
X136274407Y-94142635D01*
X136274397Y-94142626D01*
X136078237Y-93989948D01*
X136078228Y-93989942D01*
X135859614Y-93871635D01*
X135859603Y-93871630D01*
X135624493Y-93790916D01*
X135379293Y-93750000D01*
X135130707Y-93750000D01*
X134885506Y-93790916D01*
X134650396Y-93871630D01*
X134650385Y-93871635D01*
X134431771Y-93989942D01*
X134431762Y-93989948D01*
X134235602Y-94142626D01*
X134235592Y-94142635D01*
X134067232Y-94325521D01*
X133931267Y-94533632D01*
X133831412Y-94761282D01*
X133770387Y-95002261D01*
X133770385Y-95002270D01*
X133749858Y-95249994D01*
X133749858Y-95250005D01*
X133770385Y-95497729D01*
X133770387Y-95497738D01*
X133831412Y-95738717D01*
X133933328Y-95971065D01*
X133932095Y-95971605D01*
X133945384Y-96033804D01*
X133920725Y-96099178D01*
X133864637Y-96140842D01*
X133821734Y-96148500D01*
X133818643Y-96148500D01*
X133801032Y-96150725D01*
X133797164Y-96151090D01*
X133765375Y-96153090D01*
X133739859Y-96154696D01*
X133732085Y-96157222D01*
X133709320Y-96162310D01*
X133701218Y-96163333D01*
X133701205Y-96163337D01*
X133647810Y-96184477D01*
X133644154Y-96185792D01*
X133589574Y-96203528D01*
X133589556Y-96203534D01*
X133582652Y-96207915D01*
X133561880Y-96218499D01*
X133554273Y-96221511D01*
X133554262Y-96221517D01*
X133507814Y-96255263D01*
X133504595Y-96257451D01*
X133456123Y-96288213D01*
X133456120Y-96288216D01*
X133450529Y-96294170D01*
X133433029Y-96309599D01*
X133426413Y-96314405D01*
X133426412Y-96314406D01*
X133389812Y-96358646D01*
X133387238Y-96361565D01*
X133347937Y-96403417D01*
X133347935Y-96403420D01*
X133343994Y-96410589D01*
X133330889Y-96429873D01*
X133325677Y-96436174D01*
X133325675Y-96436177D01*
X133325057Y-96437491D01*
X133322840Y-96440644D01*
X133321496Y-96442763D01*
X133321395Y-96442699D01*
X133300545Y-96472363D01*
X132994727Y-96778182D01*
X132933406Y-96811666D01*
X132907048Y-96814500D01*
X132610884Y-96814500D01*
X132591644Y-96816248D01*
X132540307Y-96820913D01*
X132377893Y-96871522D01*
X132232311Y-96959530D01*
X132112030Y-97079811D01*
X132024022Y-97225393D01*
X131973413Y-97387807D01*
X131966999Y-97458386D01*
X131966999Y-98121613D01*
X131973413Y-98192192D01*
X131973413Y-98192194D01*
X131973414Y-98192196D01*
X132024022Y-98354606D01*
X132109127Y-98495387D01*
X132112030Y-98500188D01*
X132232311Y-98620469D01*
X132232313Y-98620470D01*
X132232315Y-98620472D01*
X132377894Y-98708478D01*
X132540304Y-98759086D01*
X132610884Y-98765500D01*
X132610896Y-98765500D01*
X132611721Y-98765575D01*
X132676704Y-98791245D01*
X132717493Y-98847973D01*
X132724500Y-98889066D01*
X132724500Y-100247255D01*
X132722775Y-100262872D01*
X132723061Y-100262899D01*
X132722326Y-100270666D01*
X132724469Y-100338846D01*
X132724500Y-100340793D01*
X132724500Y-100369343D01*
X132724501Y-100369360D01*
X132725368Y-100376231D01*
X132725826Y-100382050D01*
X132727290Y-100428624D01*
X132727883Y-100430666D01*
X132732880Y-100447867D01*
X132736824Y-100466911D01*
X132739336Y-100486792D01*
X132752483Y-100519998D01*
X132756490Y-100530119D01*
X132758382Y-100535647D01*
X132768958Y-100572050D01*
X132771382Y-100580390D01*
X132781325Y-100597204D01*
X132781580Y-100597634D01*
X132790136Y-100615100D01*
X132797514Y-100633732D01*
X132814359Y-100656918D01*
X132824898Y-100671423D01*
X132828106Y-100676307D01*
X132851827Y-100716416D01*
X132851833Y-100716424D01*
X132865990Y-100730580D01*
X132878628Y-100745376D01*
X132889474Y-100760305D01*
X132890406Y-100761587D01*
X132923296Y-100788796D01*
X132926309Y-100791288D01*
X132930620Y-100795210D01*
X133215984Y-101080574D01*
X133483181Y-101347771D01*
X133516666Y-101409094D01*
X133519500Y-101435452D01*
X133519500Y-102500001D01*
X133519501Y-102500018D01*
X133530000Y-102602796D01*
X133538573Y-102628666D01*
X133569666Y-102722498D01*
X133572068Y-102792324D01*
X133536337Y-102852366D01*
X133473816Y-102883559D01*
X133451960Y-102885500D01*
X133307783Y-102885500D01*
X133240744Y-102865815D01*
X133220102Y-102849181D01*
X131426817Y-101055897D01*
X131393332Y-100994574D01*
X131390499Y-100968225D01*
X131390499Y-100699992D01*
X131383730Y-100633732D01*
X131379999Y-100597203D01*
X131379998Y-100597200D01*
X131371664Y-100572050D01*
X131324814Y-100430666D01*
X131232712Y-100281344D01*
X131108656Y-100157288D01*
X131108655Y-100157287D01*
X131034381Y-100111475D01*
X131011902Y-100097610D01*
X130965178Y-100045663D01*
X130953000Y-99992076D01*
X130953000Y-98544793D01*
X130971462Y-98479696D01*
X131050044Y-98352295D01*
X131050043Y-98352295D01*
X131050049Y-98352287D01*
X131102936Y-98192685D01*
X131113000Y-98094174D01*
X131113000Y-97485826D01*
X131102936Y-97387315D01*
X131050049Y-97227713D01*
X131050045Y-97227707D01*
X131050044Y-97227704D01*
X130961783Y-97084612D01*
X130961780Y-97084608D01*
X130842891Y-96965719D01*
X130842887Y-96965716D01*
X130699795Y-96877455D01*
X130699789Y-96877452D01*
X130699787Y-96877451D01*
X130540185Y-96824564D01*
X130540183Y-96824563D01*
X130441681Y-96814500D01*
X130441674Y-96814500D01*
X129908326Y-96814500D01*
X129908318Y-96814500D01*
X129809816Y-96824563D01*
X129809815Y-96824564D01*
X129780220Y-96834371D01*
X129650215Y-96877450D01*
X129650204Y-96877455D01*
X129507112Y-96965716D01*
X129507108Y-96965719D01*
X129475181Y-96997647D01*
X129413858Y-97031132D01*
X129344166Y-97026148D01*
X129299819Y-96997647D01*
X129267891Y-96965719D01*
X129267887Y-96965716D01*
X129124795Y-96877455D01*
X129124789Y-96877452D01*
X129124787Y-96877451D01*
X128965185Y-96824564D01*
X128965183Y-96824563D01*
X128958759Y-96822435D01*
X128959571Y-96819981D01*
X128908455Y-96792288D01*
X128874769Y-96731075D01*
X128879525Y-96661367D01*
X128921212Y-96605296D01*
X128936831Y-96595264D01*
X128979464Y-96572191D01*
X129093509Y-96510474D01*
X129289744Y-96357738D01*
X129458164Y-96174785D01*
X129594173Y-95966607D01*
X129694063Y-95738881D01*
X129755108Y-95497821D01*
X129775643Y-95250000D01*
X129755108Y-95002179D01*
X129755107Y-95002175D01*
X129694063Y-94761118D01*
X129594173Y-94533393D01*
X129458166Y-94325217D01*
X129436557Y-94301744D01*
X129289744Y-94142262D01*
X129093509Y-93989526D01*
X129093507Y-93989525D01*
X129093506Y-93989524D01*
X128874811Y-93871172D01*
X128874802Y-93871169D01*
X128639616Y-93790429D01*
X128394335Y-93749500D01*
X128145665Y-93749500D01*
X127900383Y-93790429D01*
X127665197Y-93871169D01*
X127665188Y-93871172D01*
X127446493Y-93989524D01*
X127250255Y-94142262D01*
X127250252Y-94142265D01*
X127090889Y-94315379D01*
X127031002Y-94351370D01*
X126961164Y-94349269D01*
X126908431Y-94315379D01*
X126749407Y-94142635D01*
X126749397Y-94142626D01*
X126553237Y-93989948D01*
X126553228Y-93989942D01*
X126334614Y-93871635D01*
X126334603Y-93871630D01*
X126099493Y-93790916D01*
X125854293Y-93750000D01*
X125605707Y-93750000D01*
X125360506Y-93790916D01*
X125125396Y-93871630D01*
X125125385Y-93871635D01*
X124906771Y-93989942D01*
X124906762Y-93989948D01*
X124710602Y-94142626D01*
X124710592Y-94142635D01*
X124542232Y-94325521D01*
X124406267Y-94533632D01*
X124306412Y-94761282D01*
X124245387Y-95002261D01*
X124245385Y-95002270D01*
X124224858Y-95249994D01*
X124224858Y-95250005D01*
X124245385Y-95497729D01*
X124245387Y-95497738D01*
X124306412Y-95738717D01*
X124406267Y-95966367D01*
X124542232Y-96174478D01*
X124710592Y-96357364D01*
X124710595Y-96357367D01*
X124767047Y-96401305D01*
X124807860Y-96458016D01*
X124811535Y-96527789D01*
X124778567Y-96586840D01*
X124587229Y-96778181D01*
X124525906Y-96811666D01*
X124499547Y-96814500D01*
X124203384Y-96814500D01*
X124184145Y-96816248D01*
X124132807Y-96820913D01*
X123970393Y-96871522D01*
X123824811Y-96959530D01*
X123704530Y-97079811D01*
X123616522Y-97225393D01*
X123565913Y-97387807D01*
X123559500Y-97458386D01*
X123559500Y-98121613D01*
X123565913Y-98192192D01*
X123565913Y-98192194D01*
X123565914Y-98192196D01*
X123616522Y-98354606D01*
X123701627Y-98495387D01*
X123704530Y-98500188D01*
X123798180Y-98593838D01*
X123831665Y-98655161D01*
X123834499Y-98681519D01*
X123834499Y-100247261D01*
X123832776Y-100262878D01*
X123833060Y-100262905D01*
X123832326Y-100270665D01*
X123834469Y-100338845D01*
X123834500Y-100340793D01*
X123834500Y-100369343D01*
X123834501Y-100369360D01*
X123835368Y-100376231D01*
X123835826Y-100382050D01*
X123837290Y-100428624D01*
X123837883Y-100430666D01*
X123842880Y-100447867D01*
X123846824Y-100466911D01*
X123849336Y-100486792D01*
X123862483Y-100519998D01*
X123866490Y-100530119D01*
X123868382Y-100535647D01*
X123878958Y-100572050D01*
X123881382Y-100580390D01*
X123891325Y-100597204D01*
X123891580Y-100597634D01*
X123900136Y-100615100D01*
X123907514Y-100633732D01*
X123924359Y-100656918D01*
X123934898Y-100671423D01*
X123938106Y-100676307D01*
X123961827Y-100716416D01*
X123961833Y-100716424D01*
X123975990Y-100730580D01*
X123988628Y-100745376D01*
X123999474Y-100760305D01*
X124000406Y-100761587D01*
X124033296Y-100788796D01*
X124036309Y-100791288D01*
X124040620Y-100795210D01*
X124325984Y-101080574D01*
X124593181Y-101347771D01*
X124626666Y-101409094D01*
X124629500Y-101435452D01*
X124629500Y-102500010D01*
X124629561Y-102501188D01*
X124629500Y-102501438D01*
X124629501Y-102503164D01*
X124629089Y-102503164D01*
X124613315Y-102569143D01*
X124562908Y-102617526D01*
X124505722Y-102631500D01*
X124417783Y-102631500D01*
X124350744Y-102611815D01*
X124330102Y-102595181D01*
X122637011Y-100902091D01*
X122635914Y-100900966D01*
X122575061Y-100836949D01*
X122575059Y-100836947D01*
X122553659Y-100822052D01*
X122509882Y-100767597D01*
X122500499Y-100720279D01*
X122500499Y-100699998D01*
X122500498Y-100699981D01*
X122489999Y-100597203D01*
X122489998Y-100597200D01*
X122481664Y-100572050D01*
X122434814Y-100430666D01*
X122342712Y-100281344D01*
X122251818Y-100190450D01*
X122218334Y-100129126D01*
X122215500Y-100102769D01*
X122215500Y-98170748D01*
X122215821Y-98164443D01*
X122222999Y-98094181D01*
X122223000Y-98094168D01*
X122223000Y-97485831D01*
X122222999Y-97485818D01*
X122212936Y-97387316D01*
X122193176Y-97327684D01*
X122160049Y-97227713D01*
X122160045Y-97227707D01*
X122160044Y-97227704D01*
X122071783Y-97084612D01*
X122071780Y-97084608D01*
X121952891Y-96965719D01*
X121952887Y-96965716D01*
X121809795Y-96877455D01*
X121809789Y-96877452D01*
X121809787Y-96877451D01*
X121650185Y-96824564D01*
X121650183Y-96824563D01*
X121551681Y-96814500D01*
X121551674Y-96814500D01*
X121018326Y-96814500D01*
X121018318Y-96814500D01*
X120919816Y-96824563D01*
X120919815Y-96824564D01*
X120890220Y-96834371D01*
X120760215Y-96877450D01*
X120760204Y-96877455D01*
X120617112Y-96965716D01*
X120617108Y-96965719D01*
X120585181Y-96997647D01*
X120523858Y-97031132D01*
X120454166Y-97026148D01*
X120409819Y-96997647D01*
X120377890Y-96965718D01*
X120333693Y-96938457D01*
X120286969Y-96886509D01*
X120275748Y-96817546D01*
X120303591Y-96753464D01*
X120361660Y-96714609D01*
X120378378Y-96710611D01*
X120384614Y-96709571D01*
X120619810Y-96628828D01*
X120838509Y-96510474D01*
X121034744Y-96357738D01*
X121203164Y-96174785D01*
X121339173Y-95966607D01*
X121439063Y-95738881D01*
X121500108Y-95497821D01*
X121520643Y-95250000D01*
X121500108Y-95002179D01*
X121500107Y-95002175D01*
X121439063Y-94761118D01*
X121339173Y-94533393D01*
X121203166Y-94325217D01*
X121181557Y-94301744D01*
X121034744Y-94142262D01*
X120838509Y-93989526D01*
X120838507Y-93989525D01*
X120838506Y-93989524D01*
X120619811Y-93871172D01*
X120619802Y-93871169D01*
X120384616Y-93790429D01*
X120139335Y-93749500D01*
X119890665Y-93749500D01*
X119645383Y-93790429D01*
X119410197Y-93871169D01*
X119410188Y-93871172D01*
X119191493Y-93989524D01*
X118995255Y-94142262D01*
X118995252Y-94142265D01*
X118835889Y-94315379D01*
X118776002Y-94351370D01*
X118706164Y-94349269D01*
X118653431Y-94315379D01*
X118494407Y-94142635D01*
X118494397Y-94142626D01*
X118298237Y-93989948D01*
X118298228Y-93989942D01*
X118079614Y-93871635D01*
X118079603Y-93871630D01*
X117844493Y-93790916D01*
X117599293Y-93750000D01*
X117350707Y-93750000D01*
X117105506Y-93790916D01*
X116870396Y-93871630D01*
X116870385Y-93871635D01*
X116651771Y-93989942D01*
X116651762Y-93989948D01*
X116455602Y-94142626D01*
X116455592Y-94142635D01*
X116287232Y-94325521D01*
X116151267Y-94533632D01*
X116051412Y-94761282D01*
X115990387Y-95002261D01*
X115990385Y-95002270D01*
X115969858Y-95249994D01*
X115969858Y-95250005D01*
X115990385Y-95497729D01*
X115990387Y-95497738D01*
X116051412Y-95738717D01*
X116151267Y-95966367D01*
X116239647Y-96101643D01*
X116259834Y-96168532D01*
X116240654Y-96235718D01*
X116205109Y-96270231D01*
X116205743Y-96271049D01*
X116199580Y-96275828D01*
X116185414Y-96289995D01*
X116170624Y-96302627D01*
X116154414Y-96314404D01*
X116154411Y-96314407D01*
X116124710Y-96350309D01*
X116120777Y-96354631D01*
X115697229Y-96778181D01*
X115635906Y-96811666D01*
X115609548Y-96814500D01*
X115313384Y-96814500D01*
X115294145Y-96816248D01*
X115242807Y-96820913D01*
X115080393Y-96871522D01*
X114934811Y-96959530D01*
X114814530Y-97079811D01*
X114726522Y-97225393D01*
X114675913Y-97387807D01*
X114669500Y-97458386D01*
X114669500Y-98121613D01*
X114675913Y-98192192D01*
X114675913Y-98192194D01*
X114675914Y-98192196D01*
X114726522Y-98354606D01*
X114814528Y-98500185D01*
X114908182Y-98593839D01*
X114941666Y-98655160D01*
X114944500Y-98681519D01*
X114944500Y-100247255D01*
X114942775Y-100262872D01*
X114943061Y-100262899D01*
X114942326Y-100270666D01*
X114944469Y-100338846D01*
X114944500Y-100340793D01*
X114944500Y-100369343D01*
X114944501Y-100369360D01*
X114945368Y-100376231D01*
X114945826Y-100382050D01*
X114947290Y-100428624D01*
X114947883Y-100430666D01*
X114952880Y-100447867D01*
X114956824Y-100466911D01*
X114959336Y-100486792D01*
X114972483Y-100519998D01*
X114976490Y-100530119D01*
X114978382Y-100535647D01*
X114988958Y-100572050D01*
X114991382Y-100580390D01*
X115001325Y-100597204D01*
X115001580Y-100597634D01*
X115010136Y-100615100D01*
X115017514Y-100633732D01*
X115034359Y-100656918D01*
X115044898Y-100671423D01*
X115048106Y-100676307D01*
X115071827Y-100716416D01*
X115071833Y-100716424D01*
X115085990Y-100730580D01*
X115098628Y-100745376D01*
X115109474Y-100760305D01*
X115110406Y-100761587D01*
X115143296Y-100788796D01*
X115146309Y-100791288D01*
X115150620Y-100795210D01*
X115435984Y-101080574D01*
X115703181Y-101347771D01*
X115736666Y-101409094D01*
X115739500Y-101435452D01*
X115739500Y-102341217D01*
X115719815Y-102408256D01*
X115667011Y-102454011D01*
X115597853Y-102463955D01*
X115534297Y-102434930D01*
X115527819Y-102428898D01*
X114001011Y-100902091D01*
X113999914Y-100900966D01*
X113939061Y-100836949D01*
X113939060Y-100836948D01*
X113939059Y-100836947D01*
X113905550Y-100813624D01*
X113888709Y-100801902D01*
X113884946Y-100799064D01*
X113837413Y-100760305D01*
X113837406Y-100760300D01*
X113806959Y-100744397D01*
X113800251Y-100740334D01*
X113772049Y-100720705D01*
X113772046Y-100720703D01*
X113772045Y-100720703D01*
X113772041Y-100720701D01*
X113715680Y-100696514D01*
X113711423Y-100694493D01*
X113660165Y-100667718D01*
X113609858Y-100619232D01*
X113599870Y-100596813D01*
X113577993Y-100530793D01*
X113544814Y-100430666D01*
X113452712Y-100281344D01*
X113361818Y-100190450D01*
X113328333Y-100129127D01*
X113325500Y-100102778D01*
X113325500Y-98755894D01*
X113345185Y-98688855D01*
X113384401Y-98650357D01*
X113442891Y-98614281D01*
X113561781Y-98495391D01*
X113650049Y-98352287D01*
X113702936Y-98192685D01*
X113713000Y-98094174D01*
X113713000Y-97485826D01*
X113702936Y-97387315D01*
X113650049Y-97227713D01*
X113650045Y-97227707D01*
X113650044Y-97227704D01*
X113561783Y-97084612D01*
X113561780Y-97084608D01*
X113442891Y-96965719D01*
X113442887Y-96965716D01*
X113299795Y-96877455D01*
X113299789Y-96877452D01*
X113299787Y-96877451D01*
X113140185Y-96824564D01*
X113140183Y-96824563D01*
X113041681Y-96814500D01*
X113041674Y-96814500D01*
X112508326Y-96814500D01*
X112508318Y-96814500D01*
X112409816Y-96824563D01*
X112409815Y-96824564D01*
X112380220Y-96834371D01*
X112250215Y-96877450D01*
X112250204Y-96877455D01*
X112107112Y-96965716D01*
X112107108Y-96965719D01*
X112075181Y-96997647D01*
X112013858Y-97031132D01*
X111944166Y-97026148D01*
X111899819Y-96997647D01*
X111867891Y-96965719D01*
X111867887Y-96965716D01*
X111724795Y-96877455D01*
X111724789Y-96877452D01*
X111724787Y-96877451D01*
X111707769Y-96871811D01*
X111650326Y-96832040D01*
X111623504Y-96767523D01*
X111635819Y-96698748D01*
X111683363Y-96647548D01*
X111706509Y-96636827D01*
X111729810Y-96628828D01*
X111948509Y-96510474D01*
X112144744Y-96357738D01*
X112313164Y-96174785D01*
X112449173Y-95966607D01*
X112549063Y-95738881D01*
X112610108Y-95497821D01*
X112630643Y-95250000D01*
X112610108Y-95002179D01*
X112610107Y-95002175D01*
X112549063Y-94761118D01*
X112449173Y-94533393D01*
X112313166Y-94325217D01*
X112291557Y-94301744D01*
X112144744Y-94142262D01*
X111948509Y-93989526D01*
X111948507Y-93989525D01*
X111948506Y-93989524D01*
X111729811Y-93871172D01*
X111729802Y-93871169D01*
X111494616Y-93790429D01*
X111249335Y-93749500D01*
X111000665Y-93749500D01*
X110755383Y-93790429D01*
X110520197Y-93871169D01*
X110520188Y-93871172D01*
X110301493Y-93989524D01*
X110105255Y-94142262D01*
X110105252Y-94142265D01*
X109945889Y-94315379D01*
X109886002Y-94351370D01*
X109816164Y-94349269D01*
X109763431Y-94315379D01*
X109604407Y-94142635D01*
X109604397Y-94142626D01*
X109408237Y-93989948D01*
X109408228Y-93989942D01*
X109189614Y-93871635D01*
X109189603Y-93871630D01*
X108954493Y-93790916D01*
X108709293Y-93750000D01*
X108460707Y-93750000D01*
X108215506Y-93790916D01*
X107980396Y-93871630D01*
X107980385Y-93871635D01*
X107761771Y-93989942D01*
X107761762Y-93989948D01*
X107565602Y-94142626D01*
X107565592Y-94142635D01*
X107397232Y-94325521D01*
X107261267Y-94533632D01*
X107161412Y-94761282D01*
X107100387Y-95002261D01*
X107100385Y-95002270D01*
X107079858Y-95249994D01*
X107079858Y-95250005D01*
X107100385Y-95497729D01*
X107100387Y-95497738D01*
X107161412Y-95738717D01*
X107261267Y-95966367D01*
X107397232Y-96174478D01*
X107565592Y-96357364D01*
X107565595Y-96357367D01*
X107622047Y-96401305D01*
X107662860Y-96458016D01*
X107666535Y-96527789D01*
X107633567Y-96586840D01*
X107442229Y-96778181D01*
X107380906Y-96811666D01*
X107354547Y-96814500D01*
X107058384Y-96814500D01*
X107039144Y-96816248D01*
X106987807Y-96820913D01*
X106825393Y-96871522D01*
X106679811Y-96959530D01*
X106559530Y-97079811D01*
X106471522Y-97225393D01*
X106420913Y-97387807D01*
X106414500Y-97458386D01*
X106414500Y-98121613D01*
X106420913Y-98192192D01*
X106420913Y-98192194D01*
X106420914Y-98192196D01*
X106471522Y-98354606D01*
X106471523Y-98354607D01*
X106481616Y-98371303D01*
X106499500Y-98435454D01*
X106499500Y-100632255D01*
X106497775Y-100647872D01*
X106498061Y-100647899D01*
X106497326Y-100655666D01*
X106499469Y-100723846D01*
X106499500Y-100725793D01*
X106499500Y-100754343D01*
X106499501Y-100754360D01*
X106500368Y-100761231D01*
X106500826Y-100767050D01*
X106502290Y-100813624D01*
X106502291Y-100813627D01*
X106507880Y-100832867D01*
X106511824Y-100851911D01*
X106514336Y-100871792D01*
X106531490Y-100915119D01*
X106533382Y-100920647D01*
X106544928Y-100960388D01*
X106546382Y-100965390D01*
X106552675Y-100976032D01*
X106556580Y-100982634D01*
X106565136Y-101000100D01*
X106572514Y-101018732D01*
X106598294Y-101054216D01*
X106599898Y-101056423D01*
X106603106Y-101061307D01*
X106626827Y-101101416D01*
X106626833Y-101101424D01*
X106640990Y-101115580D01*
X106653628Y-101130376D01*
X106661772Y-101141586D01*
X106665406Y-101146587D01*
X106691013Y-101167771D01*
X106701309Y-101176288D01*
X106705620Y-101180210D01*
X106759626Y-101234216D01*
X106813181Y-101287771D01*
X106846666Y-101349094D01*
X106849500Y-101375452D01*
X106849500Y-102500010D01*
X106849561Y-102501188D01*
X106849500Y-102501438D01*
X106849501Y-102503164D01*
X106849089Y-102503164D01*
X106833315Y-102569143D01*
X106782908Y-102617526D01*
X106725722Y-102631500D01*
X106182783Y-102631500D01*
X106115744Y-102611815D01*
X106095102Y-102595181D01*
X104641818Y-101141897D01*
X104608333Y-101080574D01*
X104605499Y-101054216D01*
X104605499Y-100519998D01*
X104605498Y-100519981D01*
X104594999Y-100417203D01*
X104594998Y-100417200D01*
X104569679Y-100340793D01*
X104539814Y-100250666D01*
X104482218Y-100157288D01*
X104453961Y-100111475D01*
X104435500Y-100046379D01*
X104435500Y-98707832D01*
X104455185Y-98640793D01*
X104473731Y-98620335D01*
X104472784Y-98619388D01*
X104510500Y-98581672D01*
X104596781Y-98495391D01*
X104685049Y-98352287D01*
X104737936Y-98192685D01*
X104748000Y-98094174D01*
X104748000Y-97485826D01*
X104737936Y-97387315D01*
X104685049Y-97227713D01*
X104685045Y-97227707D01*
X104685044Y-97227704D01*
X104596783Y-97084612D01*
X104596780Y-97084608D01*
X104477891Y-96965719D01*
X104477887Y-96965716D01*
X104334795Y-96877455D01*
X104334789Y-96877452D01*
X104334787Y-96877451D01*
X104175185Y-96824564D01*
X104175183Y-96824563D01*
X104076681Y-96814500D01*
X104076674Y-96814500D01*
X103621384Y-96814500D01*
X103554345Y-96794815D01*
X103508590Y-96742011D01*
X103498646Y-96672853D01*
X103527671Y-96609297D01*
X103562366Y-96581445D01*
X103693509Y-96510474D01*
X103889744Y-96357738D01*
X104058164Y-96174785D01*
X104194173Y-95966607D01*
X104294063Y-95738881D01*
X104355108Y-95497821D01*
X104375643Y-95250000D01*
X104355108Y-95002179D01*
X104355107Y-95002175D01*
X104294063Y-94761118D01*
X104194173Y-94533393D01*
X104058166Y-94325217D01*
X104036557Y-94301744D01*
X103889744Y-94142262D01*
X103693509Y-93989526D01*
X103693507Y-93989525D01*
X103693506Y-93989524D01*
X103474811Y-93871172D01*
X103474802Y-93871169D01*
X103239616Y-93790429D01*
X102994335Y-93749500D01*
X102745665Y-93749500D01*
X102500383Y-93790429D01*
X102265197Y-93871169D01*
X102265188Y-93871172D01*
X102046493Y-93989524D01*
X101850255Y-94142262D01*
X101850252Y-94142265D01*
X101690889Y-94315379D01*
X101631002Y-94351370D01*
X101561164Y-94349269D01*
X101508431Y-94315379D01*
X101349407Y-94142635D01*
X101349397Y-94142626D01*
X101153237Y-93989948D01*
X101153228Y-93989942D01*
X100934614Y-93871635D01*
X100934603Y-93871630D01*
X100699493Y-93790916D01*
X100454293Y-93750000D01*
X100205707Y-93750000D01*
X99960506Y-93790916D01*
X99725396Y-93871630D01*
X99725385Y-93871635D01*
X99506771Y-93989942D01*
X99506762Y-93989948D01*
X99310602Y-94142626D01*
X99310592Y-94142635D01*
X99142232Y-94325521D01*
X99006267Y-94533632D01*
X98906412Y-94761282D01*
X98845387Y-95002261D01*
X98845385Y-95002270D01*
X98824858Y-95249994D01*
X98824858Y-95250005D01*
X98845385Y-95497729D01*
X98845387Y-95497738D01*
X98906412Y-95738717D01*
X99006268Y-95966369D01*
X99007847Y-95968786D01*
X99008188Y-95969918D01*
X99008708Y-95970878D01*
X99008510Y-95970984D01*
X99028034Y-96035676D01*
X99008852Y-96102861D01*
X98956392Y-96149010D01*
X98942336Y-96154542D01*
X98934074Y-96157225D01*
X98911328Y-96162309D01*
X98903215Y-96163334D01*
X98903205Y-96163337D01*
X98850400Y-96184243D01*
X98844875Y-96186135D01*
X98809602Y-96196384D01*
X98800350Y-96200387D01*
X98794905Y-96202444D01*
X98791568Y-96203528D01*
X98791554Y-96203535D01*
X98784650Y-96207916D01*
X98763880Y-96218499D01*
X98756274Y-96221511D01*
X98756270Y-96221513D01*
X98756268Y-96221514D01*
X98756265Y-96221515D01*
X98756258Y-96221520D01*
X98711161Y-96254284D01*
X98706279Y-96257491D01*
X98673582Y-96276827D01*
X98667420Y-96281608D01*
X98666997Y-96281062D01*
X98660386Y-96286341D01*
X98658115Y-96288220D01*
X98652526Y-96294172D01*
X98635030Y-96309597D01*
X98628414Y-96314403D01*
X98628411Y-96314407D01*
X98593921Y-96356098D01*
X98589988Y-96360420D01*
X98368965Y-96581445D01*
X98172229Y-96778181D01*
X98110906Y-96811666D01*
X98084548Y-96814500D01*
X97788384Y-96814500D01*
X97769144Y-96816248D01*
X97717807Y-96820913D01*
X97555393Y-96871522D01*
X97409811Y-96959530D01*
X97289530Y-97079811D01*
X97201522Y-97225393D01*
X97150913Y-97387807D01*
X97144500Y-97458386D01*
X97144500Y-98121613D01*
X90674999Y-98121613D01*
X90674999Y-97870028D01*
X90674998Y-97870012D01*
X90664505Y-97767302D01*
X90609358Y-97600880D01*
X90609356Y-97600875D01*
X90517315Y-97451654D01*
X90393345Y-97327684D01*
X90244124Y-97235643D01*
X90244119Y-97235641D01*
X90077697Y-97180494D01*
X90077690Y-97180493D01*
X89974980Y-97170000D01*
X88375028Y-97170000D01*
X88375012Y-97170001D01*
X88272302Y-97180494D01*
X88105880Y-97235641D01*
X88105875Y-97235643D01*
X87956654Y-97327684D01*
X87832684Y-97451654D01*
X87740643Y-97600875D01*
X87740641Y-97600880D01*
X87685494Y-97767302D01*
X87685493Y-97767309D01*
X87675000Y-97870013D01*
X87675000Y-99169971D01*
X87675001Y-99169987D01*
X87685494Y-99272697D01*
X87740641Y-99439119D01*
X87740643Y-99439124D01*
X87832684Y-99588345D01*
X87956654Y-99712315D01*
X88111484Y-99807815D01*
X88158208Y-99859763D01*
X88169431Y-99928726D01*
X88141587Y-99992808D01*
X88134069Y-100001035D01*
X87986501Y-100148603D01*
X87986501Y-100148604D01*
X87850967Y-100342165D01*
X87850965Y-100342169D01*
X87751098Y-100556335D01*
X87751094Y-100556344D01*
X87689938Y-100784586D01*
X87689936Y-100784596D01*
X87669341Y-101019999D01*
X87669341Y-101020000D01*
X79375500Y-101020000D01*
X79375500Y-87139789D01*
X136725233Y-87139789D01*
X136744273Y-87393864D01*
X136800968Y-87642262D01*
X136800973Y-87642279D01*
X136894058Y-87879456D01*
X136894057Y-87879456D01*
X137021455Y-88100113D01*
X137180320Y-88299325D01*
X137367097Y-88472627D01*
X137577616Y-88616156D01*
X137577624Y-88616161D01*
X137807176Y-88726706D01*
X137807174Y-88726706D01*
X138050652Y-88801809D01*
X138050658Y-88801811D01*
X138302595Y-88839784D01*
X138302604Y-88839785D01*
X138557396Y-88839785D01*
X138557404Y-88839784D01*
X138809341Y-88801811D01*
X138809347Y-88801809D01*
X139052824Y-88726706D01*
X139129046Y-88690000D01*
X151435197Y-88690000D01*
X151454397Y-89056353D01*
X151511784Y-89418684D01*
X151511784Y-89418686D01*
X151606736Y-89773051D01*
X151738204Y-90115535D01*
X151904754Y-90442406D01*
X152104553Y-90750070D01*
X152335420Y-91035166D01*
X152335427Y-91035174D01*
X152594825Y-91294572D01*
X152594833Y-91294579D01*
X152879929Y-91525446D01*
X153187593Y-91725245D01*
X153514464Y-91891795D01*
X153856948Y-92023263D01*
X154211314Y-92118215D01*
X154573646Y-92175602D01*
X154939999Y-92194803D01*
X154940001Y-92194803D01*
X155306353Y-92175602D01*
X155668684Y-92118215D01*
X155668686Y-92118215D01*
X156023051Y-92023263D01*
X156365535Y-91891795D01*
X156692406Y-91725245D01*
X157000070Y-91525446D01*
X157285166Y-91294579D01*
X157285174Y-91294572D01*
X157544572Y-91035174D01*
X157544579Y-91035166D01*
X157775446Y-90750070D01*
X157975245Y-90442406D01*
X158141795Y-90115535D01*
X158273263Y-89773051D01*
X158368215Y-89418686D01*
X158368215Y-89418684D01*
X158425602Y-89056353D01*
X158444803Y-88690000D01*
X158444803Y-88689999D01*
X158425602Y-88323646D01*
X158368215Y-87961315D01*
X158368215Y-87961313D01*
X158273263Y-87606948D01*
X158141795Y-87264464D01*
X157975245Y-86937594D01*
X157775446Y-86629929D01*
X157544579Y-86344833D01*
X157544572Y-86344825D01*
X157285174Y-86085427D01*
X157285166Y-86085420D01*
X157000070Y-85854553D01*
X156692406Y-85654754D01*
X156365535Y-85488204D01*
X156023051Y-85356736D01*
X155668685Y-85261784D01*
X155512031Y-85236973D01*
X155448897Y-85207044D01*
X155411965Y-85147733D01*
X155412963Y-85077870D01*
X155451573Y-85019637D01*
X155515536Y-84991523D01*
X155531429Y-84990500D01*
X156511448Y-84990500D01*
X156725428Y-84975196D01*
X157005046Y-84914369D01*
X157273161Y-84814367D01*
X157524315Y-84677226D01*
X157753395Y-84505739D01*
X157955739Y-84303395D01*
X158127226Y-84074315D01*
X158264367Y-83823161D01*
X158364369Y-83555046D01*
X158425196Y-83275428D01*
X158440500Y-83061448D01*
X158440500Y-79918552D01*
X158425196Y-79704572D01*
X158400007Y-79588781D01*
X158364371Y-79424962D01*
X158364370Y-79424960D01*
X158364369Y-79424954D01*
X158264367Y-79156839D01*
X158185869Y-79013082D01*
X158127229Y-78905690D01*
X158127224Y-78905682D01*
X157955745Y-78676612D01*
X157955729Y-78676594D01*
X157753405Y-78474270D01*
X157753387Y-78474254D01*
X157524317Y-78302775D01*
X157524309Y-78302770D01*
X157273166Y-78165635D01*
X157273167Y-78165635D01*
X157165914Y-78125632D01*
X157005046Y-78065631D01*
X157005043Y-78065630D01*
X157005037Y-78065628D01*
X156725433Y-78004804D01*
X156511450Y-77989500D01*
X156511448Y-77989500D01*
X153368552Y-77989500D01*
X153368549Y-77989500D01*
X153154566Y-78004804D01*
X152874962Y-78065628D01*
X152606833Y-78165635D01*
X152355690Y-78302770D01*
X152355682Y-78302775D01*
X152126612Y-78474254D01*
X152126594Y-78474270D01*
X151924270Y-78676594D01*
X151924254Y-78676612D01*
X151752775Y-78905682D01*
X151752770Y-78905690D01*
X151615635Y-79156833D01*
X151515628Y-79424962D01*
X151454804Y-79704566D01*
X151439500Y-79918549D01*
X151439500Y-83061450D01*
X151454804Y-83275433D01*
X151515628Y-83555037D01*
X151515630Y-83555043D01*
X151515631Y-83555046D01*
X151600871Y-83783582D01*
X151615635Y-83823166D01*
X151752770Y-84074309D01*
X151752775Y-84074317D01*
X151924254Y-84303387D01*
X151924270Y-84303405D01*
X152126594Y-84505729D01*
X152126612Y-84505745D01*
X152355682Y-84677224D01*
X152355690Y-84677229D01*
X152606833Y-84814364D01*
X152606832Y-84814364D01*
X152606836Y-84814365D01*
X152606839Y-84814367D01*
X152874954Y-84914369D01*
X152874960Y-84914370D01*
X152874962Y-84914371D01*
X153154566Y-84975195D01*
X153154568Y-84975195D01*
X153154572Y-84975196D01*
X153368552Y-84990500D01*
X154348571Y-84990500D01*
X154415610Y-85010185D01*
X154461365Y-85062989D01*
X154471309Y-85132147D01*
X154442284Y-85195703D01*
X154383506Y-85233477D01*
X154367969Y-85236973D01*
X154211315Y-85261784D01*
X154211313Y-85261784D01*
X153856948Y-85356736D01*
X153514464Y-85488204D01*
X153187594Y-85654754D01*
X152879929Y-85854553D01*
X152594833Y-86085420D01*
X152594825Y-86085427D01*
X152335427Y-86344825D01*
X152335420Y-86344833D01*
X152104553Y-86629929D01*
X151904754Y-86937594D01*
X151738204Y-87264464D01*
X151606736Y-87606948D01*
X151511784Y-87961313D01*
X151511784Y-87961315D01*
X151454397Y-88323646D01*
X151435197Y-88689999D01*
X151435197Y-88690000D01*
X139129046Y-88690000D01*
X139282376Y-88616161D01*
X139282377Y-88616160D01*
X139492905Y-88472625D01*
X139679679Y-88299325D01*
X139838544Y-88100113D01*
X139965941Y-87879456D01*
X140059026Y-87642279D01*
X140059031Y-87642262D01*
X140115726Y-87393864D01*
X140134767Y-87139789D01*
X140134767Y-87139780D01*
X140115726Y-86885705D01*
X140059031Y-86637307D01*
X140059026Y-86637290D01*
X139965941Y-86400113D01*
X139965942Y-86400113D01*
X139838544Y-86179456D01*
X139679679Y-85980244D01*
X139492905Y-85806944D01*
X139282377Y-85663409D01*
X139282376Y-85663408D01*
X139052823Y-85552863D01*
X139052825Y-85552863D01*
X138809347Y-85477760D01*
X138809341Y-85477758D01*
X138557404Y-85439785D01*
X138302595Y-85439785D01*
X138050658Y-85477758D01*
X138050652Y-85477760D01*
X137807175Y-85552863D01*
X137577624Y-85663408D01*
X137577616Y-85663413D01*
X137367097Y-85806942D01*
X137180320Y-85980244D01*
X137021455Y-86179456D01*
X136894058Y-86400113D01*
X136800973Y-86637290D01*
X136800968Y-86637307D01*
X136744273Y-86885705D01*
X136725233Y-87139780D01*
X136725233Y-87139789D01*
X79375500Y-87139789D01*
X79375500Y-83387655D01*
X136729500Y-83387655D01*
X136729501Y-83387661D01*
X136735908Y-83447268D01*
X136786202Y-83582113D01*
X136786206Y-83582120D01*
X136872452Y-83697329D01*
X136872455Y-83697332D01*
X136987664Y-83783578D01*
X136987671Y-83783582D01*
X137122517Y-83833876D01*
X137122516Y-83833876D01*
X137129444Y-83834620D01*
X137182127Y-83840285D01*
X139677872Y-83840284D01*
X139737483Y-83833876D01*
X139872331Y-83783581D01*
X139987546Y-83697331D01*
X140073796Y-83582116D01*
X140124091Y-83447268D01*
X140130500Y-83387658D01*
X140130499Y-80891913D01*
X140124091Y-80832302D01*
X140073796Y-80697454D01*
X140073795Y-80697453D01*
X140073793Y-80697449D01*
X139987547Y-80582240D01*
X139987544Y-80582237D01*
X139872335Y-80495991D01*
X139872328Y-80495987D01*
X139737482Y-80445693D01*
X139737483Y-80445693D01*
X139677883Y-80439286D01*
X139677881Y-80439285D01*
X139677873Y-80439285D01*
X139677864Y-80439285D01*
X137182129Y-80439285D01*
X137182123Y-80439286D01*
X137122516Y-80445693D01*
X136987671Y-80495987D01*
X136987664Y-80495991D01*
X136872455Y-80582237D01*
X136872452Y-80582240D01*
X136786206Y-80697449D01*
X136786202Y-80697456D01*
X136735908Y-80832302D01*
X136729501Y-80891901D01*
X136729501Y-80891908D01*
X136729500Y-80891920D01*
X136729500Y-83387655D01*
X79375500Y-83387655D01*
X79375500Y-76835000D01*
X80114422Y-76835000D01*
X80134722Y-77222339D01*
X80195397Y-77605427D01*
X80195397Y-77605429D01*
X80295788Y-77980094D01*
X80434787Y-78342197D01*
X80610877Y-78687793D01*
X80822122Y-79013082D01*
X81038401Y-79280164D01*
X81066219Y-79314516D01*
X81340484Y-79588781D01*
X81483474Y-79704572D01*
X81641917Y-79832877D01*
X81773845Y-79918552D01*
X81967211Y-80044125D01*
X82312806Y-80220214D01*
X82674913Y-80359214D01*
X83049567Y-80459602D01*
X83432662Y-80520278D01*
X83798576Y-80539455D01*
X83819999Y-80540578D01*
X83820000Y-80540578D01*
X83820001Y-80540578D01*
X83840300Y-80539514D01*
X84207338Y-80520278D01*
X84590433Y-80459602D01*
X84965087Y-80359214D01*
X85327194Y-80220214D01*
X85672789Y-80044125D01*
X85998084Y-79832876D01*
X86299516Y-79588781D01*
X86573781Y-79314516D01*
X86817876Y-79013084D01*
X87029125Y-78687789D01*
X87205214Y-78342194D01*
X87344214Y-77980087D01*
X87444602Y-77605433D01*
X87505278Y-77222338D01*
X87525578Y-76835000D01*
X163934422Y-76835000D01*
X163954722Y-77222339D01*
X164015397Y-77605427D01*
X164015397Y-77605429D01*
X164115788Y-77980094D01*
X164254787Y-78342197D01*
X164430877Y-78687793D01*
X164642122Y-79013082D01*
X164858401Y-79280164D01*
X164886219Y-79314516D01*
X165160484Y-79588781D01*
X165303474Y-79704572D01*
X165461917Y-79832877D01*
X165593845Y-79918552D01*
X165787211Y-80044125D01*
X166132806Y-80220214D01*
X166494913Y-80359214D01*
X166869567Y-80459602D01*
X167252662Y-80520278D01*
X167618576Y-80539455D01*
X167639999Y-80540578D01*
X167640000Y-80540578D01*
X167640001Y-80540578D01*
X167660300Y-80539514D01*
X168027338Y-80520278D01*
X168410433Y-80459602D01*
X168785087Y-80359214D01*
X169147194Y-80220214D01*
X169492789Y-80044125D01*
X169818084Y-79832876D01*
X170119516Y-79588781D01*
X170393781Y-79314516D01*
X170637876Y-79013084D01*
X170849125Y-78687789D01*
X171025214Y-78342194D01*
X171164214Y-77980087D01*
X171264602Y-77605433D01*
X171325278Y-77222338D01*
X171345578Y-76835000D01*
X171325278Y-76447662D01*
X171264602Y-76064567D01*
X171164214Y-75689913D01*
X171025214Y-75327806D01*
X170849125Y-74982211D01*
X170637876Y-74656916D01*
X170393781Y-74355484D01*
X170119516Y-74081219D01*
X169818084Y-73837124D01*
X169818082Y-73837122D01*
X169492793Y-73625877D01*
X169147197Y-73449787D01*
X168785094Y-73310788D01*
X168785087Y-73310786D01*
X168410433Y-73210398D01*
X168410429Y-73210397D01*
X168410428Y-73210397D01*
X168027339Y-73149722D01*
X167640001Y-73129422D01*
X167639999Y-73129422D01*
X167252660Y-73149722D01*
X166869572Y-73210397D01*
X166869570Y-73210397D01*
X166494905Y-73310788D01*
X166132802Y-73449787D01*
X165787206Y-73625877D01*
X165461917Y-73837122D01*
X165160488Y-74081215D01*
X165160480Y-74081222D01*
X164886222Y-74355480D01*
X164886215Y-74355488D01*
X164642122Y-74656917D01*
X164430877Y-74982206D01*
X164254787Y-75327802D01*
X164115788Y-75689905D01*
X164015397Y-76064570D01*
X164015397Y-76064572D01*
X163954722Y-76447660D01*
X163934422Y-76834999D01*
X163934422Y-76835000D01*
X87525578Y-76835000D01*
X87505278Y-76447662D01*
X87444602Y-76064567D01*
X87344214Y-75689913D01*
X87205214Y-75327806D01*
X87029125Y-74982211D01*
X86817876Y-74656916D01*
X86573781Y-74355484D01*
X86299516Y-74081219D01*
X85998084Y-73837124D01*
X85998082Y-73837122D01*
X85672793Y-73625877D01*
X85327197Y-73449787D01*
X84965094Y-73310788D01*
X84965087Y-73310786D01*
X84590433Y-73210398D01*
X84590429Y-73210397D01*
X84590428Y-73210397D01*
X84207339Y-73149722D01*
X83820001Y-73129422D01*
X83819999Y-73129422D01*
X83432660Y-73149722D01*
X83049572Y-73210397D01*
X83049570Y-73210397D01*
X82674905Y-73310788D01*
X82312802Y-73449787D01*
X81967206Y-73625877D01*
X81641917Y-73837122D01*
X81340488Y-74081215D01*
X81340480Y-74081222D01*
X81066222Y-74355480D01*
X81066215Y-74355488D01*
X80822122Y-74656917D01*
X80610877Y-74982206D01*
X80434787Y-75327802D01*
X80295788Y-75689905D01*
X80195397Y-76064570D01*
X80195397Y-76064572D01*
X80134722Y-76447660D01*
X80114422Y-76834999D01*
X80114422Y-76835000D01*
X79375500Y-76835000D01*
X79375500Y-72514500D01*
X79395185Y-72447461D01*
X79447989Y-72401706D01*
X79499500Y-72390500D01*
X171960500Y-72390500D01*
X172027539Y-72410185D01*
G37*
%TD.AperFunction*%
%TD*%
M02*
